<svg width="131" height="53" viewBox="0 0 131 53" fill="none" xmlns="http://www.w3.org/2000/svg">
<g clip-path="url(#clip0)">
<path d="M129.627 43.9414H0.849945V44.9618H129.627V43.9414Z" fill="white"/>
<path d="M49.0999 29.3369H0.849945V30.3573H49.0999V29.3369Z" fill="white"/>
<path d="M129.627 29.3369H81.311V30.3573H129.627V29.3369Z" fill="white"/>
<path d="M7.2529 33.9922H9.16706C10.2892 33.9922 10.8832 34.3111 10.8832 35.0764C10.8832 35.8417 10.3552 36.1606 9.16706 36.1606H7.2529V33.9922ZM4.87671 41.7728H9.69511C11.6753 41.7728 12.9294 40.6887 12.9294 39.2856C12.9294 38.0101 12.2693 37.3086 11.0152 36.9897C12.0053 36.7346 12.5993 35.9055 12.5993 35.0126C12.5993 33.8009 11.4773 32.5254 9.36508 32.5254H4.87671V32.7805C5.27274 32.8443 5.40475 32.908 5.40475 33.2269V41.0713C5.40475 41.3902 5.33875 41.454 4.87671 41.5177V41.7728ZM7.2529 37.6274H9.10106C10.4212 37.6274 11.2132 38.0101 11.2132 38.9667C11.2132 39.9233 10.4212 40.306 9.10106 40.306H7.2529V37.6274Z" fill="white"/>
<path d="M15.5696 41.7728V41.5177C15.2396 41.5177 15.1736 41.3264 15.1736 41.1989C15.1736 41.1351 15.2396 41.0075 15.2396 40.88L15.7676 39.4131H19.0679L19.6619 41.0075C19.7279 41.1351 19.7279 41.1989 19.7279 41.3264C19.7279 41.454 19.6619 41.5177 19.3979 41.5177V41.7728H21.8401V41.5177C21.6421 41.454 21.5761 41.3902 21.4441 41.0713L18.8699 33.7371C18.6718 33.2907 18.6718 33.0994 18.6718 33.0356C18.6718 32.8443 18.8039 32.7805 19.0679 32.7167V32.5254H16.0316V32.7805C16.3617 32.8443 16.4277 32.908 16.4277 32.9718C16.4277 33.0994 16.3617 33.2269 16.2957 33.5458L13.6554 41.0713C13.5894 41.1989 13.5234 41.454 13.2594 41.5177V41.7728H15.5696ZM16.2296 38.1376L17.4177 34.4387H17.4837L18.6718 38.1376H16.2296Z" fill="white"/>
<path d="M23.0942 41.0714C23.0942 41.3902 23.0282 41.454 22.6322 41.5178V41.7729H26.2625C29.3647 41.7729 31.0149 40.2423 31.0149 37.1173C31.0149 34.5025 29.6287 32.4617 26.5925 32.4617H22.5662V32.7168C22.8962 32.7805 23.0282 32.8443 23.0282 33.1632V41.0714H23.0942ZM24.8764 33.9923H25.9324C28.3746 33.9923 29.2327 34.7576 29.2327 37.1173C29.2327 39.5408 28.3746 40.2423 25.9324 40.2423H24.8764V33.9923Z" fill="white"/>
<path d="M34.3151 40.2423H38.4735C38.8695 40.2423 39.0675 40.1785 39.0675 39.9234H39.3315V42.0918H39.0675C39.0015 41.8366 38.8695 41.7729 38.4735 41.7729H31.8729V41.5178C32.335 41.454 32.467 41.3902 32.467 41.0713V33.227C32.467 32.9081 32.401 32.8443 31.8729 32.7805V32.5254H38.2094C38.6055 32.5254 38.8035 32.4616 38.8035 32.2065H39.0675V34.3111H38.8035C38.7375 34.056 38.6055 34.056 38.2094 34.056H34.3151V36.352H36.6253C37.0214 36.352 37.1534 36.2882 37.2194 36.0331H37.4834V38.1377H37.2194C37.1534 37.8826 37.0214 37.8826 36.6253 37.8826H34.3151V40.2423Z" fill="white"/>
<path d="M40.7837 41.7728V41.5177C41.1137 41.454 41.1797 41.3264 41.1797 41.0713V33.2269C41.1797 32.908 41.1137 32.8443 40.8497 32.7805V32.5254H43.8199V32.7805C43.5559 32.7805 43.4899 32.8443 43.4899 32.908C43.4899 33.2269 46.6581 37.9463 46.7902 38.7116H46.8562V33.1631C46.8562 32.8443 46.7902 32.7805 46.4601 32.7167V32.5254H48.9023V32.7805C48.5723 32.8443 48.5063 32.908 48.5063 33.2269V41.0713C48.5063 41.454 48.5723 41.454 48.8363 41.5177V41.7728H46.1961V41.5177C46.3941 41.454 46.5261 41.454 46.5261 41.2626C46.5261 40.9438 43.4239 36.5432 42.8298 34.9489H42.7638V41.0075C42.7638 41.3264 42.8298 41.3902 43.1599 41.454V41.7091H40.7837V41.7728Z" fill="white"/>
<path d="M83.8852 33.9922H85.7994C86.9214 33.9922 87.5155 34.3111 87.5155 35.0764C87.5155 35.8417 86.9875 36.1606 85.7994 36.1606H83.8852V33.9922ZM81.509 41.7728H86.3934C88.3736 41.7728 89.6277 40.6887 89.6277 39.2856C89.6277 38.0101 88.9676 37.3086 87.7135 36.9897C88.7036 36.7346 89.2976 35.9055 89.2976 35.0126C89.2976 33.8009 88.1755 32.5254 86.0634 32.5254H81.575V32.7805C81.971 32.8443 82.1031 32.908 82.1031 33.2269V41.0713C82.1031 41.3902 82.037 41.454 81.575 41.5177V41.7728H81.509ZM83.8852 37.6274H85.7333C87.0535 37.6274 87.8455 38.0101 87.8455 38.9667C87.8455 39.9233 87.0535 40.306 85.7333 40.306H83.8852V37.6274Z" fill="white"/>
<path d="M92.2019 41.7728V41.5177C91.8719 41.5177 91.8058 41.3264 91.8058 41.1989C91.8058 41.1351 91.8719 41.0075 91.8719 40.88L92.3999 39.4131H95.7002L96.2942 41.0075C96.3602 41.1351 96.3602 41.1989 96.3602 41.3264C96.3602 41.454 96.2942 41.5177 96.0302 41.5177V41.7728H98.4724V41.5177C98.2744 41.454 98.2084 41.3902 98.0764 41.0713L95.5022 33.7371C95.3701 33.2907 95.3041 33.0994 95.3041 33.0356C95.3041 32.8443 95.4361 32.7805 95.7002 32.7167V32.5254H92.6639V32.7805C92.9939 32.8443 93.0599 32.908 93.0599 32.9718C93.0599 33.0994 92.9939 33.2269 92.9279 33.5458L90.2877 41.0713C90.2217 41.1989 90.1557 41.454 89.8917 41.5177V41.7728H92.2019ZM92.8619 38.1376L94.05 34.4387H94.116L95.3041 38.1376H92.8619Z" fill="white"/>
<path d="M99.7265 41.0714C99.7265 41.3902 99.6605 41.454 99.2645 41.5178V41.7729H102.895C105.997 41.7729 107.647 40.2423 107.647 37.1173C107.647 34.5025 106.261 32.4617 103.225 32.4617H99.1985V32.7168C99.5285 32.7805 99.6605 32.8443 99.6605 33.1632V41.0714H99.7265ZM101.509 33.9923H102.565C105.007 33.9923 105.865 34.7576 105.865 37.1173C105.865 39.5408 105.007 40.2423 102.565 40.2423H101.509V33.9923Z" fill="white"/>
<path d="M110.947 40.2423H115.106C115.502 40.2423 115.7 40.1785 115.7 39.9234H115.964V42.0918H115.7C115.634 41.8366 115.502 41.7729 115.106 41.7729H108.505V41.5178C108.967 41.454 109.099 41.3902 109.099 41.0713V33.227C109.099 32.9081 109.033 32.8443 108.505 32.7805V32.5254H114.842C115.238 32.5254 115.37 32.4616 115.436 32.2065H115.7V34.3111H115.436C115.37 34.056 115.238 34.056 114.842 34.056H110.881V36.352H113.192C113.588 36.352 113.786 36.2882 113.786 36.0331H114.05V38.1377H113.786C113.72 37.8826 113.588 37.8826 113.192 37.8826H110.947V40.2423Z" fill="white"/>
<path d="M117.416 41.7728V41.5177C117.746 41.454 117.812 41.3264 117.812 41.0713V33.2269C117.812 32.908 117.746 32.8443 117.482 32.7805V32.5254H120.452V32.7805C120.188 32.7805 120.122 32.8443 120.122 32.908C120.122 33.2269 123.29 37.9463 123.422 38.7116H123.488V33.1631C123.488 32.8443 123.422 32.7805 123.092 32.7167V32.5254H125.535V32.7805C125.205 32.8443 125.139 32.908 125.139 33.2269V41.0713C125.139 41.454 125.205 41.454 125.469 41.5177V41.7728H122.828V41.5177C123.026 41.454 123.158 41.454 123.158 41.2626C123.158 40.9438 120.056 36.5432 119.462 34.9489H119.396V41.0075C119.396 41.3264 119.462 41.3902 119.792 41.454V41.7091H117.416V41.7728Z" fill="white"/>
<path d="M56.0309 33.2907C56.0309 33.1632 55.8989 33.0356 55.7009 33.0356C55.5689 33.0356 55.4369 33.1632 55.4369 33.2907C55.7669 38.1377 59.3972 40.9438 60.9813 41.9004C61.0473 41.9004 61.1133 41.9642 61.1133 41.9642C61.1793 41.9642 61.3113 41.9004 61.3774 41.8367C61.4434 41.7091 61.4434 41.5178 61.3114 41.454C59.8592 40.5612 56.3609 37.8826 56.0309 33.2907Z" fill="white"/>
<path d="M55.5029 27.1683C55.5689 26.8494 55.4369 26.5305 55.2389 26.2754C54.9748 26.0203 54.6448 25.9565 54.3148 26.0203C54.2488 26.3392 54.3808 26.6581 54.5788 26.9132C54.8428 27.1045 55.1728 27.2321 55.5029 27.1683Z" fill="white"/>
<path d="M55.7669 26.0842C56.0309 25.8929 56.2289 25.574 56.2289 25.2551C56.2289 24.9362 56.0309 24.6174 55.7669 24.426C55.5029 24.6174 55.3049 24.9362 55.3049 25.2551C55.3049 25.574 55.5029 25.8929 55.7669 26.0842Z" fill="white"/>
<path d="M55.3046 27.7422C55.0406 27.4871 54.7106 27.4233 54.3805 27.4871C54.3145 27.806 54.4465 28.1249 54.6446 28.38C54.9086 28.6351 55.2386 28.6988 55.5686 28.6351C55.7007 28.38 55.5686 27.9973 55.3046 27.7422Z" fill="white"/>
<path d="M54.3805 29.0179C54.3145 29.3368 54.4465 29.6556 54.6446 29.9107C54.9086 30.1658 55.2386 30.2296 55.5686 30.1658C55.6346 29.847 55.5026 29.5281 55.3046 29.273C55.1066 29.0179 54.7106 28.9541 54.3805 29.0179Z" fill="white"/>
<path d="M56.0309 27.1682C56.3609 27.232 56.691 27.1044 56.955 26.9131C57.219 26.658 57.285 26.3391 57.219 26.0203C56.889 25.9565 56.5589 26.084 56.2949 26.2754C56.0969 26.5305 55.9649 26.8493 56.0309 27.1682Z" fill="white"/>
<path d="M57.285 27.4873C56.955 27.4235 56.625 27.5511 56.3609 27.7424C56.0969 27.9975 56.0309 28.3164 56.0969 28.6353C56.427 28.699 56.757 28.5715 57.021 28.3802C57.219 28.1251 57.351 27.8062 57.285 27.4873Z" fill="white"/>
<path d="M57.285 29.0178C56.955 28.954 56.625 29.0816 56.3609 29.2729C56.0969 29.528 56.0309 29.8469 56.0969 30.1658C56.427 30.2295 56.757 30.102 57.021 29.9107C57.219 29.6556 57.351 29.2729 57.285 29.0178Z" fill="white"/>
<path d="M55.3046 30.7398C55.0406 30.4847 54.7106 30.4209 54.3805 30.4847C54.3145 30.8035 54.4465 31.1224 54.6446 31.3775C54.9086 31.6326 55.2386 31.6964 55.5686 31.6326C55.7007 31.3775 55.5686 30.9949 55.3046 30.7398Z" fill="white"/>
<path d="M56.2949 30.7397C56.0309 30.9948 55.9649 31.3137 56.0309 31.6326C56.3609 31.6963 56.691 31.5688 56.955 31.3775C57.219 31.1224 57.285 30.8035 57.219 30.4846C56.955 30.4208 56.559 30.5484 56.2949 30.7397Z" fill="white"/>
<path d="M74.8425 33.0356C74.7104 33.0356 74.5784 33.1632 74.5124 33.2907C74.1824 37.9464 70.6841 40.5612 69.232 41.5178C69.1 41.5816 69.1 41.7729 69.166 41.9004C69.232 41.9642 69.298 42.028 69.43 42.028C69.496 42.028 69.562 42.028 69.562 41.9642C71.0801 41.0076 74.7104 38.2015 75.1065 33.3545C75.1065 33.1632 74.9745 33.0356 74.8425 33.0356Z" fill="white"/>
<path d="M75.0405 27.1682C75.3705 27.232 75.7005 27.1044 75.9645 26.9131C76.2286 26.658 76.2946 26.3391 76.2286 26.0203C75.8985 25.9565 75.5685 26.084 75.3045 26.2754C75.0405 26.5305 74.9745 26.8493 75.0405 27.1682Z" fill="white"/>
<path d="M74.7765 26.1479C75.1065 25.9566 75.3045 25.5739 75.3045 25.1913C75.3045 24.8086 75.1065 24.4897 74.7765 24.2346C74.4464 24.4259 74.2484 24.8086 74.2484 25.1913C74.2484 25.6377 74.5124 25.9566 74.7765 26.1479Z" fill="white"/>
<path d="M75.2385 27.7422C74.9745 27.9973 74.9085 28.3162 74.9745 28.6351C75.3045 28.6989 75.6345 28.5713 75.8985 28.38C76.1626 28.1249 76.2286 27.806 76.1626 27.4871C75.8325 27.4233 75.5025 27.4871 75.2385 27.7422Z" fill="white"/>
<path d="M75.2385 29.273C74.9745 29.5281 74.9085 29.847 74.9745 30.1658C75.3045 30.2296 75.6345 30.1021 75.8985 29.9107C76.1626 29.6556 76.2286 29.3368 76.1626 29.0179C75.8325 28.9541 75.5025 29.0179 75.2385 29.273Z" fill="white"/>
<path d="M74.5125 27.1683C74.5785 26.8494 74.4465 26.5305 74.2484 26.2754C73.9844 26.0203 73.6544 25.9565 73.3244 26.0203C73.2584 26.3392 73.3904 26.6581 73.5884 26.9132C73.8524 27.1045 74.1824 27.2321 74.5125 27.1683Z" fill="white"/>
<path d="M74.5125 28.6351C74.5785 28.3162 74.4465 27.9973 74.2484 27.7422C73.9844 27.4871 73.6544 27.4233 73.3244 27.4871C73.2584 27.806 73.3904 28.1249 73.5884 28.38C73.8524 28.6351 74.1824 28.6988 74.5125 28.6351Z" fill="white"/>
<path d="M74.5125 30.1658C74.5785 29.847 74.4465 29.5281 74.2484 29.273C73.9844 29.0179 73.6544 28.9541 73.3244 29.0179C73.2584 29.3368 73.3904 29.6556 73.5884 29.9107C73.8524 30.1021 74.1824 30.2296 74.5125 30.1658Z" fill="white"/>
<path d="M75.2385 30.7397C74.9745 30.9948 74.9085 31.3137 74.9745 31.6326C75.3045 31.6963 75.6345 31.5688 75.8985 31.3775C76.1626 31.1224 76.2286 30.8035 76.1626 30.4846C75.8325 30.4208 75.5025 30.5484 75.2385 30.7397Z" fill="white"/>
<path d="M74.5125 31.6963C74.5785 31.3775 74.4465 31.0586 74.2484 30.8035C73.9844 30.5484 73.6544 30.4846 73.3244 30.5484C73.2584 30.8673 73.3904 31.1861 73.5884 31.4412C73.8524 31.6326 74.1824 31.6963 74.5125 31.6963Z" fill="white"/>
<path d="M58.2091 22.1938V31.3137C58.2091 38.9668 62.0374 40.1785 64.3476 40.9438C64.6776 41.0714 64.9416 41.1352 65.2057 41.2627H65.2717H65.3377C65.5357 41.1989 65.7997 41.0714 66.1297 41.0076C68.3079 40.3061 72.3342 39.0306 72.3342 31.3137V22.1938H58.2091ZM71.8062 31.3137C71.8062 38.5204 68.2419 39.6683 66.0637 40.3061C65.7997 40.3699 65.6017 40.4336 65.4037 40.5612L65.3377 40.625L65.2717 40.5612C65.0736 40.4974 64.8096 40.3699 64.5456 40.3061C62.3014 39.5408 58.8031 38.3928 58.8031 31.3137V22.7678H71.8062V31.3137Z" fill="white"/>
<path d="M65.4697 35.3315C65.0737 35.6504 64.9417 35.9693 64.9417 36.0969C65.0737 35.9693 65.2057 35.8417 65.5357 35.6504C65.5357 35.5866 65.4697 35.4591 65.4697 35.3315Z" fill="white"/>
<path d="M66.0637 35.7781C65.5357 35.9694 65.2717 36.1607 65.2057 36.2883C65.1396 36.3521 65.1396 36.4158 65.1396 36.4796C65.1396 36.4796 65.1396 36.4796 65.1396 36.5434H65.2057C65.2717 36.5434 65.3377 36.5434 65.3377 36.4796C65.5357 36.4158 65.7997 36.2245 66.0637 35.7781Z" fill="white"/>
<path d="M66.7238 34.311C66.3278 34.6299 66.1957 34.9488 66.1957 35.0763C66.3278 34.9488 66.4598 34.8212 66.7898 34.6299C66.7898 34.5661 66.7238 34.4386 66.7238 34.311Z" fill="white"/>
<path d="M65.4697 36.7345C65.6677 36.7983 65.9317 36.7345 66.3278 36.4156C66.1957 36.3519 66.1297 36.2881 65.9977 36.2881C65.7997 36.4794 65.6017 36.607 65.4697 36.7345Z" fill="white"/>
<path d="M68.0439 30.4845C68.5059 30.4845 68.704 30.2931 68.704 30.038C68.704 29.6554 68.4399 29.5278 67.9119 29.5278C67.7799 29.5278 67.6479 29.5278 67.5159 29.5278V30.1656C67.5159 30.4207 67.6479 30.4845 68.0439 30.4845Z" fill="white"/>
<path d="M63.1595 28.6988C63.1595 28.4437 62.9615 28.3162 62.6314 28.3162C62.3014 28.3162 62.1694 28.3799 62.1694 28.635V29.0815C62.2354 29.0815 62.3674 29.0815 62.4994 29.0815C62.8955 29.1452 63.1595 29.0177 63.1595 28.6988Z" fill="white"/>
<path d="M67.3178 34.7576C66.7898 34.9489 66.5258 35.1402 66.4598 35.2678C66.4598 35.3315 66.3938 35.3315 66.3938 35.3953L66.5918 35.3315L66.5258 35.5229C66.5918 35.5229 66.5918 35.5229 66.6578 35.4591C66.7898 35.3953 66.9878 35.204 67.3178 34.7576Z" fill="white"/>
<path d="M68.5719 28.6988C68.5719 28.4437 68.3739 28.3162 68.0439 28.3162C67.7139 28.3162 67.5818 28.3799 67.5818 28.635V29.0815C67.6479 29.0815 67.7799 29.0815 67.9119 29.0815C68.3079 29.1452 68.5719 29.0177 68.5719 28.6988Z" fill="white"/>
<path d="M64.4136 33.4821C64.1496 33.0994 63.6876 33.0356 63.6215 33.0356L63.5555 33.227C63.5555 33.227 63.9516 33.2907 64.1496 33.5458C64.0176 33.6734 63.8856 33.801 63.7536 33.801C63.4895 33.4821 63.0935 33.4183 63.0935 33.4183L63.0275 33.6096C63.0275 33.6096 63.4235 33.6734 63.6215 33.9285C63.4235 34.1836 63.0275 34.2474 63.0275 34.2474L63.0935 34.4387C63.0935 34.4387 63.5555 34.3749 63.8196 34.0561C63.9516 34.1198 64.0836 34.1836 64.1496 34.3112C63.9516 34.5663 63.5555 34.63 63.5555 34.63L63.6215 34.8214C63.6215 34.8214 64.1496 34.7576 64.4136 34.3112V34.3749C64.4136 34.3749 64.9417 34.3112 65.2057 33.8647V33.801V33.7372C64.9417 33.6096 64.4136 33.4821 64.4136 33.4821ZM64.3476 34.3749C64.2156 34.1836 64.0836 34.0561 63.9516 33.9923C64.0836 33.9285 64.2816 33.801 64.4136 33.6096V33.6734C64.4136 33.6734 64.8096 33.7372 65.0077 33.9923C64.7436 34.3112 64.3476 34.3749 64.3476 34.3749Z" fill="white"/>
<path d="M62.6314 30.4845C63.0275 30.4845 63.2915 30.2931 63.2915 30.038C63.2915 29.6554 63.0275 29.5278 62.4994 29.5278C62.3674 29.5278 62.2354 29.5278 62.1034 29.5278V30.1656C62.1034 30.4207 62.2354 30.4845 62.6314 30.4845Z" fill="white"/>
<path d="M69.232 32.334C68.836 32.6529 68.7039 32.9717 68.7039 33.0993C68.836 32.9717 68.968 32.8442 69.298 32.6529C69.298 32.5891 69.232 32.4615 69.232 32.334Z" fill="white"/>
<path d="M66.7238 35.7142C66.9218 35.778 67.1858 35.7142 67.5819 35.3954C67.4498 35.3316 67.3838 35.2678 67.2518 35.2678C67.0538 35.5229 66.8558 35.6505 66.7238 35.7142Z" fill="white"/>
<path d="M59.3972 23.4055V31.3137C59.3972 37.9463 62.6975 39.0305 64.6116 39.732C64.8756 39.7958 65.0736 39.8596 65.2717 39.9872C65.4697 39.9234 65.6677 39.8596 65.8657 39.7958C67.8459 39.1581 71.1461 38.0739 71.1461 31.3775V23.4055H59.3972ZM66.7238 27.9336C66.9218 27.9336 67.0538 27.9336 67.1198 27.9336C67.4498 27.9336 67.7139 27.8698 68.0439 27.8698C68.7699 27.8698 69.1 28.1249 69.1 28.6351C69.1 28.954 68.968 29.1453 68.7039 29.2091C69.1 29.3366 69.232 29.5917 69.232 29.9744C69.232 30.5484 68.836 30.8673 68.1759 30.8673C67.9119 30.8673 67.5819 30.8035 67.1858 30.8035C67.0538 30.8035 66.9218 30.8035 66.6578 30.8035C66.7898 30.6759 66.8558 30.4846 66.8558 30.2933V28.3162C66.9218 28.2525 66.8558 28.0611 66.7238 27.9336ZM65.9317 26.5305L66.1957 26.4667C66.1957 26.4667 66.3278 27.1045 66.9878 27.1045V27.4234C66.2617 27.4234 65.9977 26.8494 65.9317 26.5305ZM67.8459 25.5101C68.0439 25.5101 68.2419 25.4463 68.5059 25.3188L68.6379 25.5739C68.3739 25.7652 68.1099 25.829 67.8459 25.829C67.3838 25.829 66.9878 25.6377 66.9218 25.5739L67.0538 25.3826C67.0538 25.3826 67.0538 25.3826 67.1198 25.3826C67.1858 25.3826 67.1858 25.4463 67.2518 25.4463C67.4498 25.5101 67.6479 25.5101 67.8459 25.5101ZM65.9317 24.3622C65.9317 24.4259 66.1957 24.9361 67.2518 24.9361H67.3178V25.1912H67.2518C65.9977 25.1912 65.6677 24.5535 65.6677 24.4897L65.9317 24.3622ZM65.5357 25.0637H65.7997C65.7997 25.0637 65.7997 25.0637 65.7997 25.1275C65.7997 25.255 65.7997 25.4463 65.9977 25.6377C66.3278 25.9565 66.9218 26.1479 67.7139 26.1479V26.403C67.5158 26.403 67.3838 26.403 67.1858 26.403C67.1858 26.4667 67.2518 26.5305 67.3178 26.5305C67.5158 26.7218 68.0439 26.7856 68.4399 26.7856C68.6379 26.7856 68.836 26.7856 68.968 26.7856V27.0407C68.968 27.0407 68.7039 27.0407 68.3739 27.0407C67.9119 27.0407 67.3178 26.9769 67.0538 26.7218C66.9218 26.5943 66.8558 26.4667 66.8558 26.3392C66.3278 26.2754 65.9977 26.0841 65.7337 25.829V31.8877H65.7997C66.1957 31.6963 66.7898 31.505 67.4498 31.505C67.7799 31.505 68.2419 31.6326 68.7039 31.8239H68.77L68.6379 32.079C68.2419 31.8877 67.8459 31.7601 67.5819 31.7601C66.9878 31.7601 66.3938 31.9514 66.0637 32.1428L65.9317 32.2065V32.2703C65.9317 32.5892 66.3278 32.8443 66.7238 32.9718C67.1198 33.0994 67.5158 33.1632 67.5158 33.1632H67.5819L67.3838 33.4183C66.9878 33.3545 65.6677 33.1632 65.6677 32.2703V25.7652H65.7997C65.6677 25.5101 65.6017 25.3188 65.6017 25.1912C65.5357 25.1275 65.5357 25.0637 65.5357 25.0637ZM65.1397 34.4387L65.0736 34.3111L64.8756 34.4387C64.8756 34.4387 65.0076 34.63 65.0736 34.6938C64.7436 35.0127 64.4136 35.0127 64.2156 35.0127L64.0836 34.8851L63.8856 35.0127C63.8856 35.0127 64.0176 35.204 64.0836 35.3315C63.0275 35.5866 62.4994 34.7576 62.4334 34.63C62.4994 34.63 62.5654 34.5662 62.6314 34.5662C62.7635 34.4387 62.8295 34.3111 62.8295 34.3111V34.2474C62.8295 34.2474 62.4994 33.9285 62.3674 33.8009C62.7635 33.6096 62.9615 33.2269 63.0935 32.8443C63.3575 32.7167 63.6875 32.653 64.1496 32.7805C64.0836 32.9081 63.9516 33.0994 63.9516 33.0994L64.1496 33.2269L64.2156 33.0994C64.4136 33.0994 64.7436 33.0994 65.0736 33.4183C65.0076 33.482 64.8756 33.6734 64.8756 33.6734L65.0736 33.8009L65.1397 33.6734V33.7372C65.1397 33.7372 65.5357 33.8009 65.7337 34.056C65.4697 34.3111 65.1397 34.3749 65.1397 34.4387ZM63.4235 24.9361C64.5456 24.9361 64.8096 24.4259 64.8096 24.4259L65.0736 24.5535C65.0736 24.5535 64.7436 25.255 63.4895 25.255H63.4235V24.9361ZM62.2354 25.3188C62.4994 25.4463 62.6975 25.5101 62.8955 25.5101C63.2915 25.5101 63.6215 25.3188 63.6875 25.3188L63.8195 25.5101C63.8195 25.5101 63.4235 25.7652 62.8955 25.7652C62.6314 25.7652 62.3674 25.7014 62.1034 25.5101L62.2354 25.3188ZM61.3113 27.9336C61.5094 27.9336 61.6414 27.9336 61.7734 27.9336C62.1034 27.9336 62.3674 27.8698 62.6975 27.8698C63.3575 27.8698 63.7535 28.1249 63.7535 28.6351C63.7535 28.954 63.6215 29.1453 63.3575 29.2091C63.7535 29.3366 63.8856 29.5917 63.8856 29.9744C63.8856 30.5484 63.4895 30.8673 62.8295 30.8673C62.5654 30.8673 62.2354 30.8035 61.8394 30.8035C61.7074 30.8035 61.5754 30.8035 61.3113 30.8035C61.4434 30.6759 61.5094 30.4846 61.5094 30.2933V28.3162C61.5094 28.2525 61.4434 28.0611 61.3113 27.9336ZM63.6875 27.4234V27.1683C64.3476 27.1683 64.4796 26.5305 64.4796 26.5305L64.7436 26.5943C64.7436 26.8494 64.4136 27.4234 63.6875 27.4234ZM60.7833 32.3341C60.8493 32.2703 62.3014 31.4412 63.1595 31.4412C63.8195 31.4412 64.4136 31.6326 64.8096 31.8239H64.8756V25.8928C64.6116 26.1479 64.2816 26.3392 63.7535 26.403C63.7535 26.5305 63.6875 26.6581 63.5555 26.7856C63.2255 27.0407 62.6314 27.1045 62.2354 27.1045C61.9054 27.1045 61.7074 27.1045 61.6414 27.1045V26.8494C61.7734 26.8494 61.9714 26.8494 62.1694 26.8494C62.5654 26.8494 63.0935 26.7856 63.2915 26.5943C63.3575 26.5305 63.3575 26.5305 63.3575 26.4667C63.2255 26.4667 63.0275 26.4667 62.8295 26.4667H62.7635V26.2116H62.8295C63.6875 26.2116 64.2816 26.0203 64.5456 25.7014C64.7436 25.5101 64.7436 25.255 64.7436 25.1912C64.7436 25.1275 64.7436 25.1275 64.7436 25.1275H64.9416V25.1912C64.9416 25.3188 64.9416 25.5101 64.7436 25.7652H64.8756V32.3979H64.6116V32.2065L64.4796 32.1428C64.0836 32.0152 63.5555 31.7601 62.9615 31.7601C62.2354 31.7601 60.7833 32.5892 60.7173 32.5892L60.7833 32.3341ZM69.1 33.9923C69.034 33.9923 68.902 33.9285 68.836 33.8009C68.7699 33.8647 68.7699 33.9285 68.7039 33.9923C68.902 34.056 69.1 34.1836 69.298 34.3111C68.5719 34.9489 68.1099 35.0127 67.8459 34.9489C67.7799 34.9489 67.6479 34.8851 67.5819 34.7576C67.5158 34.8213 67.5158 34.8851 67.4498 34.9489C67.6479 35.0127 67.8459 35.1402 68.0439 35.2678C67.3178 35.9055 66.8558 35.9693 66.5918 35.9055C66.5258 35.9055 66.3938 35.8417 66.3278 35.7142C66.2617 35.778 66.2617 35.8417 66.1957 35.9055C66.3938 35.9693 66.5918 36.0968 66.7898 36.2244C66.0637 36.8622 65.6017 36.9259 65.3377 36.8622C65.2717 36.8622 65.1397 36.7984 65.0736 36.607L64.2156 37.2448C65.0076 37.4361 65.9977 37.3724 67.0538 36.8622C67.1198 36.8622 67.1858 36.9259 67.3838 36.9897C66.0637 37.6275 64.8756 37.6275 64.0176 37.3724L63.1595 38.0101L63.0275 37.6912L63.5555 37.2448C62.8955 37.0535 62.4994 36.7984 62.4334 36.7984C61.4434 36.2244 60.8493 35.3953 60.8493 34.5662C60.8493 34.5025 60.8493 34.5025 60.8493 34.4387V34.3749L60.7833 34.3111C60.5853 34.1836 60.3873 33.9923 60.3873 33.6734C60.5193 33.7372 60.7173 33.8647 60.7833 33.9923L60.9153 34.1198L60.9813 33.9923C61.0473 33.8647 61.1133 33.7372 61.2453 33.6096V33.5458V33.482V33.4183C61.2453 32.7805 61.7734 32.5892 62.3014 32.4616C62.4994 32.3979 62.6975 32.3341 62.8295 32.2065C62.8295 32.5892 62.6975 33.2269 62.1034 33.3545L61.9054 33.4183C61.9054 33.4183 62.4334 33.9285 62.5654 33.9923C62.4994 34.056 62.3674 34.1836 61.9714 34.1198H61.9054L61.9714 34.4387C61.7734 34.63 61.6414 34.8213 61.6414 35.0764C61.5754 35.5229 61.9054 36.0331 62.0374 36.1606C62.3674 36.5433 63.0275 36.9897 63.8195 37.2448L64.8096 36.4157C64.6776 36.2882 64.6776 36.1606 64.6116 36.0968C64.5456 35.778 64.7436 35.3315 65.5357 34.8213C65.6677 35.0764 65.7337 35.3315 65.7337 35.4591C65.7997 35.4591 65.9317 35.3953 65.9977 35.3953C65.8657 35.2678 65.8657 35.204 65.8657 35.0764C65.7997 34.8213 65.9977 34.3111 66.7898 33.8009C66.9218 34.056 66.9878 34.2474 66.9878 34.5025C67.0538 34.5025 67.1858 34.4387 67.2518 34.4387C67.1198 34.3111 67.1198 34.2474 67.1198 34.1198C67.0538 33.8647 67.2518 33.3545 68.0439 32.8443C68.1759 33.0994 68.2419 33.2907 68.2419 33.482C68.3079 33.482 68.4399 33.4183 68.5059 33.4183C68.3739 33.2907 68.3739 33.1632 68.3739 33.0994C68.3079 32.8443 68.5059 32.3341 69.298 31.8239C69.43 32.079 69.496 32.2703 69.496 32.4616C69.628 32.3979 69.826 32.3341 70.0241 32.3341L70.2881 32.2703L70.1561 32.5254C70.0901 32.7167 70.0241 32.8443 69.892 32.9718C70.0901 33.0356 70.2881 33.1632 70.4861 33.2907C69.892 33.9923 69.364 34.056 69.1 33.9923Z" fill="white"/>
<path d="M69.232 33.7372C69.43 33.801 69.694 33.7372 70.0901 33.4183C69.9581 33.3545 69.826 33.2908 69.76 33.2908C69.562 33.4821 69.364 33.6734 69.232 33.7372Z" fill="white"/>
<path d="M69.826 32.7805C69.298 32.9718 69.034 33.1632 68.968 33.2907C68.968 33.3545 68.902 33.3545 68.902 33.4183L69.1 33.3545L69.034 33.5458C69.1 33.5458 69.1 33.5458 69.166 33.4821C69.298 33.4183 69.562 33.2269 69.826 32.7805Z" fill="white"/>
<path d="M68.5719 33.7371C68.0439 33.9284 67.7799 34.1197 67.7139 34.2473C67.7139 34.311 67.6479 34.311 67.6479 34.3748L67.8459 34.311L67.7799 34.5024C67.8459 34.5024 67.8459 34.5024 67.9119 34.4386C68.0439 34.4386 68.2419 34.1835 68.5719 33.7371Z" fill="white"/>
<path d="M67.9779 34.6937C68.1759 34.7575 68.4399 34.6937 68.836 34.3749C68.704 34.3111 68.638 34.2473 68.5059 34.2473C68.3079 34.5024 68.1099 34.63 67.9779 34.6937Z" fill="white"/>
<path d="M67.9779 33.3545C67.5818 33.6734 67.4498 33.9922 67.4498 34.1198C67.5818 33.9922 67.7139 33.8647 68.0439 33.6734C68.0439 33.6096 67.9779 33.482 67.9779 33.3545Z" fill="white"/>
<path d="M129.627 45.2808H0.849945V45.9185H129.627V45.2808Z" fill="white"/>
<path d="M49.0999 28.8904H0.849945V29.5281H49.0999V28.8904Z" fill="white"/>
<path d="M129.627 28.8904H81.311V29.5281H129.627V28.8904Z" fill="white"/>
<path d="M53.9187 3.57148C53.9187 3.06127 53.3907 2.80617 52.3346 2.80617C52.0046 2.80617 51.6086 2.86995 51.1465 2.93372C51.9386 3.44393 52.5986 4.08168 53.0607 4.71944C53.6547 4.27301 53.9187 3.89036 53.9187 3.57148ZM52.9947 4.84699C52.4666 4.14546 51.8066 3.5077 50.9485 2.9975C49.6944 3.31638 48.5063 3.89036 47.3842 4.65566C46.1961 5.42097 45.272 6.31383 44.546 7.33423C45.9321 7.33423 47.4502 7.07913 49.1003 6.6327C50.6845 6.1225 52.0046 5.54852 52.9947 4.84699ZM50.6845 2.80617C48.7043 1.72199 46.5921 1.14801 44.348 1.14801C42.9618 1.14801 41.7737 1.46689 40.7177 2.10464C39.6616 2.7424 39.1335 3.5077 39.1335 4.33678C39.1335 5.8674 40.4536 6.82403 43.0939 7.27046C44.744 5.03832 47.3182 3.5077 50.6845 2.80617ZM54.1168 3.57148C54.1168 3.95413 53.8527 4.40056 53.2587 4.84699C53.7867 5.6123 54.0508 6.31383 54.0508 6.95158C54.0508 7.07913 53.9848 7.20668 53.9187 7.20668C53.8527 7.20668 53.7867 7.07913 53.7867 6.88781C53.7867 6.25005 53.5887 5.6123 53.1267 4.97454C52.2026 5.67607 50.8825 6.25005 49.2324 6.76025C47.5822 7.27046 46.1301 7.52556 44.876 7.52556C44.678 7.52556 44.546 7.52556 44.414 7.52556C43.3579 8.92862 42.8298 10.3317 42.8298 11.6072C42.8298 12.5001 43.0939 13.2016 43.6879 13.7118C44.282 14.222 45.008 14.4771 45.9981 14.4771C47.8462 14.4771 49.4964 13.5842 51.0145 11.8623C51.8726 10.8419 52.3346 9.82148 52.3346 8.86485C52.3346 8.35464 52.2026 7.97199 51.8726 7.71689C51.5425 7.39801 51.1465 7.27046 50.6185 7.27046C49.8264 7.27046 48.9023 7.71689 47.9783 8.54597C47.0542 9.37505 46.5921 10.1404 46.5921 10.9057C46.5921 10.9694 46.5921 10.9694 46.6581 10.9694C46.6581 10.9694 46.7242 10.9694 46.7242 10.9057C46.9222 10.7781 47.0542 10.6506 47.1862 10.6506C47.5162 10.6506 47.7142 10.8419 47.7142 11.1608C47.7142 11.6072 47.4502 11.8623 46.9882 11.8623C46.5261 11.8623 46.3281 11.6072 46.3281 11.097C46.3281 10.2041 46.7902 9.31127 47.7802 8.41842C48.7043 7.52556 49.6944 7.07913 50.6845 7.07913C51.9386 7.07913 52.5986 7.71689 52.5986 9.05617C52.5986 10.4592 51.9386 11.671 50.5525 12.8189C49.1664 13.9669 47.6482 14.5409 45.9981 14.5409C44.81 14.5409 43.8859 14.1582 43.0939 13.3929C42.3018 12.6276 41.9058 11.7347 41.9058 10.5868C41.9058 9.5026 42.3018 8.41842 43.0939 7.27046C40.2556 6.76025 38.8695 5.67607 38.8695 4.01791C38.8695 3.06127 39.3976 2.23219 40.4536 1.53066C41.5097 0.892907 42.8298 0.510254 44.414 0.510254C46.5921 0.510254 48.8363 1.21178 51.0805 2.61485C51.4765 2.55107 51.8726 2.4873 52.2686 2.4873C53.4567 2.61485 54.1168 2.93372 54.1168 3.57148Z" fill="white"/>
<path d="M59.3972 11.097C59.3972 11.1608 59.3972 11.2246 59.3312 11.2883L58.9352 11.8623C57.6811 13.5205 56.757 14.3496 56.1629 14.3496C55.8329 14.3496 55.5689 14.222 55.3709 14.0307C55.1728 13.8394 55.0408 13.5205 55.0408 13.2016C55.0408 12.7552 55.3049 12.1812 55.7669 11.4797C56.559 10.3955 56.955 9.69395 56.955 9.50262C56.955 9.24752 56.823 9.11997 56.559 9.11997C56.1629 9.11997 55.6349 9.50262 54.9748 10.2679C54.3148 10.9695 53.3907 12.3087 52.2686 14.3496C52.0706 14.2858 51.8726 14.2858 51.7406 14.2858C51.6086 14.2858 51.4105 14.2858 51.1465 14.3496L52.5986 11.7985C52.7967 11.4159 53.1267 10.9057 53.5227 10.2042C53.7207 9.88527 54.3808 8.80109 55.5029 6.9516L57.021 4.46436C57.219 4.46436 57.351 4.52813 57.483 4.52813C57.7471 4.52813 58.0111 4.52813 58.2091 4.46436C57.549 5.54854 56.493 7.07915 55.1728 9.18374C55.1068 9.24752 54.6448 10.0766 53.6547 11.6072C54.9088 9.8215 55.8329 8.92864 56.559 8.92864C56.823 8.92864 57.087 9.05619 57.285 9.31129C57.483 9.5664 57.615 9.8215 57.615 10.1404C57.615 10.5868 57.351 11.2246 56.757 12.0536C56.0969 12.9465 55.7669 13.5205 55.7669 13.7756C55.7669 14.0307 55.8989 14.1582 56.1629 14.1582C56.691 14.1582 57.549 13.3292 58.6711 11.7348L59.0012 11.3521L59.1992 11.1608C59.2652 11.097 59.3312 11.097 59.3972 11.097Z" fill="white"/>
<path d="M63.6216 9.82151C63.6216 9.31131 63.3575 9.05621 62.8955 9.05621C62.3014 9.05621 61.5754 9.63019 60.7173 10.7144C59.8592 11.8623 59.4632 12.7552 59.4632 13.5205C59.4632 13.9669 59.6612 14.1582 60.1233 14.1582C60.8493 14.1582 61.5754 13.5843 62.4335 12.4363C62.2354 12.245 62.1694 12.0537 62.1694 11.7986C62.1694 11.4797 62.3014 11.1608 62.5655 10.8419C62.8295 10.523 63.0935 10.3317 63.2915 10.3317C63.4235 10.3317 63.4895 10.3955 63.4895 10.523C63.5555 10.3955 63.6216 10.1404 63.6216 9.82151ZM65.2057 11.1608C65.2057 11.2883 65.0077 11.4797 64.6116 11.8623C64.0176 12.4363 63.4895 12.6914 63.0275 12.6914C62.8295 12.6914 62.6315 12.6276 62.4995 12.5639C61.6414 13.7756 60.8493 14.3496 60.0573 14.3496C59.6612 14.3496 59.3312 14.222 59.0672 13.9031C58.8032 13.5843 58.6711 13.2016 58.6711 12.7552C58.6711 11.7986 59.3312 10.8419 60.6513 9.94906C61.5754 9.31131 62.3674 8.99243 62.9615 8.99243C63.5555 8.99243 63.8196 9.31131 63.8196 9.88529C63.8196 10.5868 63.4235 11.4797 62.6315 12.5001C62.7635 12.5639 62.8955 12.6276 63.0935 12.6276C63.3575 12.6276 63.7536 12.5001 64.1496 12.245C64.5456 11.9899 64.8757 11.671 65.1397 11.2883C65.0737 11.1608 65.1397 11.097 65.2057 11.1608C65.2057 11.097 65.2057 11.097 65.2057 11.1608Z" fill="white"/>
<path d="M69.166 9.69385C69.166 9.31119 68.968 9.05609 68.572 9.05609C68.1099 9.05609 67.3179 9.8214 66.1958 11.2882C65.3377 12.4362 64.8757 13.2015 64.8757 13.6479C64.8757 13.9668 65.0077 14.1581 65.3377 14.1581C65.9318 14.1581 66.7238 13.5842 67.7139 12.4362C68.704 11.352 69.166 10.4592 69.166 9.69385ZM69.8921 10.4592C69.8921 11.4796 69.232 12.4362 67.9119 13.2653C66.8558 13.9668 65.9978 14.2857 65.4037 14.2857C65.0077 14.2857 64.7437 14.0944 64.7437 13.7117C64.7437 13.5842 64.7437 13.4566 64.8097 13.2653L61.0474 19.3239C60.8493 19.2602 60.6513 19.2602 60.5193 19.2602C60.3213 19.2602 60.1233 19.3239 59.8593 19.3877L67.9119 6.56885C68.1099 6.63262 68.2419 6.63262 68.44 6.63262C68.638 6.63262 68.836 6.63262 69.1 6.56885L66.1958 11.1607C66.9218 10.2678 67.3839 9.69385 67.7139 9.37497C68.0439 9.11987 68.374 8.92854 68.638 8.92854C68.968 8.92854 69.298 9.05609 69.496 9.37497C69.6941 9.69385 69.8921 10.0765 69.8921 10.4592Z" fill="white"/>
<path d="M74.8425 9.37514C74.8425 9.18381 74.7105 9.05626 74.5124 9.05626C74.1824 9.05626 73.7204 9.31136 73.1263 9.75779C72.5323 10.2042 72.0042 10.842 71.4762 11.5435C72.4003 11.2884 73.1923 10.9695 73.8524 10.5231C74.5124 10.1404 74.8425 9.75779 74.8425 9.37514ZM75.7005 11.1609C75.7005 11.1609 75.6345 11.2884 75.5025 11.416L75.1065 11.9262C73.7204 13.5205 72.5983 14.3496 71.6082 14.3496C71.1462 14.3496 70.7501 14.1583 70.4861 13.8394C70.1561 13.5205 70.0241 13.1379 70.0241 12.6277C70.0241 11.4797 70.8161 10.4593 72.4663 9.63024C73.3243 9.18381 74.0504 8.92871 74.5784 8.92871C74.8425 8.92871 75.0405 8.99249 75.1725 9.12004C75.3705 9.24759 75.4365 9.43892 75.4365 9.63024C75.4365 10.0767 75.1065 10.4593 74.5124 10.7782C73.9184 11.0971 72.8623 11.416 71.4102 11.6711C70.9482 12.3088 70.7501 12.8828 70.7501 13.3292C70.7501 13.9032 71.0802 14.1583 71.6742 14.1583C72.7303 14.1583 73.9844 13.2017 75.5025 11.2246C75.5025 11.1609 75.5685 11.0971 75.7005 11.1609C75.7005 11.0971 75.7005 11.0971 75.7005 11.1609Z" fill="white"/>
<path d="M81.311 11.1607C81.311 11.2244 81.113 11.4158 80.7169 11.8622C80.1889 12.3724 79.7268 12.6913 79.3308 12.6913C78.8028 12.6913 78.6048 12.4362 78.6048 11.8622C78.6048 11.6709 78.6708 11.4795 78.7368 11.1607C78.3407 11.4795 78.0107 11.8622 77.7467 12.1811C77.4827 12.5 77.0206 13.2015 76.4266 14.2857C76.0966 14.2857 75.8985 14.2219 75.8325 14.2219C75.8325 14.2219 75.6345 14.2219 75.2385 14.2857L76.8226 11.7346C77.6147 10.4591 78.0107 9.69383 78.0107 9.37495C78.0107 9.18362 77.9447 9.11985 77.8127 9.11985C77.4167 9.11985 76.7566 9.82138 75.8325 11.1607C75.7665 11.2244 75.7005 11.2882 75.7005 11.2882C75.7005 11.2882 75.6345 11.2882 75.6345 11.2244C75.6345 11.2244 75.6345 11.1607 75.7005 11.1607L75.8985 10.9056C76.8886 9.63005 77.6147 8.92852 77.9447 8.92852C78.4728 8.92852 78.7368 9.2474 78.7368 9.88515C78.7368 10.3954 78.4728 11.0331 77.9447 11.7984C78.2747 11.4158 78.6048 11.0969 78.9348 10.8418C79.1988 10.2678 79.4628 9.82138 79.8589 9.43873C80.2549 9.05607 80.5849 8.86475 80.8489 8.86475C81.047 8.86475 81.179 8.92852 81.179 9.11985C81.179 9.43873 80.7169 9.88515 79.7929 10.3954C79.6608 10.4591 79.4628 10.5867 79.1328 10.778L79.0008 10.8418C78.9348 11.1607 78.8688 11.352 78.8688 11.5433C78.8688 12.0535 79.0668 12.3724 79.4628 12.3724C79.9909 12.3724 80.5189 11.9897 81.113 11.1607C81.113 11.1607 81.179 11.0969 81.311 11.1607C81.245 11.0969 81.311 11.0969 81.311 11.1607Z" fill="white"/>
<path d="M84.4792 7.20663C84.4792 7.39795 84.4132 7.65306 84.2152 7.84438C84.0172 8.03571 83.8192 8.16326 83.5552 8.16326C83.2911 8.16326 83.0931 8.03571 83.0931 7.71683C83.0931 7.52551 83.2251 7.33418 83.4232 7.14285C83.6212 6.95153 83.8192 6.82397 84.0832 6.82397C84.3472 6.82397 84.4792 6.95153 84.4792 7.20663ZM84.6113 11.1607C84.6113 11.1607 84.5452 11.2245 84.5452 11.2883L84.1492 11.8622C82.8951 13.5204 81.971 14.3495 81.311 14.3495C80.981 14.3495 80.7169 14.2219 80.5189 14.0306C80.3209 13.8393 80.1889 13.5842 80.1889 13.2653C80.1889 12.8826 80.3869 12.3724 80.849 11.6071L82.3671 9.11989C82.5651 9.18367 82.7631 9.18367 82.8291 9.18367C83.0271 9.18367 83.2251 9.18367 83.5552 9.11989L81.311 12.6913C80.981 13.2015 80.849 13.5842 80.849 13.9031C80.849 14.1582 80.981 14.3495 81.311 14.3495C81.905 14.3495 82.8951 13.3291 84.4132 11.352C84.4792 11.0969 84.5452 11.0969 84.6113 11.1607C84.6113 11.0969 84.6113 11.0969 84.6113 11.1607Z" fill="white"/>
<path d="M88.8356 9.56647C88.8356 9.24759 88.7036 9.12004 88.3736 9.12004C87.7795 9.12004 86.9875 9.69402 85.9974 10.842C85.0073 11.9899 84.5453 12.8828 84.5453 13.5843C84.5453 13.967 84.7433 14.2221 85.1393 14.2221C85.6014 14.2221 86.3934 13.5205 87.5155 12.0537C88.3736 10.842 88.8356 10.0129 88.8356 9.56647ZM91.5419 11.1609C91.5419 11.2884 91.0798 11.9262 90.0897 13.0103C89.2977 13.9032 88.7036 14.3496 88.2416 14.3496C87.9116 14.3496 87.7135 14.2221 87.5155 14.0308C87.3175 13.8394 87.2515 13.5205 87.2515 13.2017C87.2515 12.8828 87.3835 12.5001 87.5815 12.1175C86.9215 13.0103 86.3934 13.5843 86.0634 13.9032C85.7334 14.2221 85.4034 14.3496 85.0733 14.3496C84.7433 14.3496 84.4133 14.2221 84.2153 13.9032C83.9512 13.5843 83.8852 13.2654 83.8852 12.819C83.8852 11.6073 84.7433 10.5231 86.5254 9.56647C87.3175 9.12004 87.9116 8.92871 88.4396 8.92871C88.8356 8.92871 89.0337 9.12004 89.0337 9.50269C89.0337 9.63024 89.0336 9.75779 88.9676 9.94912L89.4957 9.05626C89.6937 9.12004 89.8917 9.12004 90.0237 9.12004C90.2217 9.12004 90.4198 9.12004 90.6838 9.05626L88.9676 11.8624C88.3736 12.819 88.0436 13.4568 88.0436 13.7757C88.0436 14.0945 88.1756 14.2221 88.4396 14.2221C88.7036 14.2221 89.0997 13.9032 89.6937 13.3292C90.2878 12.7552 90.8818 12.0537 91.4759 11.1609C91.4098 11.0971 91.4758 11.0971 91.5419 11.1609C91.5419 11.0971 91.5419 11.0971 91.5419 11.1609Z" fill="white"/>
<path d="M34.5792 49.4898L34.7112 49.171H34.8432L34.9092 50.574H34.7772C34.6452 50.1914 34.5132 49.8725 34.3811 49.7449C34.1831 49.4898 33.9191 49.4261 33.6551 49.4261C33.3911 49.4261 33.127 49.5536 32.929 49.8087C32.731 50.0638 32.665 50.5102 32.665 51.0842C32.665 51.5944 32.797 51.9771 32.995 52.2322C33.1931 52.4873 33.4571 52.5511 33.7871 52.5511C34.0511 52.5511 34.3151 52.4873 34.5132 52.296C34.7112 52.1046 34.8432 51.8495 34.9092 51.4669H35.1072C35.0412 51.8495 34.9092 52.1684 34.6452 52.4235C34.3811 52.6148 34.1171 52.7424 33.7211 52.7424C33.4571 52.7424 33.127 52.6786 32.929 52.5511C32.665 52.4235 32.467 52.2322 32.335 51.9133C32.203 51.6582 32.137 51.3393 32.137 51.0204C32.137 50.7016 32.203 50.3827 32.335 50.0638C32.467 49.7449 32.665 49.5536 32.929 49.3623C33.1931 49.2347 33.3911 49.1072 33.7211 49.1072C33.8531 49.1072 34.0511 49.1072 34.1831 49.171C34.3151 49.2985 34.4472 49.3623 34.5792 49.4898Z" fill="white"/>
<path d="M37.8794 49.8087L37.2194 51.3393H38.4735L37.8794 49.8087ZM37.9455 49.1709H38.0775L39.3316 52.2959C39.3976 52.4234 39.4636 52.4872 39.6616 52.4872H39.7936V52.6786H38.3415V52.4872H38.4735C38.6055 52.4872 38.7375 52.4872 38.8035 52.4234C38.8695 52.4234 38.8695 52.3597 38.8695 52.2959V52.2321L38.6055 51.5306H37.2194L37.0874 51.977C37.0214 52.1046 37.0214 52.1683 37.0214 52.2321C37.0214 52.2959 37.0874 52.3597 37.1534 52.4234C37.2194 52.4872 37.3514 52.4872 37.4834 52.4872H37.6154V52.6786H36.3613V52.4872C36.4933 52.4872 36.6253 52.4872 36.6914 52.4234C36.7574 52.3597 36.8234 52.2321 36.8894 52.1046L37.9455 49.1709Z" fill="white"/>
<path d="M40.7177 49.2346H41.9058L42.9619 51.9132L43.952 49.2346H45.14V49.4259H44.876C44.744 49.4259 44.678 49.4259 44.678 49.4897C44.678 49.5535 44.612 49.5535 44.612 49.6173V52.2958C44.612 52.3596 44.612 52.4234 44.678 52.4234C44.744 52.4234 44.81 52.4872 44.876 52.4872H45.14V52.6785H43.5559V52.4872H43.8859C43.952 52.4872 44.018 52.4872 44.084 52.4234C44.15 52.4234 44.15 52.3596 44.15 52.2958V49.4259L42.9619 52.6785H42.8299L41.5758 49.4259V51.9132C41.5758 52.0407 41.5758 52.1683 41.6418 52.2321C41.7078 52.2958 41.7078 52.3596 41.7738 52.4234C41.8398 52.4872 41.9718 52.4872 42.1038 52.4872V52.6785H40.7837V52.4872C40.9817 52.4872 41.1797 52.4234 41.2457 52.3596C41.3117 52.2958 41.3777 52.1683 41.3777 51.977V49.6173C41.3777 49.5535 41.3777 49.4897 41.3117 49.4897C41.2457 49.4897 41.1797 49.4259 41.1137 49.4259H40.7837V49.2346H40.7177Z" fill="white"/>
<path d="M47.3842 50.9566H47.8462C48.1763 50.9566 48.3743 50.8928 48.5063 50.7652C48.6383 50.6377 48.7043 50.4464 48.7043 50.1913C48.7043 49.9999 48.7043 49.8724 48.6383 49.7448C48.5723 49.6173 48.5063 49.5535 48.3743 49.4897C48.2423 49.4259 48.0443 49.4259 47.7802 49.4259C47.5822 49.4259 47.5162 49.4259 47.4502 49.4897C47.3842 49.5535 47.3842 49.5535 47.3842 49.681V50.9566ZM46.3281 49.2346H48.0443C48.4403 49.2346 48.7043 49.2984 48.9683 49.4897C49.1663 49.681 49.2984 49.8724 49.2984 50.1913C49.2984 50.4464 49.2324 50.7015 49.0343 50.829C48.7703 51.0203 48.4403 51.1479 48.0443 51.1479H47.3842V52.2958C47.3842 52.3596 47.3842 52.4234 47.4502 52.4234C47.5162 52.4872 47.5822 52.4872 47.6482 52.4872H48.0443V52.6785H46.3281V52.4872H46.6581C46.7242 52.4872 46.7902 52.4872 46.7902 52.4234C46.8562 52.4234 46.8562 52.3596 46.8562 52.2958V49.5535C46.8562 49.4897 46.8562 49.4259 46.7902 49.4259C46.7242 49.4259 46.6581 49.3622 46.5261 49.3622H46.2621V49.2346H46.3281Z" fill="white"/>
<path d="M52.2026 49.3622C51.8726 49.3622 51.6746 49.4898 51.4765 49.7449C51.2785 50 51.2125 50.3826 51.2125 50.9566C51.2125 51.5944 51.2785 51.977 51.4765 52.2321C51.6746 52.4872 51.9386 52.6148 52.2026 52.6148C52.4006 52.6148 52.5986 52.551 52.7306 52.4872C52.8627 52.4235 52.9947 52.2321 53.1267 51.977C53.1927 51.7219 53.2587 51.4668 53.2587 51.0842C53.2587 50.7015 53.1927 50.3826 53.1267 50.1275C53.0607 49.8724 52.9287 49.7449 52.7306 49.6173C52.5986 49.426 52.4006 49.3622 52.2026 49.3622ZM52.2026 49.1709C52.4666 49.1709 52.7966 49.2347 53.0607 49.426C53.3247 49.5536 53.5227 49.8087 53.6547 50.0638C53.7867 50.3189 53.8527 50.6377 53.8527 50.9566C53.8527 51.2755 53.7867 51.5944 53.6547 51.8495C53.5227 52.1046 53.3247 52.3597 53.0607 52.4872C52.7966 52.6148 52.5326 52.7423 52.2686 52.7423C52.0046 52.7423 51.7406 52.6786 51.4765 52.4872C51.2125 52.3597 51.0145 52.1046 50.8825 51.8495C50.7505 51.5944 50.6845 51.2755 50.6845 50.8928C50.6845 50.574 50.7505 50.2551 50.8825 50C51.0145 49.7449 51.2125 49.4898 51.4765 49.3622C51.6746 49.2347 51.9386 49.1709 52.2026 49.1709Z" fill="white"/>
<path d="M57.285 49.4898L57.483 49.1709H57.6811V50.3826H57.5491C57.483 50 57.285 49.7449 57.087 49.5536C56.889 49.3622 56.691 49.2984 56.427 49.2984C56.2289 49.2984 56.0309 49.3622 55.8989 49.4898C55.7669 49.6173 55.7009 49.7449 55.7009 49.9362C55.7009 50.0638 55.7009 50.1275 55.7669 50.2551C55.8329 50.3189 55.8989 50.3826 55.9649 50.4464C56.0969 50.5102 56.2289 50.574 56.559 50.6377C56.955 50.7015 57.219 50.8291 57.417 50.8928C57.5491 50.9566 57.6811 51.0842 57.7471 51.2117C57.8131 51.3393 57.8791 51.4668 57.8791 51.6581C57.8791 51.977 57.7471 52.2321 57.5491 52.4235C57.351 52.6148 57.087 52.7423 56.691 52.7423C56.295 52.7423 56.0309 52.6148 55.7669 52.4235L55.5029 52.6786H55.3049V51.3393H55.5029C55.5689 51.7219 55.7009 51.977 55.9649 52.2321C56.2289 52.4235 56.427 52.551 56.757 52.551C57.021 52.551 57.153 52.4872 57.351 52.3597C57.483 52.2321 57.5491 52.0408 57.5491 51.8495C57.5491 51.7219 57.5491 51.6581 57.483 51.5306C57.417 51.403 57.351 51.403 57.219 51.3393C57.087 51.2755 56.889 51.2117 56.493 51.1479C56.0969 51.0842 55.8329 50.9566 55.7009 50.8291C55.5029 50.7015 55.3709 50.4464 55.3709 50.1913C55.3709 49.8724 55.4369 49.6173 55.6349 49.426C55.8329 49.2347 56.0969 49.1709 56.361 49.1709C56.493 49.1709 56.625 49.1709 56.757 49.2347C57.021 49.2984 57.153 49.3622 57.285 49.4898Z" fill="white"/>
<path d="M62.6975 49.4259C62.6315 49.4259 62.5655 49.4259 62.5655 49.4897C62.4995 49.4897 62.4995 49.5535 62.4995 49.6173V52.2958C62.4995 52.3596 62.4995 52.4234 62.5655 52.4234C62.6315 52.4234 62.6975 52.4872 62.7635 52.4872H63.0935C63.3575 52.4872 63.6216 52.4234 63.8196 52.2958C63.9516 52.2321 64.0836 52.1045 64.1496 51.9132C64.2156 51.7219 64.2816 51.403 64.2816 51.0203C64.2816 50.4464 64.1496 50.0637 63.9516 49.7448C63.7536 49.5535 63.4896 49.4259 63.1595 49.4259H62.6975ZM61.4434 49.2346H63.2915C63.5556 49.2346 63.8196 49.2984 63.9516 49.3622C64.2156 49.4897 64.4136 49.681 64.5456 49.9361C64.6777 50.1913 64.8097 50.5101 64.8097 50.8928C64.8097 51.2117 64.7437 51.4668 64.6777 51.7219C64.6116 51.9132 64.4796 52.1045 64.3476 52.2321C64.2156 52.3596 64.0176 52.4872 63.7536 52.5509C63.5556 52.6147 63.3575 52.6147 63.0935 52.6147H61.4434V52.4234H61.7734C61.8394 52.4234 61.9054 52.4234 61.9714 52.3596C62.0374 52.3596 62.0374 52.2958 62.0374 52.2321V49.4897C62.0374 49.4259 62.0374 49.4259 61.9714 49.3622C61.9054 49.3622 61.9054 49.2984 61.8394 49.2984H61.4434V49.2346Z" fill="white"/>
<path d="M67.8459 49.3622C67.5159 49.3622 67.3178 49.4898 67.1198 49.7449C66.9218 50 66.8558 50.3826 66.8558 50.9566C66.8558 51.5944 66.9878 51.977 67.1198 52.2321C67.3178 52.4872 67.5819 52.6148 67.8459 52.6148C68.0439 52.6148 68.2419 52.551 68.3739 52.4872C68.5059 52.4235 68.6379 52.2321 68.77 51.977C68.836 51.7219 68.902 51.4668 68.902 51.0842C68.902 50.7015 68.836 50.3826 68.77 50.1275C68.7039 49.8724 68.5719 49.7449 68.3739 49.6173C68.2419 49.426 68.0439 49.3622 67.8459 49.3622ZM67.8459 49.1709C68.1099 49.1709 68.4399 49.2347 68.7039 49.426C68.968 49.5536 69.166 49.8087 69.298 50.0638C69.43 50.3189 69.496 50.6377 69.496 50.9566C69.496 51.2755 69.43 51.5944 69.298 51.8495C69.166 52.1046 68.968 52.3597 68.7039 52.4872C68.4399 52.6148 68.1759 52.7423 67.9119 52.7423C67.6479 52.7423 67.3838 52.6786 67.1198 52.4872C66.8558 52.3597 66.6578 52.1046 66.5258 51.8495C66.3938 51.5944 66.3278 51.2755 66.3278 50.8928C66.3278 50.574 66.3938 50.2551 66.5258 50C66.6578 49.7449 66.8558 49.4898 67.1198 49.3622C67.3178 49.2347 67.5819 49.1709 67.8459 49.1709Z" fill="white"/>
<path d="M73.9184 49.2346H75.5025V49.4259H75.3045C75.2385 49.4259 75.1725 49.4259 75.1065 49.4897C75.0405 49.4897 75.0405 49.5535 75.0405 49.6173V51.8494C75.0405 52.0407 74.9745 52.1683 74.9085 52.2958C74.8425 52.4234 74.7105 52.5509 74.5124 52.6147C74.3144 52.6785 74.1824 52.7423 73.9844 52.7423C73.7204 52.7423 73.4564 52.6785 73.2583 52.4872C73.0603 52.2958 72.9943 52.1045 72.9943 51.9132C72.9943 51.7219 73.0603 51.5943 73.1263 51.5305C73.1923 51.403 73.3244 51.403 73.4564 51.403C73.5884 51.403 73.6544 51.4668 73.7204 51.5305C73.7864 51.5943 73.8524 51.6581 73.8524 51.7856C73.8524 51.8494 73.8524 51.977 73.7864 52.0407C73.7204 52.1045 73.6544 52.1045 73.5884 52.1045C73.5884 52.1045 73.5224 52.1045 73.4564 52.1045C73.3904 52.1045 73.3904 52.1045 73.3904 52.1045C73.3904 52.1045 73.3243 52.1045 73.3243 52.1683C73.3243 52.1683 73.3243 52.2321 73.3243 52.2958C73.3243 52.4234 73.3904 52.4872 73.5224 52.6147C73.6544 52.6785 73.7864 52.7423 73.9844 52.7423C74.1824 52.7423 74.3144 52.6785 74.4464 52.5509C74.5784 52.4234 74.6445 52.2321 74.6445 51.977V49.8086C74.6445 49.7448 74.6445 49.681 74.5785 49.681C74.5124 49.681 74.4464 49.6173 74.3804 49.6173H74.0504V49.2346H73.9184Z" fill="white"/>
<path d="M78.4728 49.3622C78.1427 49.3622 77.9447 49.4898 77.7467 49.7449C77.5487 50 77.4827 50.3826 77.4827 50.9566C77.4827 51.5944 77.6147 51.977 77.7467 52.2321C77.9447 52.4872 78.2087 52.6148 78.4728 52.6148C78.6708 52.6148 78.8688 52.551 79.0008 52.4872C79.1328 52.4235 79.2648 52.2321 79.3968 51.977C79.4628 51.7219 79.5289 51.4668 79.5289 51.0842C79.5289 50.7015 79.4628 50.3826 79.3968 50.1275C79.3308 49.8724 79.1988 49.7449 79.0008 49.6173C78.8028 49.426 78.6708 49.3622 78.4728 49.3622ZM78.4068 49.1709C78.6708 49.1709 79.0008 49.2347 79.2648 49.426C79.5289 49.5536 79.7269 49.8087 79.8589 50.0638C79.9909 50.3189 80.0569 50.6377 80.0569 50.9566C80.0569 51.2755 79.9909 51.5944 79.8589 51.8495C79.7269 52.1046 79.5289 52.3597 79.2648 52.4872C79.0008 52.6148 78.7368 52.7423 78.4728 52.7423C78.2087 52.7423 77.9447 52.6786 77.6807 52.4872C77.4167 52.3597 77.2187 52.1046 77.0867 51.8495C76.9546 51.5944 76.8886 51.2755 76.8886 50.8928C76.8886 50.574 76.9546 50.2551 77.0867 50C77.2187 49.7449 77.4167 49.4898 77.6807 49.3622C77.8787 49.2347 78.1427 49.1709 78.4068 49.1709Z" fill="white"/>
<path d="M82.4331 50.829H82.8291C83.0931 50.829 83.3572 50.7652 83.4892 50.7015C83.6212 50.5739 83.7532 50.4464 83.7532 50.1275C83.7532 49.9361 83.7532 49.8086 83.6872 49.681C83.6212 49.5535 83.5552 49.4897 83.4232 49.4897C83.3572 49.4259 83.1592 49.4259 82.8291 49.4259C82.6311 49.4259 82.4991 49.4259 82.4991 49.4897C82.4331 49.4897 82.4331 49.5535 82.4331 49.6173V50.829ZM81.377 49.2346H83.2252C83.5552 49.2346 83.8192 49.2984 84.0172 49.4897C84.2152 49.6173 84.2812 49.8724 84.2812 50.1275C84.2812 50.255 84.2152 50.3826 84.1492 50.5101C84.0832 50.6377 83.9512 50.7015 83.8192 50.7652C83.6872 50.829 83.4232 50.8928 83.1592 50.8928C83.3572 50.9566 83.5552 51.0203 83.6212 51.0841C83.6872 51.1479 83.7532 51.2117 83.8192 51.3392C83.8852 51.403 83.9512 51.5943 84.0172 51.9132C84.0832 52.1045 84.1492 52.2321 84.1492 52.2958C84.2152 52.3596 84.2152 52.3596 84.2812 52.3596C84.3472 52.3596 84.3472 52.2958 84.4133 52.2321C84.4793 52.1683 84.4793 52.0407 84.4793 51.8494H84.6113C84.6113 52.3596 84.4133 52.6147 84.0172 52.6147C83.8852 52.6147 83.8192 52.6147 83.6872 52.5509C83.6212 52.4872 83.5552 52.4234 83.4892 52.2958C83.4892 52.2321 83.4232 51.977 83.3572 51.6581C83.3572 51.4668 83.2912 51.3392 83.2252 51.2117C83.1592 51.1479 83.0931 51.0841 82.9611 51.0203C82.8291 50.9566 82.6971 50.9566 82.5651 50.9566H82.3011V52.2958C82.3011 52.3596 82.3011 52.4234 82.3671 52.4234C82.4331 52.4234 82.4331 52.4872 82.5651 52.4872H82.8951V52.6785H81.245V52.4872H81.575C81.641 52.4872 81.707 52.4872 81.773 52.4234C81.839 52.4234 81.839 52.3596 81.839 52.2958V49.5535C81.839 49.4897 81.839 49.4259 81.773 49.4259C81.707 49.4259 81.707 49.3622 81.575 49.3622H81.245V49.2346H81.377Z" fill="white"/>
<path d="M87.1195 49.4259C87.0535 49.4259 86.9875 49.4259 86.9875 49.4897C86.9215 49.4897 86.9215 49.5535 86.9215 49.6173V52.2958C86.9215 52.3596 86.9215 52.4234 86.9875 52.4234C87.0535 52.4234 87.1195 52.4872 87.1855 52.4872H87.5155C87.7796 52.4872 88.0436 52.4234 88.2416 52.2958C88.3736 52.2321 88.5056 52.1045 88.5716 51.9132C88.6376 51.7219 88.7036 51.403 88.7036 51.0203C88.7036 50.4464 88.5716 50.0637 88.3736 49.7448C88.1756 49.5535 87.9116 49.4259 87.5815 49.4259H87.1195ZM85.8654 49.2346H87.7136C87.9776 49.2346 88.2416 49.2984 88.3736 49.3622C88.6376 49.4897 88.8356 49.681 88.9677 49.9361C89.0997 50.1913 89.2317 50.5101 89.2317 50.8928C89.2317 51.2117 89.1657 51.4668 89.0997 51.7219C89.0337 51.9132 88.9017 52.1045 88.7696 52.2321C88.6376 52.3596 88.4396 52.4872 88.1756 52.5509C87.9776 52.6147 87.7796 52.6147 87.5155 52.6147H85.8654V52.4234H86.1954C86.2614 52.4234 86.3274 52.4234 86.3934 52.3596C86.3934 52.3596 86.4594 52.2958 86.4594 52.2321V49.4897C86.4594 49.4259 86.4594 49.4259 86.3934 49.3622C86.3274 49.3622 86.3274 49.2984 86.2614 49.2984H85.8654V49.2346Z" fill="white"/>
<path d="M92.0039 49.8087L91.3438 51.3393H92.5979L92.0039 49.8087ZM92.862 48.2781H92.928C92.928 48.4694 92.862 48.597 92.7959 48.6607C92.7299 48.7245 92.5979 48.7883 92.4659 48.7883C92.3999 48.7883 92.2019 48.7245 92.0039 48.6607C91.8059 48.597 91.7399 48.597 91.6739 48.597C91.5418 48.597 91.4758 48.6607 91.4098 48.7883H91.3438C91.4098 48.4694 91.5418 48.2781 91.8059 48.2781C91.9379 48.2781 92.0699 48.3419 92.2679 48.4056C92.4659 48.4694 92.5979 48.5332 92.6639 48.5332C92.7959 48.5332 92.862 48.4694 92.862 48.2781ZM92.0699 49.1709H92.2019L93.456 52.2959C93.522 52.4235 93.588 52.4873 93.786 52.4873H93.918V52.6786H92.5319V52.4873H92.6639C92.7959 52.4873 92.928 52.4873 92.994 52.4235C93.06 52.4235 93.06 52.3597 93.06 52.2959V52.2322L92.7959 51.5306H91.4098L91.2778 51.9771C91.2118 52.1046 91.2118 52.1684 91.2118 52.2322C91.2118 52.2959 91.2778 52.3597 91.3438 52.4235C91.4098 52.4873 91.5418 52.4873 91.6739 52.4873H91.8059V52.6786H90.5518V52.4873C90.6838 52.4873 90.8158 52.4873 90.8818 52.4235C90.9478 52.3597 91.0138 52.2322 91.0798 52.1046L92.0699 49.1709Z" fill="white"/>
<path d="M96.7563 49.3622C96.4263 49.3622 96.2282 49.4898 96.0302 49.7449C95.8322 50 95.7662 50.3826 95.7662 50.9566C95.7662 51.5944 95.8322 51.977 96.0302 52.2321C96.2282 52.4872 96.4923 52.6148 96.7563 52.6148C96.9543 52.6148 97.1523 52.551 97.2843 52.4872C97.4163 52.4235 97.5484 52.2321 97.6804 51.977C97.7464 51.7219 97.8124 51.4668 97.8124 51.0842C97.8124 50.7015 97.7464 50.3826 97.6804 50.1275C97.6144 49.8724 97.4824 49.7449 97.2843 49.6173C97.0863 49.426 96.9543 49.3622 96.7563 49.3622ZM96.6903 49.1709C97.0203 49.1709 97.2843 49.2347 97.5484 49.426C97.8124 49.5536 98.0104 49.8087 98.1424 50.0638C98.2744 50.3189 98.3404 50.6377 98.3404 50.9566C98.3404 51.2755 98.2744 51.5944 98.1424 51.8495C98.0104 52.1046 97.8124 52.3597 97.5484 52.4872C97.2843 52.6148 97.0203 52.7423 96.7563 52.7423C96.4923 52.7423 96.2282 52.6786 95.9642 52.4872C95.7002 52.3597 95.5022 52.1046 95.3702 51.8495C95.2382 51.5944 95.1721 51.2755 95.1721 50.8928C95.1721 50.574 95.2382 50.2551 95.3702 50C95.5022 49.7449 95.7002 49.4898 95.9642 49.3622C96.1622 49.2347 96.4263 49.1709 96.6903 49.1709Z" fill="white"/>
</g>
<defs>
<clipPath id="clip0">
<rect width="129.371" height="52.9337" fill="white" transform="translate(0.718384)"/>
</clipPath>
</defs>
</svg>
