<svg width="56" height="56" viewBox="0 0 56 56" fill="none" xmlns="http://www.w3.org/2000/svg">
<g clip-path="url(#clip0)">
<path d="M20.3085 13.9645C23.223 13.9645 25.7626 13.3254 27.5635 12.1525C29.3644 13.3256 31.9041 13.9645 34.8186 13.9645C40.5454 13.9645 44.4682 12.8321 46.8112 10.5026C48.3923 8.93073 49.1889 6.84079 49.1794 4.28931C49.175 3.42624 48.6582 2.64357 47.8625 2.29547C47.0683 1.94747 46.1365 2.09395 45.4874 2.67066C43.3913 4.54077 41.7033 4.38356 38.2631 1.9985C36.3245 0.653743 34.4066 0 32.4002 0C30.2019 0 28.5793 0.990473 27.5635 1.7674C26.5478 0.990473 24.9252 0 22.7269 0C20.7465 0 18.8507 0.639225 16.9314 1.95429C13.4235 4.35637 11.7198 4.52354 9.6395 2.67055C8.99003 2.09135 8.05629 1.94443 7.26431 2.29557C6.46872 2.64379 5.95192 3.42635 5.94766 4.29061C5.93814 6.84035 6.73504 8.93029 8.31595 10.502C10.6594 12.8318 14.5822 13.9645 20.3085 13.9645Z" fill="#E3942C"/>
<path d="M22.0805 17.1453C22.4196 19.843 24.7493 21.9373 27.5635 21.9373C30.3777 21.9373 32.7074 19.843 33.0465 17.1453C31.0208 16.9839 29.1702 16.5418 27.5635 15.8365C25.9568 16.5418 24.1062 16.9839 22.0805 17.1453Z" fill="#E3942C"/>
<path d="M50.6318 10.9448C50.2052 11.6111 49.7054 12.2298 49.1356 12.7964C46.3793 15.5375 42.1837 16.9795 36.3398 17.1886C35.9668 21.661 32.1737 25.1876 27.5635 25.1876C22.9534 25.1876 19.1602 21.661 18.7873 17.1886C12.9434 16.9795 8.74774 15.5375 5.99149 12.7964C5.68196 12.4887 5.39321 12.1659 5.12634 11.8278C4.82555 13.1019 4.67352 14.3923 4.67352 15.6794C4.67352 17.8539 5.08587 19.9882 5.85259 21.9167C6.87962 20.4227 8.39665 19.2786 10.1849 18.7195C11.049 18.4487 11.971 18.9243 12.2434 19.7802C12.5157 20.6361 12.0366 21.5484 11.1726 21.8192C9.49149 22.3447 8.20962 23.7293 7.8279 25.4314C7.64415 26.3696 7.55227 27.3382 7.55227 28.3209C7.55227 31.7218 8.7204 34.9038 10.6695 37.205C11.2776 35.2787 12.5988 33.6048 14.4068 32.568C15.191 32.1194 16.1951 32.3838 16.649 33.1606C17.1029 33.9385 16.8349 34.932 16.0507 35.3816C14.5249 36.256 13.5766 37.8833 13.5766 39.6265C13.8829 41.7425 14.5949 43.7641 15.6581 45.5236C16.9323 47.6342 18.6506 49.2582 20.6259 50.2225C21.8913 50.8411 23.7945 51.9397 25.6943 54.3243C26.2762 55.0535 27.1162 55.4717 27.9999 55.4717C28.8848 55.4717 29.7248 55.0535 30.3056 54.3243C31.7537 52.5063 33.2915 51.2593 35.2931 50.2799C37.2695 49.3091 38.9932 47.6786 40.2784 45.5626C41.3502 43.7977 42.0776 41.763 42.4024 39.633V39.6265C42.4024 37.8833 41.4541 36.256 39.9284 35.3816C39.1441 34.932 38.8762 33.9385 39.3301 33.1606C39.784 32.3838 40.787 32.1194 41.5712 32.568C43.3737 33.6015 44.6916 35.2668 45.3031 37.1855C47.2095 34.8919 48.3524 31.7196 48.3524 28.3209C48.3524 27.3393 48.2595 26.3718 48.0768 25.4336C47.6754 23.764 46.4635 22.3371 44.8054 21.8192C43.9413 21.5484 43.4623 20.6361 43.7357 19.7802C44.0081 18.9243 44.929 18.4487 45.7931 18.7195C47.5715 19.2753 49.0798 20.4086 50.1068 21.8886C50.8998 19.9503 51.3263 17.8235 51.3263 15.6794C51.3263 14.1052 51.0934 12.5147 50.6318 10.9448Z" fill="#E3942C"/>
</g>
<defs>
<clipPath id="clip0">
<rect width="56" height="55.4717" fill="white"/>
</clipPath>
</defs>
</svg>
