<svg width="20" height="20" viewBox="0 0 20 20" fill="none" xmlns="http://www.w3.org/2000/svg">
<g clip-path="url(#clip0)">
<path d="M12.1567 6.83267C11.5203 7.32764 10.8132 7.61049 10.0354 7.53978C9.25753 7.46906 8.47972 7.25693 7.91403 6.83267C7.56048 7.0448 7.20693 7.11551 6.78266 7.11551C6.14626 7.0448 5.65129 6.83267 5.22703 6.54982L5.22703 7.82262L4.16637 7.89333C3.24713 7.82262 2.46931 8.60043 2.46931 9.59038L2.46931 13.1259C2.46931 14.1159 3.24713 14.8937 4.23708 14.8937L5.29774 14.9644L5.29774 15.8129C5.29774 16.8029 6.07555 17.5807 7.0655 17.5807L13.1466 17.5807C14.1366 17.5807 14.9144 16.8029 14.8437 15.8836L14.773 6.76196C14.3487 7.0448 13.8537 7.25693 13.288 7.25693C12.9345 7.0448 12.5102 6.90338 12.1567 6.83267ZM3.7421 12.8431L3.7421 10.0146C3.7421 9.59038 4.09566 9.23683 4.44921 9.30754H5.15632L5.29774 13.5502L4.44921 13.5502C4.09566 13.4795 3.81281 13.1966 3.7421 12.8431ZM7.48977 15.7422C7.0655 15.7422 6.78266 15.4594 6.85337 15.1058L6.78266 8.95399C6.78266 8.52972 7.0655 8.24688 7.41906 8.31759C7.84332 8.31759 8.12616 8.60044 8.05545 8.95399L8.05545 15.0351C8.05545 15.4594 7.77261 15.7422 7.48977 15.7422ZM10.0354 15.7422C9.61109 15.7422 9.32824 15.4594 9.39896 15.1058V9.0247C9.39896 8.60043 9.6818 8.31759 10.0354 8.3883C10.4596 8.3883 10.7425 8.67115 10.6717 9.0247L10.6717 15.1058C10.7425 15.4594 10.4596 15.7422 10.0354 15.7422ZM13.288 8.95399L13.3588 15.1058C13.3588 15.5301 13.0759 15.8129 12.7224 15.7422C12.2981 15.7422 12.0153 15.4594 12.086 15.1058L12.086 9.0247C12.086 8.60043 12.3688 8.31759 12.7224 8.3883C12.9345 8.31759 13.288 8.67115 13.288 8.95399ZM13.288 2.73145C13.0052 2.73145 12.6516 2.80216 12.5102 2.94358C12.086 1.95363 11.096 1.24652 10.0354 1.31723C8.90398 1.31724 7.98474 1.95363 7.56048 2.94358C7.27764 2.80216 6.92408 2.73145 6.64124 2.73145C5.65129 2.73145 4.87347 3.50927 4.94418 4.42851C4.94418 5.41845 5.722 6.19627 6.71195 6.19627C7.13621 6.19627 7.63119 5.98414 7.91403 5.7013C8.40901 6.33769 9.18682 6.69125 10.0354 6.69125C10.8839 6.69125 11.591 6.26698 12.1567 5.7013C12.5102 6.05485 12.9345 6.19627 13.3588 6.19627C14.3487 6.19627 15.1265 5.41846 15.0558 4.49922C15.0558 3.50927 14.278 2.73145 13.288 2.73145Z" fill="white"/>
</g>
<defs>
<clipPath id="clip0">
<rect width="20" height="20" fill="white"/>
</clipPath>
</defs>
</svg>
