<svg width="56" height="28" viewBox="0 0 56 28" fill="none" xmlns="http://www.w3.org/2000/svg">
<path d="M55.7321 15.0043C54.163 17.1825 51.7094 20.2758 49.0812 22.3955C44.6287 25.986 41.1797 27.4822 36.1631 27.4822C32.9637 27.4822 29.843 24.8827 28.0001 20.3881C26.1575 24.8822 23.0368 27.4822 19.8371 27.4822C14.8203 27.4822 11.3713 25.986 6.91911 22.3955C4.29064 20.2758 1.83703 17.183 0.267904 15.0043C-0.280119 14.2435 0.0736745 12.726 0.776418 12.8204C3.68349 13.2106 8.75766 13.4605 12.1238 11.2241C17.0779 7.93251 18.4574 3.64373 20.0253 2.04795C20.2432 1.82597 20.4718 1.63152 20.7043 1.46023C22.6226 0.0484088 24.8955 0.12007 26.7037 1.86093C27.1493 2.29002 27.5943 2.83491 27.9999 3.51832C28.4057 2.83491 28.8505 2.29002 29.296 1.86093C31.1045 0.12007 33.3771 0.0484088 35.2955 1.46023C35.5279 1.63108 35.7566 1.82597 35.9745 2.04795C37.5424 3.64373 38.9218 7.93294 43.876 11.2241C47.2421 13.4605 52.316 13.2106 55.2231 12.8204C55.9263 12.7264 56.2799 14.244 55.7321 15.0043Z" fill="#E3942C"/>
</svg>
