<svg width="34" height="16" viewBox="0 0 34 16" fill="none" xmlns="http://www.w3.org/2000/svg">
<path d="M33.0136 8.60857C32.0842 9.89889 30.6307 11.7312 29.0739 12.9868C26.4364 15.1137 24.3933 16 21.4217 16C19.5265 16 17.6779 14.4602 16.5863 11.7977C15.4948 14.4599 13.6462 16 11.7508 16C8.77904 16 6.736 15.1137 4.09866 12.9868C2.54165 11.7312 1.08823 9.89915 0.158732 8.60857C-0.165896 8.15793 0.0436782 7.25899 0.459957 7.3149C2.182 7.54604 5.18775 7.6941 7.18172 6.36935C10.1164 4.41951 10.9335 1.879 11.8623 0.933721C11.9913 0.80223 12.1268 0.687046 12.2645 0.585581C13.4008 -0.25073 14.7472 -0.20828 15.8183 0.822937C16.0823 1.07712 16.3459 1.39989 16.5861 1.80472C16.8265 1.39989 17.09 1.07712 17.3539 0.822937C18.4252 -0.20828 19.7714 -0.25073 20.9077 0.585581C21.0454 0.686787 21.1809 0.80223 21.31 0.933721C22.2387 1.879 23.0559 4.41977 25.9905 6.36935C27.9845 7.6941 30.9901 7.54604 32.7121 7.3149C33.1287 7.25924 33.3381 8.15819 33.0136 8.60857Z" fill="white"/>
</svg>
