<svg width="130" height="41" viewBox="0 0 130 41" fill="none" xmlns="http://www.w3.org/2000/svg">
<g clip-path="url(#clip0)">
<path d="M49.6798 35.7144C44.8659 32.7182 38.3329 32.1924 27.7969 35.0168C16.5648 37.5671 12.8198 39.2019 7.90165 35.92C6.01219 34.3078 5.33477 31.7121 5.84061 27.973C7.01384 21.8777 10.1844 16.0119 15.8162 9.50535C18.9596 6.12066 21.8756 3.21597 25.7258 2.04957C28.6768 1.31785 28.4009 3.55863 28.0439 3.8791C27.6671 3.8791 27.0341 3.93644 26.5449 4.24488C26.1479 4.54238 25.0581 5.503 24.9996 6.79519C24.9152 8.77332 27.0338 8.3616 27.9476 7.2755C28.9326 6.0516 30.3884 3.70785 29.2433 1.52347C28.7633 0.745972 27.934 0.208628 26.9044 0.0256594C23.3787 -0.169028 20.0953 1.45488 17.0648 3.25019C10.4375 7.69847 5.13603 13.8622 2.13625 20.6091C0.406883 24.6799 -1.15721 30.5111 1.18715 35.2572C3.00093 38.5503 6.7661 40.2996 11.2583 39.9338C14.409 39.6139 18.2188 38.63 20.7811 38.036C23.3437 37.4408 36.4599 33.0846 40.7696 40.6666C40.7696 40.6666 42.2027 37.9786 45.7841 37.9213C48.7286 37.6588 52.9765 38.7449 56.0697 40.94C55.0391 39.4425 52.1173 37.2355 49.6798 35.7144Z" fill="white"/>
<path d="M29.1343 10.2713C26.6811 8.7161 21.7504 11.6892 17.8012 16.7891C14.1898 21.3636 12.6304 26.6803 14.3276 29.1389C16.852 32.0319 21.5386 27.8239 23.5315 25.5716L23.7887 25.3083C25.144 23.9017 26.1909 22.2092 27.2045 20.5852C27.2045 20.5852 28.136 19.0986 28.1805 19.0299C28.7562 18.9274 29.4496 18.7672 30.231 18.5499C30.2198 18.5839 27.2414 23.4211 27.5453 25.822C27.6399 26.5545 27.5677 29.2303 30.2714 30.042C33.875 30.6256 36.7526 27.9266 39.2911 25.5252C39.2911 25.5252 39.7237 25.1253 39.9684 24.897C39.9065 25.1364 39.8258 25.4559 39.8258 25.4559C38.7707 29.0009 40.1929 29.7449 41.0824 30.0192C43.7709 30.7745 46.9827 27.0006 46.9932 27.0006C46.9098 28.1894 46.6664 29.1727 47.9633 29.9619C49.1873 30.3853 50.4262 29.7397 51.368 29.1336C54.76 26.8239 57.4926 23.2086 59.6997 20.0838H58.2918C58.2752 20.0838 54.8179 24.9256 52.5728 25.978C52.5693 25.978 52.1606 26.1806 51.9253 26.0203C51.6337 25.7802 51.7487 25.2806 51.9287 24.9269C51.94 24.9039 60.5972 10.3963 60.5972 10.3963H56.5097C56.5097 10.3963 56.0632 11.0942 56.0269 11.14C55.9994 11.1172 55.9339 10.9972 55.8886 10.9397C53.3562 7.55501 47.6213 12.7613 43.3037 18.7988C41.6415 21.1203 39.5251 23.7342 37.3307 25.6209C37.3307 25.6209 34.0796 28.5003 32.6906 26.4316C32.1829 25.5624 32.3391 24.2916 32.6255 23.457C34.2428 19.0086 37.0296 14.9716 40.2009 12.5358C41.096 11.8616 42.0692 11.6666 42.5519 11.9525C43.0122 12.2159 43.0864 12.8672 42.7953 13.3133C42.0568 13.2905 41.4649 13.5074 40.984 13.9877C40.0363 14.9483 39.7071 15.8747 40.0083 16.7439C41.472 18.7564 44.3911 14.7769 44.2499 12.3527C44.1995 11.4834 43.7197 10.6603 43.0033 10.2597C41.9358 9.64251 40.3073 9.80235 39.2535 10.2944C37.8425 10.8088 35.6094 12.6039 34.3058 13.9992C32.6648 15.7491 29.8502 17.6928 28.9701 17.4752C29.2578 16.7317 31.6351 12.032 29.1343 10.2713ZM48.8408 17.2238C49.6359 16.1605 51.9502 13.313 52.5144 12.8328C54.412 11.2199 55.1704 11.9295 55.2361 12.4324C53.4651 15.4969 51.375 19.0077 49.4099 22.1639C49.4139 22.1527 48.7949 23.0672 48.7949 23.0672C47.927 24.3475 47.0531 25.4455 45.6276 26.2114C45.4243 26.2691 45.0892 26.292 44.8662 26.1313C44.5978 25.9597 44.4918 25.6738 44.5221 25.3764C44.6076 24.3933 45.6436 21.3864 48.8408 17.2238ZM26.6044 19.0647C26.6044 19.0647 26.5687 19.168 26.5512 19.2017C26.5467 19.2017 24.769 22.003 24.769 22.003C23.6962 23.3869 22.3567 25.1255 20.6823 25.9598C20.186 26.1199 19.4999 26.2231 19.1502 25.8003C18.4091 24.9425 18.7911 23.7531 19.1014 22.7928L19.2114 22.4497C20.1011 20.1172 21.5127 18.0584 22.8869 16.1488C22.9041 16.1375 22.9426 16.1261 22.9565 16.1261C22.9599 16.1375 22.9654 16.1375 22.9676 16.1605C23.8299 17.7611 25.4467 18.5041 26.6558 18.8477C26.6631 18.8477 26.671 18.8591 26.671 18.882C26.6712 18.9161 26.6515 18.9622 26.6044 19.0647ZM28.2885 15.7603C28.2806 15.7831 27.4967 17.5213 27.4967 17.5213C27.3834 17.6127 27.2042 17.567 26.9988 17.5213L26.6469 17.4638C25.542 17.1324 24.7085 16.4233 24.4515 15.5772C24.0972 13.9305 25.5531 12.6383 26.1945 12.1697C26.8099 11.7577 27.7668 11.5405 28.3224 11.9638C28.6651 12.3527 28.795 12.8556 28.795 13.4049C28.7951 14.1478 28.5577 14.9825 28.2885 15.7603ZM79.9624 21.0658C79.5681 20.2427 78.6326 19.7166 77.6355 19.7736C74.3975 20.0597 71.2303 22.6325 69.5673 26.3258C68.6947 28.2242 68.2184 29.7906 67.9061 32.2834C68.9131 31.1631 70.9669 29.3222 73.2975 28.3158C73.2975 28.3158 73.6146 25.9259 75.2318 23.7989C75.8437 22.9181 77.0682 21.5003 78.4432 21.8775C79.6448 22.2664 79.2224 25.4798 77.6256 28.5895C76.4441 30.8769 74.6362 33.1645 72.8069 34.7422C71.1896 36.0686 68.7967 37.6695 66.7032 36.4347C65.3846 35.6803 64.712 34.1017 64.854 32.0664C65.484 26.2919 68.2047 21.3747 72.0979 15.7716C76.1123 10.5686 80.5374 5.22845 86.4986 2.38063C87.7146 1.7861 88.8406 1.64892 89.8139 2.01485C89.8139 2.01485 84.218 4.98798 81.5505 10.4884C80.872 11.8838 79.9282 13.77 80.8786 15.4397C81.3752 16.3086 82.2569 16.3774 82.967 16.3316C86.2367 15.5995 88.3491 12.6494 90.0751 9.95095C91.0758 7.90407 91.9652 5.8686 91.9652 3.60438C91.9652 3.33001 91.9505 2.96423 91.9266 2.68954C93.4885 1.88938 96.6919 3.30704 96.6919 3.30704C99.1951 4.10782 104.525 8.05313 106.323 8.80751C107.2 7.82423 108.641 6.33782 109.453 5.59438L108.278 4.89673C106.397 3.78751 104.409 2.73532 102.453 1.69485C98.0089 -0.649053 94.3917 0.174072 92.5509 0.814541C91.8274 1.06595 91.1663 1.28329 91.1663 1.28329C89.8002 -0.15749 87.5595 -0.0206152 85.9086 0.368447C79.9714 2.01501 74.4591 6.0286 68.5493 12.9928C64.2044 18.4475 61.5093 23.1589 60.0728 27.8128C58.9655 30.9459 58.629 35.5542 61.3315 38.2873C63.6293 40.6081 66.6762 40.1053 68.8276 39.2709C73.4893 37.0525 77.6791 32.2724 79.7668 26.7719C80.2707 25.1369 80.8298 22.827 79.9624 21.0658ZM90.6819 3.83329C90.0648 10.6716 84.5634 14.6856 83.2021 15.0053C82.3772 15.1652 80.9697 14.8109 82.2263 11.9411C84.0767 8.07563 87.2361 4.79407 90.6256 3.11298C90.7082 3.39892 90.7059 3.58142 90.6819 3.83329ZM123.315 4.70204C120.356 6.3261 117.288 7.37782 113.575 7.01204C112.546 8.13298 111.544 9.28782 110.62 10.4769C115.832 11.7577 121.358 8.91032 124.439 6.20048C127.699 3.46735 129.371 0.0256348 129.371 0.0256348C129.371 0.0256348 126.927 2.72407 123.315 4.70204ZM67.3906 10.3966H63.5088L61.3192 13.8341H65.2002L67.3906 10.3966Z" fill="white"/>
<path d="M113.56 36.0328C113.142 36.3072 112.556 36.0963 112.775 35.4675C113.321 33.8666 115.492 30.6041 115.492 30.6041L121.54 20.2406H117.397C117.201 20.5531 116.78 21.2706 116.78 21.2706C116.588 20.9622 116.015 20.2764 115.779 20.1281C114.767 19.5102 113.282 19.8024 112.258 20.3625C107.805 22.8786 104.555 27.8497 101.993 31.7264C101.993 31.7264 99.2951 36.0358 97.7978 36.3563C96.6288 36.4478 96.7494 34.9263 96.8 34.5717C97.252 32.0099 98.3017 29.5744 99.3591 27.3674C101.51 25.9266 103.965 24.0399 106.196 21.9702C111.037 17.4986 115.118 12.4328 115.715 11.3008C115.715 11.3008 115.069 11.4267 114.307 11.4494C110.582 16.4694 102.96 23.7653 100.65 24.8514C101.673 22.4724 108.287 11.1177 113.915 5.6861L114.801 4.86251C116.17 3.57032 117.589 2.24392 118.695 2.02657C118.812 2.01517 118.962 2.02657 119.092 2.29001C119.141 3.2961 118.754 4.03954 118.309 4.88563L117.686 6.12079C117.686 6.12079 118.568 5.96063 119.148 5.7772C119.821 4.55423 120.566 3.18157 120.291 1.54673C120.2 1.02063 119.806 0.620478 119.29 0.528916C117.612 0.220166 115.782 1.42048 114.31 2.39282L114.25 2.42688C106.682 8.15595 100.291 16.4122 94.7036 27.6874C94.2987 27.9842 92.7341 28.3391 92.4682 28.1674C93.02 27.0699 93.7147 25.5944 94.0622 23.9934C94.1224 23.5358 94.1783 23.0674 94.1783 22.61C94.1783 21.6258 93.9338 20.6999 93.0215 20.0599C91.9516 19.5452 90.6292 19.7855 89.7376 20.1739C85.7438 21.7749 82.7587 25.7317 80.6046 28.9903C79.446 31.0606 78.2909 33.278 77.9711 35.817C77.7458 37.8064 78.2044 39.0873 79.3752 39.7278C80.579 40.322 82.0942 39.7044 82.6895 39.4074C86.7357 37.3489 89.5629 33.2211 91.7913 29.4474C91.8799 29.4361 93.0967 29.402 94.0171 29.173C94.0292 29.173 94.0344 29.173 94.0548 29.1849C94.0021 29.3558 93.5265 30.7284 93.5265 30.7284C92.1141 34.7303 91.4609 37.4522 92.7951 39.0644C94.7015 41.34 97.8578 38.9847 100.425 35.8738C99.8742 39.6014 101.874 40.185 103.398 39.8994C105.149 39.4422 107.1 37.635 108.005 36.7091C107.714 37.7952 107.793 39.7395 109.386 39.9336C110.478 40.1286 111.295 39.5548 112.24 39.063C115.631 37.2789 119.69 31.3341 120.744 29.6153H119.362C117.864 31.8033 115.958 34.6714 113.56 36.0328ZM83.1224 35.6347C82.9073 35.3258 82.836 34.9883 82.8289 34.6233C82.7877 32.3809 85.2845 28.3656 87.0467 26.1781H87.0504C87.7888 27.7406 89.4612 28.745 90.4708 29.1683C89.217 31.8672 84.9166 37.6472 83.1224 35.6347ZM91.1786 27.9617C91.0592 28.0424 88.9504 27.3558 88.5427 25.4691C88.1969 23.8447 89.3546 22.5755 90.4746 21.9358C90.9554 21.5695 91.6796 21.4442 92.2108 21.6264C92.7039 21.9472 92.8374 22.5194 92.8374 23.1358C92.8374 23.5139 92.7855 23.9024 92.7398 24.2567L92.7297 24.337C92.3765 25.6048 91.8551 26.8231 91.1786 27.9617ZM108.093 34.9144C108.091 34.9144 107.693 35.2574 107.693 35.2574C107.124 35.7489 106.539 36.2748 105.832 36.0117C105.637 35.9433 105.499 35.6919 105.467 35.4969C105.434 34.0903 106.09 32.787 106.726 31.5178L106.889 31.1861C108.717 28.2359 110.843 24.7597 113.964 22.3472C114.491 21.9805 115.061 21.6724 115.664 21.9127C115.803 22.0383 115.964 22.2556 115.964 22.4727C115.964 22.5416 115.9 22.7244 115.864 22.7814C114.992 24.1428 114.162 25.5719 113.355 26.9441C111.777 29.6542 110.139 32.4553 108.093 34.9144Z" fill="white"/>
</g>
<defs>
<clipPath id="clip0">
<rect width="129.371" height="40.95" fill="white"/>
</clipPath>
</defs>
</svg>
