<svg width="130" height="36" viewBox="0 0 130 36" fill="none" xmlns="http://www.w3.org/2000/svg">
<g clip-path="url(#clip0)">
<path fill-rule="evenodd" clip-rule="evenodd" d="M15.5494 10.133V5.25371H16.9424C16.7106 4.87353 16.5077 4.47722 16.3355 4.06797C16.2184 3.77089 16.1172 3.46813 16.032 3.16089C15.9563 2.90212 15.8985 2.63869 15.859 2.37238C15.7861 1.89808 15.7042 1.48308 15.6556 1.05028C15.6101 0.712349 15.5737 0.374415 15.5616 0.0275879H1.81054C1.74984 0.522631 1.69218 1.01175 1.63148 1.48308C1.5724 1.93166 1.48933 2.37692 1.38262 2.81702C1.29626 3.22755 1.18066 3.63168 1.03665 4.02647C0.878253 4.45304 0.674832 4.86235 0.429674 5.24778H1.81054V30.4239H0.347733C0.538028 30.7329 0.705376 31.0548 0.848487 31.3873C0.940389 31.5999 1.01943 31.8177 1.08521 32.0394C1.18363 32.3476 1.26268 32.6615 1.32193 32.9791C1.4069 33.4208 1.50098 33.8684 1.58596 34.3397C1.67094 34.8111 1.71646 35.2587 1.74074 35.7211H15.4918C15.5178 35.2466 15.5685 34.7737 15.6435 34.3042C15.7163 33.8862 15.7983 33.4682 15.8833 33.0621C15.9409 32.7924 16.0016 32.5611 16.0623 32.3418C16.1805 31.9508 16.3318 31.57 16.5145 31.2035C16.6329 30.9456 16.7634 30.7025 16.906 30.4357H15.5373V25.595C15.2474 25.867 14.9143 26.0912 14.5509 26.259C14.0925 26.4601 13.5967 26.5671 13.0942 26.5732C12.5697 26.5773 12.051 26.4659 11.5768 26.2471C11.2176 26.0834 10.8885 25.8631 10.6026 25.595V30.4298H6.66331V19.2987H13.8135C13.5358 18.9284 13.3301 18.5114 13.2065 18.0685C13.1202 17.7344 13.0824 17.3902 13.0942 17.0458C13.0992 16.6603 13.1711 16.2785 13.3066 15.9164C13.4339 15.5468 13.6192 15.1988 13.856 14.8848H6.68758V5.22999H10.6147V10.1449C10.8989 9.86771 11.2334 9.64456 11.601 9.48677C12.0461 9.29048 12.5271 9.18362 13.0153 9.17255C13.5257 9.15992 14.033 9.25496 14.5024 9.4512C14.8938 9.60927 15.2495 9.84093 15.5494 10.133Z" fill="white"/>
<path fill-rule="evenodd" clip-rule="evenodd" d="M19.1427 3.49487H23.1396C23.1741 4.29215 23.2756 5.08531 23.4431 5.86634C23.5686 6.55074 23.8261 7.20562 24.2019 7.79612H23.1396V27.8647H24.2079C23.9936 28.1748 23.8278 28.5145 23.7163 28.8725C23.607 29.169 23.5251 29.5099 23.4431 29.8241C23.35 30.1994 23.2781 30.5794 23.2277 30.9624C23.1912 31.3003 23.17 31.6471 23.1457 32.0325H19.1427C19.1063 31.6709 19.082 31.3003 19.0335 30.9387C19.0011 30.5892 18.9381 30.2431 18.8453 29.9041C18.736 29.5336 18.6541 29.163 18.5236 28.8014C18.4088 28.4628 18.2353 28.1459 18.0107 27.8647H19.1427V7.78426H18.0471C18.4374 7.17922 18.7129 6.51046 18.8605 5.81002C19.032 5.0492 19.1266 4.27376 19.1427 3.49487Z" fill="white"/>
<path fill-rule="evenodd" clip-rule="evenodd" d="M52.3776 11.6529V7.79922H53.4945C53.3115 7.48386 53.1523 7.15594 53.018 6.81803C52.9239 6.58385 52.8511 6.35263 52.7691 6.08584C52.7082 5.88419 52.6646 5.67796 52.6386 5.46926C52.5658 5.08686 52.5081 4.74892 52.4717 4.41099C52.4353 4.1442 52.411 3.7618 52.3989 3.48315H41.3489C41.3125 3.87741 41.2427 4.37245 41.1941 4.74892C41.149 5.10918 41.0821 5.46652 40.9938 5.81905C40.9255 6.14503 40.8373 6.46674 40.7298 6.78246C40.5859 7.12168 40.4197 7.45142 40.2321 7.76958H41.3489V27.8648H40.1714C40.3298 28.1158 40.4658 28.3796 40.578 28.6533C40.6357 28.8045 40.7085 28.9675 40.7662 29.1661C40.8239 29.3647 40.8967 29.6167 40.9574 29.9191C41.0181 30.2689 41.1 30.6276 41.1607 31.0129C41.2214 31.3983 41.2548 31.6384 41.2912 32.0119H52.3169C52.3412 31.6295 52.411 31.339 52.4596 30.9655C52.5172 30.6394 52.5901 30.3044 52.6508 29.9784C52.6963 29.7709 52.7448 29.5723 52.7934 29.4092C52.8889 29.0949 53.0076 28.7878 53.1485 28.4903C53.2456 28.2828 53.3518 28.0842 53.4702 27.8767H52.3533V24.023C52.1207 24.2279 51.8603 24.4004 51.5795 24.5358C51.214 24.701 50.8167 24.7879 50.4141 24.7908C49.9854 24.7999 49.5608 24.7084 49.1758 24.524C48.8897 24.3979 48.6255 24.2289 48.3928 24.023V27.8767H45.2396V19.0192H50.9846C50.7714 18.7179 50.6104 18.3844 50.5081 18.0321C50.4378 17.7699 50.4021 17.4999 50.4019 17.2288C50.4083 16.9244 50.4689 16.6235 50.581 16.3395C50.6715 16.0381 50.8164 15.755 51.0089 15.5035H45.2639V7.76069H48.4141V11.6647C48.6484 11.453 48.9171 11.2807 49.2092 11.1548C49.5721 10.9944 49.9643 10.9067 50.3625 10.897C50.7668 10.8872 51.1685 10.963 51.54 11.1193C51.8446 11.2558 52.1269 11.4356 52.3776 11.6529Z" fill="white"/>
<path fill-rule="evenodd" clip-rule="evenodd" d="M37.8284 27.8855V16.7663C37.1961 16.8121 36.5604 16.7762 35.9377 16.6596C35.2965 16.5312 34.6765 16.3167 34.0955 16.0223C33.5123 15.7253 32.9028 15.4803 32.2746 15.2901C31.7732 15.1419 31.2504 15.0748 30.7268 15.0915V7.76069H33.8801V11.5372C34.1121 11.2994 34.3816 11.0992 34.6782 10.9444C35.0493 10.7549 35.4586 10.6476 35.877 10.6302C36.255 10.6405 36.6272 10.723 36.9726 10.8732C37.301 11.041 37.5952 11.266 37.8406 11.5372V7.7844H38.9604C38.7781 7.47383 38.6189 7.15087 38.484 6.81803C38.3868 6.58385 38.317 6.35263 38.2321 6.08584C38.1726 5.88384 38.129 5.67772 38.1016 5.46926C38.0318 5.08686 37.9711 4.74892 37.9346 4.41099C37.9013 4.1442 37.877 3.7618 37.8648 3.48315H26.8149C26.7784 3.87741 26.7056 4.37245 26.6601 4.74892C26.6112 5.11043 26.5403 5.46876 26.4476 5.82201C26.3804 6.14794 26.2932 6.46965 26.1866 6.78542C26.0429 7.12518 25.8756 7.45499 25.6859 7.77254H26.8058V18.3108C27.4161 18.3191 28.0249 18.3737 28.6267 18.4738C29.1877 18.5661 29.7299 18.7463 30.2321 19.0074C30.8097 19.3285 31.4199 19.5898 32.0531 19.787C32.6455 19.9883 33.2715 20.0788 33.8983 20.0538V27.8944H30.7632V24.1208C30.5305 24.358 30.2612 24.5581 29.9651 24.7137C29.6174 24.907 29.2267 25.0145 28.8269 25.0269C28.4271 25.0393 28.0302 24.9562 27.6707 24.7849C27.3409 24.6192 27.0464 24.3939 26.8027 24.1208V27.8648H25.6829C25.865 28.1744 26.0243 28.4964 26.1593 28.8282C26.2565 29.0594 26.3263 29.2936 26.4112 29.5604C26.471 29.7623 26.5146 29.9685 26.5417 30.177C26.6115 30.5594 26.6722 30.8973 26.7056 31.2323C26.742 31.4991 26.7663 31.757 26.7784 32.0356H37.8284C37.8648 31.6384 37.9346 31.2679 37.9832 30.8973C38.0289 30.5369 38.0968 30.1796 38.1865 29.8272C38.2531 29.5011 38.3402 29.1793 38.4475 28.8638C38.5913 28.524 38.7586 28.1942 38.9483 27.8767L37.8284 27.8855Z" fill="white"/>
<path fill-rule="evenodd" clip-rule="evenodd" d="M62.7023 16.8967V7.78437H61.5824C61.7571 7.53215 61.9046 7.26294 62.0225 6.98103C62.1642 6.64834 62.2719 6.3028 62.3442 5.94944C62.4597 5.49293 62.5508 5.03086 62.6173 4.5651C62.6697 4.20763 62.6981 3.84718 62.7023 3.48608H66.6021C66.6385 3.94852 66.6628 4.29831 66.7083 4.67182C66.7538 5.04532 66.8297 5.35658 66.9238 5.81012C66.9878 6.13412 67.0792 6.45239 67.1969 6.76167C67.341 7.12666 67.5284 7.47388 67.7553 7.79622H66.6021V27.8648H67.7675C67.6127 28.1078 67.4822 28.3153 67.3517 28.5495C67.17 28.8978 67.0383 29.2689 66.9602 29.6523C66.8752 30.002 66.8054 30.3607 66.7326 30.7224C66.6556 31.148 66.62 31.5797 66.6264 32.0119H62.6416C62.6439 31.6349 62.6166 31.2583 62.5596 30.8854C62.5111 30.5593 62.4382 30.2214 62.3563 29.839C62.2929 29.4943 62.1974 29.1559 62.071 28.8282C61.9389 28.4909 61.7711 28.168 61.5703 27.8648H62.6901V27.0703L59.6097 17.288V27.8648H60.6659C60.4348 28.1945 60.251 28.5535 60.1196 28.9319C60.009 29.2515 59.9178 29.5771 59.8465 29.9072C59.7633 30.2603 59.6995 30.6175 59.6553 30.9773C59.6169 31.3208 59.6016 31.6664 59.6097 32.0119H55.5825C55.5728 31.6025 55.5332 31.1944 55.4641 30.7906C55.3913 30.3963 55.2972 29.9783 55.1606 29.5248C55.0782 29.2284 54.9769 28.9373 54.8571 28.6533C54.7417 28.3761 54.5962 28.1117 54.4231 27.8648H55.5825V7.78437H54.4626C54.6907 7.45148 54.8753 7.09197 55.0119 6.71424C55.1303 6.39113 55.2001 6.06505 55.2972 5.69155C55.3992 5.26765 55.4742 4.83799 55.5218 4.40503C55.546 4.10859 55.5703 3.81216 55.5946 3.48608H59.6158C59.6068 3.89375 59.6342 4.30141 59.6977 4.70442C59.7554 5.08979 59.8282 5.47219 59.8889 5.85459C59.9423 6.23027 60.0443 6.59782 60.1924 6.94843C60.3108 7.20336 60.4534 7.44643 60.6325 7.78437H59.6795L62.7023 16.8967Z" fill="white"/>
<path d="M81.3182 22.8758V19.7277C81.0082 19.7405 80.6976 19.7286 80.3895 19.6921C80.1476 19.6627 79.9089 19.6121 79.6763 19.5409C79.2224 19.4162 78.7861 19.237 78.3774 19.0074C77.9948 18.7984 77.6426 18.5401 77.3304 18.2396C76.9998 17.9199 76.702 17.5694 76.4411 17.1932C76.7373 16.8226 77.0697 16.4811 77.4336 16.1735C77.8025 15.8542 78.2102 15.5804 78.6475 15.3583C79.0422 15.1501 79.4668 15.0012 79.907 14.9166C80.3847 14.8261 80.8712 14.7873 81.3576 14.801V7.7844H82.4775C82.29 7.47426 82.1257 7.15129 81.9859 6.81803C81.8918 6.58385 81.8189 6.35263 81.737 6.08584C81.6751 5.88427 81.6305 5.67803 81.6035 5.46926C81.5337 5.08686 81.473 4.74892 81.4396 4.41099C81.4032 4.1442 81.3789 3.7618 81.3667 3.48315H70.3137C70.2773 3.87741 70.2075 4.37245 70.159 4.74892C70.1129 5.10925 70.0451 5.46659 69.9556 5.81905C69.8884 6.14497 69.8012 6.46668 69.6946 6.78246C69.5508 7.12168 69.3845 7.45142 69.1969 7.76958H70.3137V27.8648H69.1362C69.2963 28.118 69.4324 28.3849 69.5429 28.6622C69.6036 28.8134 69.6734 28.9764 69.7341 29.175C69.7948 29.3736 69.8646 29.6256 69.9253 29.928C69.9829 30.2778 70.0679 30.6364 70.1256 31.0218C70.1832 31.4072 70.2227 31.6473 70.2561 32.0208H81.2848C81.3091 31.6384 81.3789 31.3479 81.4274 30.9744C81.4851 30.6483 81.5579 30.3133 81.6156 29.9873C81.6642 29.7798 81.7127 29.5811 81.7613 29.4181C81.8568 29.1038 81.9755 28.7967 82.1164 28.4992C82.2104 28.2917 82.3197 28.093 82.4381 27.8855H81.3182V22.8758ZM77.3546 27.8855H74.2045L74.2287 7.76069H77.3789V12.4503C77.0662 12.4414 76.7553 12.5001 76.4685 12.6222C76.1514 12.7647 75.8579 12.9525 75.5975 13.1795C75.2865 13.4477 75.0039 13.7456 74.7538 14.0688C74.5626 14.303 74.3532 14.5401 74.1984 14.7713V19.7218C74.3653 19.9886 74.5626 20.2287 74.7295 20.448C74.9403 20.7341 75.1748 21.0028 75.4305 21.2514C75.5989 21.4206 75.7784 21.579 75.9677 21.7257C76.1375 21.864 76.324 21.9814 76.5231 22.0755C76.6504 22.1268 76.7812 22.1694 76.9146 22.2029C77.0551 22.2324 77.1989 22.2444 77.3425 22.2385V27.8707L77.3546 27.8855Z" fill="white"/>
<path fill-rule="evenodd" clip-rule="evenodd" d="M15.5494 10.133V5.25371H16.9424C16.7106 4.87353 16.5077 4.47722 16.3355 4.06797C16.2184 3.77089 16.1172 3.46813 16.032 3.16089C15.9563 2.90212 15.8985 2.63869 15.859 2.37238C15.7861 1.89808 15.7042 1.48308 15.6556 1.05028C15.6101 0.712349 15.5737 0.374415 15.5616 0.0275879H1.81054C1.74984 0.522631 1.69218 1.01175 1.63148 1.48308C1.5724 1.93166 1.48933 2.37692 1.38262 2.81702C1.29626 3.22755 1.18066 3.63168 1.03665 4.02647C0.878253 4.45304 0.674832 4.86235 0.429674 5.24778H1.81054V30.4239H0.347733C0.538028 30.7329 0.705376 31.0548 0.848487 31.3873C0.940389 31.5999 1.01943 31.8177 1.08521 32.0394C1.18363 32.3476 1.26268 32.6615 1.32193 32.9791C1.4069 33.4208 1.50098 33.8684 1.58596 34.3397C1.67094 34.8111 1.71646 35.2587 1.74074 35.7211H15.4918C15.5178 35.2466 15.5685 34.7737 15.6435 34.3042C15.7163 33.8862 15.7983 33.4682 15.8833 33.0621C15.9409 32.7924 16.0016 32.5611 16.0623 32.3418C16.1805 31.9508 16.3318 31.57 16.5145 31.2035C16.6329 30.9456 16.7634 30.7025 16.906 30.4357H15.5373V25.595C15.2474 25.867 14.9143 26.0912 14.5509 26.259C14.0925 26.4601 13.5967 26.5671 13.0942 26.5732C12.5697 26.5773 12.051 26.4659 11.5768 26.2471C11.2176 26.0834 10.8885 25.8631 10.6026 25.595V30.4298H6.66331V19.2987H13.8135C13.5358 18.9284 13.3301 18.5114 13.2065 18.0685C13.1202 17.7344 13.0824 17.3902 13.0942 17.0458C13.0992 16.6603 13.1711 16.2785 13.3066 15.9164C13.4339 15.5468 13.6192 15.1988 13.856 14.8848H6.68758V5.22999H10.6147V10.1449C10.8989 9.86771 11.2334 9.64456 11.601 9.48677C12.0461 9.29048 12.5271 9.18362 13.0153 9.17255C13.5257 9.15992 14.033 9.25496 14.5024 9.4512C14.8938 9.60927 15.2495 9.84093 15.5494 10.133Z" fill="white"/>
<path fill-rule="evenodd" clip-rule="evenodd" d="M37.8284 27.8855V16.7663C37.1961 16.8121 36.5604 16.7762 35.9377 16.6596C35.2965 16.5312 34.6765 16.3167 34.0955 16.0223C33.5123 15.7253 32.9028 15.4803 32.2746 15.2901C31.7732 15.1419 31.2504 15.0748 30.7268 15.0915V7.76069H33.8801V11.5372C34.1121 11.2994 34.3816 11.0992 34.6782 10.9444C35.0493 10.7549 35.4586 10.6476 35.877 10.6302C36.255 10.6405 36.6272 10.723 36.9726 10.8732C37.301 11.041 37.5952 11.266 37.8406 11.5372V7.7844H38.9604C38.7781 7.47383 38.6189 7.15087 38.484 6.81803C38.3868 6.58385 38.317 6.35263 38.2321 6.08584C38.1726 5.88384 38.129 5.67772 38.1016 5.46926C38.0318 5.08686 37.9711 4.74892 37.9346 4.41099C37.9013 4.1442 37.877 3.7618 37.8648 3.48315H26.8149C26.7784 3.87741 26.7056 4.37245 26.6601 4.74892C26.6112 5.11043 26.5403 5.46876 26.4476 5.82201C26.3804 6.14794 26.2932 6.46965 26.1866 6.78542C26.0429 7.12518 25.8756 7.45499 25.6859 7.77254H26.8058V18.3108C27.4161 18.3191 28.0249 18.3737 28.6267 18.4738C29.1877 18.5661 29.7299 18.7463 30.2321 19.0074C30.8097 19.3285 31.4199 19.5898 32.0531 19.787C32.6455 19.9883 33.2715 20.0788 33.8983 20.0538V27.8944H30.7632V24.1208C30.5305 24.358 30.2612 24.5581 29.9651 24.7137C29.6174 24.907 29.2267 25.0145 28.8269 25.0269C28.4271 25.0393 28.0302 24.9562 27.6707 24.7849C27.3409 24.6192 27.0464 24.3939 26.8027 24.1208V27.8648H25.6829C25.865 28.1744 26.0243 28.4964 26.1593 28.8282C26.2565 29.0594 26.3263 29.2936 26.4112 29.5604C26.471 29.7623 26.5146 29.9685 26.5417 30.177C26.6115 30.5594 26.6722 30.8973 26.7056 31.2323C26.742 31.4991 26.7663 31.757 26.7784 32.0356H37.8284C37.8648 31.6384 37.9346 31.2679 37.9832 30.8973C38.0289 30.5369 38.0968 30.1796 38.1865 29.8272C38.2531 29.5011 38.3402 29.1793 38.4475 28.8638C38.5913 28.524 38.7586 28.1942 38.9483 27.8767L37.8284 27.8855Z" fill="white"/>
<path fill-rule="evenodd" clip-rule="evenodd" d="M88.7627 24.9805H91.9493L92.3894 27.8648H90.8447C91.0281 28.1253 91.1799 28.4058 91.2969 28.7007C91.4457 29.0877 91.5683 29.4838 91.6641 29.8864C91.858 30.5833 91.96 31.3016 91.9676 32.0237H95.9463C95.9379 31.6189 95.9663 31.2142 96.0313 30.8143C96.0645 30.5374 96.1121 30.2623 96.1739 29.9902C96.2608 29.5461 96.4003 29.1133 96.5897 28.7007C96.7202 28.4221 96.8749 28.1671 97.0419 27.8766H95.7217L92.4137 7.78733H93.7247C93.5265 7.49162 93.3559 7.17911 93.2149 6.85357C93.06 6.44698 92.9442 6.0272 92.8689 5.59965C92.8082 5.25283 92.7384 4.91489 92.6899 4.5651C92.6399 4.20741 92.6126 3.84706 92.6079 3.48608H87.5731C87.5488 3.8922 87.5245 4.24199 87.479 4.60067C87.4366 4.94033 87.3769 5.2777 87.2999 5.61151C87.2337 5.94662 87.1424 6.27654 87.0268 6.59863C86.8759 7.01707 86.672 7.41541 86.4198 7.78437H87.6671L85.0207 27.8648H83.7249C83.9068 28.1156 84.0624 28.3837 84.1892 28.6651C84.341 29.0045 84.4529 29.3595 84.523 29.7234C84.6171 30.1858 84.699 30.5712 84.7597 30.9417C84.8236 31.295 84.8561 31.6531 84.8569 32.0119H88.9114C88.8993 31.6863 88.9114 31.3604 88.9479 31.0366C88.9934 30.6068 89.0784 30.1769 89.1603 29.7441C89.2418 29.35 89.3659 28.9655 89.5306 28.5969C89.6462 28.3466 89.7748 28.1023 89.916 27.8648H88.3986L88.7627 24.9805ZM89.2271 21.5181H91.394L90.2043 14.4304L89.2271 21.5181Z" fill="white"/>
<path fill-rule="evenodd" clip-rule="evenodd" d="M99.2543 3.48608H103.251C103.286 4.28336 103.387 5.07651 103.555 5.85755C103.681 6.54208 103.94 7.19692 104.316 7.78733H103.245V27.8648H104.316C104.106 28.1714 103.945 28.5071 103.837 28.8608C103.731 29.175 103.646 29.4981 103.564 29.8123C103.471 30.1876 103.399 30.5676 103.348 30.9506C103.315 31.2886 103.291 31.6384 103.266 32.0208H99.2543C99.2179 31.6591 99.1936 31.2886 99.1481 30.9269C99.1134 30.5785 99.0495 30.2335 98.9569 29.8953C98.8507 29.5218 98.7657 29.1513 98.6352 28.7896C98.5197 28.4555 98.3473 28.1429 98.1253 27.8648H99.2543V7.77251H98.1587C98.5522 7.16809 98.8308 6.4993 98.9812 5.79826C99.1509 5.03837 99.2424 4.26378 99.2543 3.48608Z" fill="white"/>
<path fill-rule="evenodd" clip-rule="evenodd" d="M106.344 3.48608H110.341C110.375 4.28336 110.477 5.07651 110.644 5.85755C110.778 6.53818 111.043 7.18791 111.424 7.77251H110.353V27.8648H111.424C111.206 28.171 111.037 28.5079 110.923 28.8637C110.817 29.178 110.732 29.5011 110.65 29.8153C110.559 30.1909 110.487 30.5708 110.435 30.9536C110.401 31.2915 110.377 31.6413 110.353 32.0237H106.344C106.307 31.6621 106.283 31.2915 106.238 30.9299C106.203 30.5815 106.139 30.2364 106.046 29.8983C105.94 29.5248 105.855 29.1542 105.725 28.7926C105.609 28.4575 105.437 28.1438 105.215 27.8648H106.344V7.77251H105.248C105.642 7.16809 105.92 6.4993 106.071 5.79826C106.24 5.03837 106.332 4.26378 106.344 3.48608Z" fill="white"/>
<path d="M106.69 15.4976H102.823V18.9836H106.69V15.4976Z" fill="white"/>
<path fill-rule="evenodd" clip-rule="evenodd" d="M123.366 16.7752V5.26169H121.961C122.176 4.9854 122.359 4.68723 122.508 4.37239C122.679 3.95538 122.812 3.52371 122.902 3.08291C123.053 2.51051 123.173 1.93065 123.26 1.34581C123.326 0.899971 123.361 0.450395 123.366 0H128.253C128.301 0.592867 128.325 1.01084 128.386 1.46438C128.447 1.91792 128.529 2.33589 128.647 2.89319C128.737 3.29609 128.855 3.69231 129.002 4.07892C129.185 4.50149 129.421 4.89987 129.706 5.26466H128.253V30.4318H129.718C129.527 30.7283 129.36 31.0721 129.193 31.3597C128.971 31.8002 128.803 32.2649 128.693 32.744C128.586 33.1739 128.504 33.6333 128.419 34.0898C128.318 34.6185 128.27 35.1557 128.277 35.6935H123.294C123.296 35.2227 123.256 34.7526 123.175 34.2884C123.114 33.8823 123.02 33.4525 122.926 32.9752C122.84 32.545 122.72 32.1219 122.568 31.7095C122.4 31.2649 122.189 30.837 121.937 30.4318H123.354V29.418L119.476 17.2643V30.417H120.808C120.511 30.8555 120.278 31.3324 120.116 31.834C119.98 32.23 119.87 32.6339 119.785 33.0434C119.676 33.4864 119.597 33.936 119.549 34.3892C119.487 34.8163 119.463 35.2476 119.476 35.6787H114.432C114.421 35.1691 114.374 34.6609 114.289 34.158C114.195 33.66 114.074 33.1353 113.922 32.5662C113.812 32.1983 113.68 31.8371 113.527 31.4842C113.384 31.1086 113.196 30.7506 112.969 30.417H114.432V5.26169H113.03C113.312 4.8884 113.54 4.47831 113.706 4.04335C113.853 3.62462 113.976 3.19805 114.074 2.76572C114.208 2.23436 114.304 1.69455 114.362 1.15016C114.383 0.776655 114.42 0.417971 114.444 0H119.5C119.486 0.509512 119.526 1.01905 119.618 1.5207C119.691 2.00982 119.773 2.48708 119.855 2.96137C119.916 3.43271 120.041 3.89414 120.225 4.33385C120.368 4.64807 120.547 4.84372 120.772 5.26169H119.558L123.366 16.7752Z" fill="white"/>
</g>
<defs>
<clipPath id="clip0">
<rect width="129.371" height="35.7143" fill="white" transform="translate(0.347733)"/>
</clipPath>
</defs>
</svg>
