<svg width="56" height="57" viewBox="0 0 56 57" fill="none" xmlns="http://www.w3.org/2000/svg">
<g clip-path="url(#clip0)">
<path d="M53.1989 19.5142L49.7188 22.9945L47.3984 20.6743L50.8787 17.194C51.52 16.5528 51.52 15.5149 50.8787 14.8738C50.2375 14.2326 49.1998 14.2326 48.5586 14.8738L45.0782 18.3539L42.7581 16.0338L46.2384 12.5535C46.8794 11.9122 46.8794 10.8745 46.2384 10.2333C45.5971 9.59202 44.5593 9.59202 43.918 10.2333L40.4379 13.7136L38.1175 11.3934L41.5978 7.91311C42.2391 7.27185 42.2391 6.23399 41.5978 5.59294C40.9566 4.95168 39.9189 4.95168 39.2776 5.59294L35.7973 9.07303L33.4773 6.75308L36.9576 3.27277C37.5989 2.63172 37.5989 1.59386 36.9576 0.952598C36.3163 0.311333 35.2785 0.311333 34.6374 0.952598L29.997 5.59305C28.0778 7.51203 28.0778 10.6345 29.997 12.5535L43.918 26.4747C45.8372 28.3937 48.9594 28.3937 50.8786 26.4747L55.5191 21.8342C56.1601 21.193 56.1601 20.1553 55.5191 19.5141C54.8779 18.8729 53.8402 18.8729 53.1989 19.5142Z" fill="#E3942C"/>
<path d="M27.6769 14.874C26.3661 13.5632 25.6227 11.9123 25.3861 10.2039L21.3625 14.2274C18.1644 17.4256 18.1644 22.6303 21.3625 25.8284L30.6433 35.1092C33.8417 38.3076 39.0462 38.3076 42.2445 35.1092L46.2681 31.0856C44.5593 30.8493 42.9087 30.1058 41.598 28.7951L27.6769 14.874Z" fill="#E3942C"/>
<path d="M13.242 45.55C13.882 44.91 13.882 43.8699 13.242 43.2299C12.6019 42.5896 11.5619 42.5896 10.9218 43.2299C10.2817 43.8699 10.2817 44.91 10.9218 45.55C11.5619 46.1901 12.6019 46.1901 13.242 45.55Z" fill="#E3942C"/>
<path d="M16.5086 42.2835L17.8825 40.9096C18.5225 40.2695 18.5225 39.2295 17.8825 38.5894C17.2422 37.9494 16.2024 37.9494 15.5621 38.5894L14.1884 39.9633C14.6831 40.1978 15.1536 40.501 15.5621 40.9096C15.9709 41.3183 16.2739 41.7887 16.5086 42.2835Z" fill="#E3942C"/>
<path d="M0.480867 55.9909C1.12213 56.6322 2.15999 56.6322 2.80126 55.9909L6.39871 52.3934C10.8926 55.7494 17.2826 55.4306 21.3626 51.3507L32.6181 40.0952C31.0522 39.5433 29.5735 38.6797 28.3233 37.4296L19.0425 28.1488C17.7924 26.8985 16.9288 25.4199 16.3769 23.8538L5.12132 35.1091C1.0412 39.1892 0.722586 45.5794 4.07854 50.0733L0.480867 53.6707C-0.160289 54.312 -0.160289 55.3497 0.480867 55.9909ZM8.60163 40.9096L13.242 36.2693C15.1612 34.35 18.2834 34.35 20.2026 36.2693C22.1218 38.1885 22.1218 41.3107 20.2026 43.2299L15.5621 47.8702C13.6432 49.7894 10.5207 49.7894 8.60174 47.8702C6.68243 45.951 6.68243 42.8288 8.60163 40.9096Z" fill="#E3942C"/>
</g>
<defs>
<clipPath id="clip0">
<rect width="56" height="56" fill="white" transform="translate(-6.10352e-05 0.47168)"/>
</clipPath>
</defs>
</svg>
