<svg width="24" height="24" viewBox="0 0 24 24" fill="none" xmlns="http://www.w3.org/2000/svg">
<path d="M23.9833 12C23.9833 5.37075 18.6118 0 11.9917 0C5.36702 0 0 5.37075 0 12C0 17.988 4.3837 22.953 10.118 23.8522V15.4695H7.07284V12.0007H10.118V9.3555C10.118 6.34875 11.9055 4.68825 14.6456 4.68825C15.9579 4.68825 17.3317 4.92225 17.3317 4.92225V7.875H15.817C14.33 7.875 13.8654 8.80125 13.8654 9.75V12H17.1908L16.6564 15.4688H13.8654V23.8515C19.5951 22.9522 23.9833 17.9872 23.9833 11.9992V12Z" fill="#E3942C"/>
</svg>
