<svg width="93" height="72" viewBox="0 0 93 72" fill="none" xmlns="http://www.w3.org/2000/svg">
<g clip-path="url(#clip0)">
<path d="M48.6817 10.6842C46.218 9.81693 44.097 9.7007 42.2353 10.0047C43.0874 10.5769 43.1337 11.5246 43.1337 11.5246C43.1337 11.5246 41.3739 10.0583 38.6416 11.1938C38.0766 11.471 37.5302 11.7839 37.0115 12.1058C33.8531 14.1711 30.1575 19.7591 26.6102 19.5355C26.5824 19.5355 25.5358 19.4819 25.5172 19.4819C25.7303 19.5802 26.8695 20.2329 26.8973 20.2329C28.194 20.7157 30.4261 21.9227 34.9646 19.6786C40.0309 17.1662 40.9016 14.3857 45.5233 14.0817C46.6348 14.0101 47.6722 14.189 48.6354 14.5287C52.118 15.7536 54.6558 19.0796 55.5172 20.6531C55.5172 20.6442 55.5172 20.6352 55.5172 20.6352C55.5172 20.6174 55.0077 12.9015 48.6817 10.6842Z" fill="#2BA756"/>
<path d="M45.5234 14.0726C40.9108 14.3676 40.0309 17.1571 34.9646 19.6695C30.4261 21.9136 28.194 20.7066 26.8973 20.2238C26.8788 20.2238 25.7303 19.5801 25.5172 19.4728C25.5172 19.4728 28.7404 24.0147 34.4922 24.8998C35.9371 25.1234 38.5768 24.6316 39.6419 22.8971C39.8179 24.1399 39.4567 24.721 39.0677 25.1859C44.5694 24.1309 47.5981 20.492 50.4045 19.7321C53.9056 18.7933 55.5264 20.6351 55.5264 20.6351C54.4798 18.7307 50.9973 14.2603 46.3477 14.0547C46.0698 14.0547 45.8012 14.0547 45.5234 14.0726Z" fill="#4C9C2E"/>
<path d="M45.5234 14.0726C40.9108 14.3676 40.0309 17.1571 34.9646 19.6695C30.4261 21.9136 28.194 20.7066 26.8973 20.2238C26.8788 20.2238 25.7303 19.5801 25.5172 19.4728C25.5172 19.4728 28.7404 24.0147 34.4922 24.8998C35.9371 25.1234 38.5768 24.6316 39.6419 22.8971C39.8179 24.1399 39.4567 24.721 39.0677 25.1859C44.5694 24.1309 47.5981 20.492 50.4045 19.7321C53.9056 18.7933 55.5264 20.6351 55.5264 20.6351C54.4798 18.7307 50.9973 14.2603 46.3477 14.0547C46.0698 14.0547 45.8012 14.0547 45.5234 14.0726Z" fill="url(#paint0_linear)"/>
<path fill-rule="evenodd" clip-rule="evenodd" d="M13.0775 21.4989C17.2839 19.6663 21.635 20.0283 23.7482 22.182C26.5577 25.0457 25.0607 28.6572 22.22 31.9417C23.8761 30.0351 25.8645 29.3159 27.1032 28.8678C27.1434 28.8532 27.1828 28.839 27.2215 28.825C29.6574 27.9309 33.4085 27.6269 36.6132 29.4419C37.5857 29.9962 38.4564 30.7293 39.2251 31.6502L40.1977 32.8215L40.3922 31.3373C40.4385 30.9797 40.5311 30.6578 40.67 30.3807C41.0312 29.6475 41.6888 29.1289 42.5224 28.9054C43.2264 28.7177 43.9766 28.8339 44.8287 29.2541L45.3103 29.4955L45.6438 29.0842C47.0516 27.3766 49.0337 26.2053 51.0436 25.8745L51.4696 25.8298L52.0531 25.7136V25.1414V24.748C52.0531 24.748 52.1087 24.4172 52.1087 24.4082C52.3403 23.4426 53.1553 22.7274 54.2853 22.4949C54.8433 22.3771 55.6558 22.2988 56.5991 22.208C56.6578 22.2024 56.7171 22.1967 56.7768 22.1909L58.3606 22.03L58.2402 21.3594C58.1198 20.671 58.055 20.0809 58.055 19.5623C58.055 19.3656 58.0642 19.1868 58.0828 19.008C58.2587 17.2646 59.0923 15.9413 60.4168 15.2976C61.2782 14.8774 64.3995 13.8939 68.3081 19.008L68.5489 19.3209L68.9472 19.2583C71.2905 18.8828 73.1429 19.1868 74.4581 20.1792C74.6114 20.2958 74.7553 20.4196 74.8896 20.5506C69.0112 10.2696 57.493 3.28125 44.2452 3.28125C30.5923 3.28125 18.7764 10.699 13.0775 21.4989ZM77.9392 44.3592C76.3814 44.4072 74.7047 43.9578 73.3467 43.0676C72.9299 42.7904 72.5316 42.4507 72.1148 42.0037L71.4202 41.2705L71.0126 42.1914C70.1698 44.1047 69.1232 45.6068 67.8913 46.6618C66.2427 48.0834 65.0201 47.8867 64.2884 47.4754L63.9086 47.1982L63.2047 46.6707L62.862 47.3949C62.2692 48.6466 61.5838 49.648 60.9355 50.2023C59.0738 51.7938 56.4804 52.2051 54.3409 51.2395C53.8315 51.0159 53.3591 50.6851 52.8497 50.2113L52.3125 49.7106L51.8586 50.2917C51.3029 51.0159 50.5712 51.5971 49.682 52.0173C48.2927 52.6789 46.8015 52.7952 45.3752 52.3481L44.7361 52.1425L44.5416 52.7683C44.3934 53.2422 44.1063 53.6624 43.6987 54.02C42.402 55.1287 40.0217 55.2002 38.373 54.9141C38.3174 54.9052 37.5024 54.6995 37.5024 54.6995L37.3912 55.3969C36.8911 58.5351 33.8716 60.5557 31.2783 61.1011C28.0828 61.7717 24.0538 60.6183 21.6735 57.6947C21.6735 57.6947 21.7746 59.344 21.6792 61.1212C27.7548 66.0097 35.6347 68.9601 44.2452 68.9601C60.4496 68.9601 74.0663 58.5108 77.9392 44.3592Z" fill="white"/>
<path d="M45.8568 32.4549C47.3665 27.8057 54.2019 24.7033 59.6295 31.7307C64.7607 38.3648 62.0377 46.778 59.6666 48.8076C57.0547 51.0517 52.9238 49.7196 53.0442 45.9823C53.1275 43.2733 54.1741 42.7815 54.9336 38.3201C55.6283 34.2252 54.7206 30.479 50.8398 31.5609C48.3298 32.2582 47.9037 35.5127 49.5801 39.7148C51.5437 44.6412 52.2198 48.7361 48.8392 50.3544C46.0513 51.6955 43.0782 49.8805 42.8466 45.6426C42.5687 40.5463 43.8006 35.8256 42.5224 32.9109C42.1334 32.0168 42.0871 30.935 43.0226 30.6847C43.9025 30.4611 45.1621 31.7129 45.8568 32.4549ZM42.754 51.9011C42.6984 51.0786 40.1421 50.3454 40.3273 45.3207C40.4014 43.47 40.3921 40.8682 39.9939 38.3022C38.6509 29.4777 31.5005 29.2452 27.8976 30.5595C25.3042 31.5072 23.5074 33.5904 22.9609 34.6991C22.3866 35.8524 22.7108 37.0326 24.1557 36.3621C25.508 35.7183 27.453 35.3786 28.5459 36.5677C29.5648 37.6763 29.6018 39.1337 29.8148 40.5374C29.0646 40.6804 26.8695 41.351 26.11 41.8427C22.7849 43.9528 18.7744 48.3337 21.8031 54.4224C23.2758 57.3907 26.7398 60.1803 30.8892 59.3041C33.1492 58.8302 36.0668 56.8453 35.5388 53.7518C35.1128 51.2574 31.2227 51.3825 29.0924 51.2574C24.5447 50.9891 25.7117 46.9658 27.2307 45.4816C29.2035 43.5594 31.5932 45.0078 32.2508 46.778C33.4641 50.0146 34.696 52.4197 38.7064 53.1081C40.5126 53.4121 42.8373 53.1349 42.754 51.9011ZM21.8217 39.6433C20.9047 37.9714 17.5518 38.9012 14.1712 40.6804C13.3283 39.1158 12.4484 36.8359 12.4484 36.8359C12.4484 36.8359 18.2465 34.1179 22.0717 28.5657C26.2026 22.5575 19.1634 20.7425 13.634 23.2728C9.86428 24.9983 2.63985 29.4061 2.32494 35.3428C1.74143 46.4294 6.89115 56.6755 12.6151 61.7717C17.9038 66.4835 19.4413 65.7235 19.4042 61.2263C19.3765 55.9602 18.3484 51.016 17.098 47.2787C20.1174 44.7753 22.7293 41.2884 21.8217 39.6433ZM78.1908 23.5946C76.4773 24.2473 75.3658 25.2308 74.6156 26.1696C74.0043 26.9295 74.6434 27.6895 75.4029 27.5107C77.1256 27.1084 79.895 27.1262 80.3303 30.4343C74.5044 30.6131 72.2075 33.5457 72.1982 37.3455C72.1797 41.7623 76.9219 43.166 79.2837 42.254C80.4044 41.8159 81.0991 41.2616 81.238 40.1529C81.5344 37.8194 78.5335 37.8373 77.8573 37.6138C75.5418 36.827 76.292 34.2341 77.7647 33.5189C79.0614 32.8841 80.8768 33.6262 81.0898 35.5395C81.4973 39.1784 81.4881 41.5924 86.9157 42.7458C88.2123 43.0229 88.0827 42.0931 87.7585 41.5924C85.9802 38.8655 88.5087 36.1117 88.7866 32.0347C89.3794 23.2638 82.3402 22.0032 78.1908 23.5946ZM74.3007 23.6662C74.347 22.3519 73.1151 19.8753 67.7153 21.3863C62.5656 13.4022 58.0179 16.7818 60.7965 23.4963C59.3794 23.9076 55.9062 24.0506 54.6743 24.292C53.5536 24.5245 53.8222 25.5258 54.7669 26.25C56.5175 27.6001 60.9725 28.065 62.7045 28.2349C65.1683 34.1358 65.8166 41.2795 65.1127 44.5339C64.7144 46.3847 65.6777 46.0628 66.6224 45.2581C70.8274 41.646 71.6425 33.1344 70.4662 27.3855C73.6245 26.1338 74.2729 24.7927 74.3007 23.6662Z" fill="white"/>
<path d="M88.1382 39.2498C88.1475 38.0517 89.1478 37.0861 90.3889 37.095C91.6301 37.095 92.6304 38.0696 92.6304 39.2676C92.6304 40.4657 91.6208 41.4313 90.3797 41.4224C89.1386 41.4134 88.1382 40.4389 88.1382 39.2498Z" fill="white"/>
<path d="M90.3334 37.9444C91.1299 37.8997 91.7783 38.4629 91.8246 39.205C91.8709 39.965 91.2874 40.5819 90.4908 40.6355C89.6943 40.6802 89.0274 40.1259 88.9811 39.3659C88.9348 38.6239 89.5368 37.998 90.3334 37.9444ZM90.3334 38.2215C89.7221 38.2573 89.296 38.758 89.3331 39.3481C89.3609 39.9382 89.8517 40.3941 90.4816 40.3584C91.0929 40.3315 91.5097 39.8309 91.4726 39.2318C91.4356 38.6418 90.9539 38.1858 90.3426 38.2215H90.3334ZM90.2315 39.9918L89.9166 40.0097L89.8332 38.6775C89.9536 38.6507 90.1296 38.6149 90.3612 38.5971C90.6205 38.5792 90.7502 38.6149 90.8521 38.6775C90.9262 38.7312 91.0002 38.8295 91.0002 38.9547C91.0095 39.1067 90.8984 39.2318 90.7316 39.2855V39.3034C90.8706 39.3391 90.9539 39.4375 91.0002 39.6163C91.0558 39.8219 91.0836 39.9024 91.1207 39.9382L90.778 39.956C90.7316 39.9113 90.7039 39.804 90.6483 39.652C90.6112 39.509 90.5279 39.4464 90.3426 39.4554L90.1944 39.4643L90.2315 39.9918ZM90.1944 39.2408L90.3519 39.2318C90.5279 39.2229 90.6668 39.1603 90.6575 39.0173C90.6483 38.8921 90.5557 38.8206 90.3519 38.8295C90.2685 38.8384 90.213 38.8474 90.1759 38.8563L90.1944 39.2408Z" fill="black"/>
</g>
<defs>
<linearGradient id="paint0_linear" x1="25.544" y1="18.8697" x2="55.5392" y2="20.2881" gradientUnits="userSpaceOnUse">
<stop stop-color="#2BA756"/>
<stop offset="1" stop-color="#006A46"/>
</linearGradient>
<clipPath id="clip0">
<rect width="92.2597" height="72" fill="white" transform="translate(0.370636)"/>
</clipPath>
</defs>
</svg>
