<svg width="130" height="62" viewBox="0 0 130 62" fill="none" xmlns="http://www.w3.org/2000/svg">
<path d="M53.3045 32.8505C53.2604 32.8817 53.2071 32.8985 53.1524 32.8985C53.0978 32.8985 53.0445 32.8817 53.0004 32.8505C52.906 32.7848 52.868 32.6821 52.9021 32.582L57.0079 20.3677L46.2635 12.826C46.2196 12.7953 46.187 12.7518 46.1705 12.7019C46.154 12.652 46.1545 12.5983 46.1719 12.5487C46.1875 12.4984 46.2196 12.4542 46.2633 12.423C46.307 12.3917 46.36 12.3749 46.4144 12.3752H59.6955L63.7988 0.173518C63.8155 0.12313 63.8484 0.0791864 63.8927 0.0480071C63.937 0.0168279 63.9904 1.96221e-05 64.0451 0C64.1604 0 64.2562 0.0734354 64.2915 0.173518L68.3935 12.3752H81.676C81.7848 12.3752 81.8871 12.4424 81.9224 12.5487C81.9394 12.5986 81.9395 12.6525 81.9225 12.7024C81.9055 12.7523 81.8724 12.7956 81.828 12.826L71.0809 20.3677L75.1869 32.577C75.2197 32.6784 75.1829 32.7848 75.0898 32.8506C75.0457 32.8818 74.9924 32.8986 74.9377 32.8986C74.8831 32.8986 74.8298 32.8818 74.7857 32.8506L64.0451 25.3066L53.3045 32.8505Z" fill="white"/>
<path d="M33.4749 31.5514V29.1448H32.986V28.3683H34.8777V29.1448H34.3664V31.5514H33.4749ZM36.8394 29.8416C37.074 29.8416 37.2011 29.6427 37.2011 29.4363C37.2011 29.1576 37.0267 29.0386 36.7829 29.0525V29.8378L36.8394 29.8416ZM37.2721 31.5517L36.7779 30.2267L36.7687 30.2343C36.774 30.3902 36.783 30.5473 36.783 30.703V31.5517H35.8916V28.3685H36.7516C37.5251 28.3685 38.0835 28.5877 38.0835 29.4274C38.0835 29.7783 37.9275 30.0898 37.5736 30.2267L38.2369 31.5517H37.2721ZM40.3122 30.4668L40.2165 29.7283C40.1904 29.5295 40.1733 29.3268 40.1523 29.1279H40.1418C40.1169 29.3268 40.0947 29.5295 40.0592 29.7283L39.9374 30.4668H40.3122ZM40.4826 31.551L40.4171 31.1418H39.8193L39.7446 31.551H38.827L39.6174 28.3679H40.7055L41.4042 31.551H40.4826ZM43.1137 30.7833C43.5201 30.7794 43.5895 30.2893 43.5895 29.989C43.5895 29.6432 43.52 29.1618 43.1137 29.1618V30.7833ZM42.2224 28.369H42.9394C43.9528 28.369 44.4982 28.9846 44.4982 29.9472C44.4982 31.4167 43.5425 31.5508 42.9998 31.5508H42.2224V28.369ZM45.4945 28.3684H47.1503V29.1195H46.386V29.5629H47.0715V30.3139H46.386V30.7992H47.1503V31.5515H45.4945V28.3684ZM83.0044 31.5514L82.9218 29.55H82.9126C82.8732 29.7818 82.8432 30.0149 82.7999 30.2467L82.5469 31.5514H81.8207L81.5101 29.55H81.5021C81.4969 29.787 81.502 30.0188 81.489 30.2555L81.4143 31.5513H80.4572L80.8413 28.3682H81.9517L82.206 30.0604H82.2139C82.2402 29.8628 82.2625 29.6677 82.3004 29.4702L82.5155 28.3682H83.6114L83.9313 31.5513H83.0044V31.5514ZM85.9974 30.4668L85.9017 29.7283C85.8755 29.5295 85.8584 29.3268 85.8362 29.1279H85.827C85.8008 29.3268 85.7798 29.5295 85.7444 29.7283L85.6225 30.4668H85.9974ZM86.1679 31.551L86.1022 31.1418H85.5046L85.4299 31.551H84.5121L85.3039 28.3679H86.3907L87.0894 31.551H86.1679ZM88.8114 29.8416C89.0473 29.8416 89.1746 29.6427 89.1746 29.4363C89.1746 29.1576 88.999 29.0386 88.7551 29.0525V29.8378L88.8114 29.8416ZM89.244 31.5517L88.7499 30.2267L88.7419 30.2343C88.7459 30.3902 88.7551 30.5473 88.7551 30.703V31.5517H87.8636V28.3685H88.7236C89.4984 28.3685 90.057 28.5877 90.057 29.4274C90.057 29.7783 89.8995 30.0898 89.5457 30.2267L90.209 31.5517H89.244ZM93.4379 28.3684L92.726 29.9048L93.5205 31.5515H92.5648L92.0103 30.0898H92.0051V31.5515H91.1136V28.3684H92.0051V29.7237H92.0103L92.498 28.3684H93.4379ZM24.822 52.8044C24.4641 51.848 24.7498 48.9259 26.4161 48.375C28.1688 47.7938 29.2463 48.6662 29.7694 50.3738C29.9647 51.007 29.9214 51.6758 29.7078 51.9255C29.3972 52.2903 28.8426 52.5068 28.3431 52.6703L27.0308 53.0896C25.741 53.5137 25.1248 53.5987 24.822 52.8044ZM33.1005 56.3485C32.2484 57.1732 31.142 57.9913 30.0526 58.3258C29.0261 58.6449 26.1 58.8919 25.2387 56.5575C25.0526 56.0509 25.2034 55.895 25.6779 55.7594C26.3832 55.5569 28.2029 55.0401 30.1221 54.3446C31.8643 53.7165 33.4178 52.945 33.9054 52.6309C34.7772 52.0787 34.9056 51.3009 34.5229 50.4636C33.301 47.8076 30.5337 45.0272 25.9349 45.8722C22.2799 46.5459 19.662 49.7252 19.662 53.3617C19.662 57.8659 22.4714 60.498 26.045 61.315C29.3499 62.0736 33.2342 60.526 34.8964 57.9242C35.5559 56.9223 33.6996 55.733 33.1005 56.3485ZM67.6301 52.8044C67.4177 52.2319 67.4322 50.9576 67.8346 49.9078C68.1086 49.202 68.5124 48.6498 69.2241 48.375C70.0252 48.0635 70.7108 48.1483 71.247 48.447C71.8604 48.788 72.2983 49.463 72.5775 50.3736C72.7716 51.0069 72.7296 51.6757 72.5158 51.9254C72.2025 52.2902 71.7188 52.4725 71.1498 52.6701C70.7156 52.8196 70.2785 52.9615 69.8389 53.0957C68.5413 53.4886 67.933 53.5987 67.6301 52.8044ZM75.9061 56.3485C75.0566 57.1732 73.9489 57.9913 72.8621 58.3258C71.8343 58.6449 68.9069 58.8919 68.0471 56.5575C67.8609 56.0509 68.0129 55.895 68.4863 55.7594C69.1915 55.5569 71.0112 55.0401 72.9303 54.3446C74.6725 53.7165 76.2274 52.945 76.7124 52.6309C77.5855 52.0787 77.7139 51.3009 77.3311 50.4636C76.108 47.8076 73.3432 45.0272 68.7431 45.8722C65.0883 46.5459 62.4704 49.7252 62.4704 53.3617C62.4704 57.8659 65.2785 60.498 68.8533 61.315C72.1569 62.0736 76.0425 60.526 77.7048 57.9242C78.364 56.9223 76.5077 55.733 75.9061 56.3485ZM100.264 52.8044C100.049 52.2319 100.066 50.9576 100.468 49.9078C100.742 49.202 101.146 48.6498 101.858 48.375C102.659 48.0635 103.345 48.1483 103.881 48.447C104.494 48.788 104.931 49.463 105.211 50.3736C105.404 51.0069 105.363 51.6757 105.149 51.9254C104.838 52.2902 104.354 52.4725 103.784 52.6701C103.349 52.8194 102.912 52.9613 102.472 53.0957C101.173 53.4886 100.567 53.5987 100.264 52.8044ZM108.54 56.3485C107.692 57.1732 106.583 57.9913 105.493 58.3258C104.468 58.6449 101.541 58.8919 100.68 56.5575C100.495 56.0509 100.647 55.895 101.12 55.7594C101.825 55.5569 103.644 55.0401 105.564 54.3446C107.305 53.7165 108.861 52.945 109.346 52.6309C110.218 52.0787 110.346 51.3009 109.965 50.4636C108.742 47.8076 105.976 45.0272 101.377 45.8722C97.7207 46.5459 95.1041 49.7252 95.1041 53.3617C95.1041 57.8659 97.9122 60.498 101.487 61.315C104.791 62.0736 108.675 60.526 110.337 57.9242C110.997 56.9223 109.142 55.733 108.54 56.3485ZM7.73075 51.6208C7.60731 51.6209 7.48895 51.6683 7.40169 51.7526C7.31442 51.837 7.26541 51.9514 7.26541 52.0707L7.2667 57.1715C7.27188 57.9629 7.5184 58.4924 7.96536 58.6837C8.20657 58.7875 8.73225 59.0219 9.02979 59.1511C9.23436 59.241 9.24213 59.4423 9.21196 59.7009C9.18581 59.9314 9.11628 60.5889 9.09013 60.8307C9.06268 61.0941 8.8502 61.2055 8.4373 61.2055H0.795832C0.409084 61.2055 0.169164 61.1399 0.136406 60.8307C0.110122 60.5888 0.0392982 59.8947 0.0131438 59.6643C-0.0210381 59.3715 0.0405929 59.2208 0.228076 59.1372C0.483793 59.0219 1.0408 58.7824 1.28215 58.6737C1.75668 58.4609 1.95854 57.8403 1.95854 57.1879L1.95724 44.5757C1.95595 43.8715 1.75137 43.3029 1.22052 43.0648C0.979301 42.957 0.475894 42.7366 0.230795 42.624C0.0276453 42.5302 -0.0275119 42.3492 0.0118491 42.0921C0.0459015 41.8614 0.102353 41.4676 0.136406 41.2256C0.179651 40.919 0.409084 40.8521 0.795832 40.8521H8.08202C8.47006 40.8521 8.6916 40.919 8.73613 41.2256C8.77019 41.4676 8.82664 41.8614 8.86069 42.0921C8.90005 42.3492 8.84761 42.5266 8.64964 42.6291C8.39004 42.7645 8.02569 42.9622 7.79225 43.0851C7.47762 43.251 7.27175 43.5943 7.26657 44.4075L7.26528 48.0834C7.26516 48.1425 7.2771 48.2011 7.30043 48.2558C7.32376 48.3104 7.35801 48.3601 7.40123 48.402C7.44445 48.4439 7.49578 48.4771 7.5523 48.4998C7.60882 48.5225 7.66941 48.5342 7.73062 48.5342H11.8103C11.8715 48.5343 11.9322 48.5227 11.9888 48.5C12.0453 48.4774 12.0967 48.4442 12.14 48.4023C12.1832 48.3604 12.2175 48.3106 12.2407 48.2559C12.264 48.2012 12.2759 48.1425 12.2756 48.0834L12.2744 44.4075C12.269 43.5943 12.0633 43.251 11.75 43.0851C11.5154 42.9623 11.1522 42.7646 10.8926 42.6291C10.6946 42.5266 10.6409 42.3492 10.6801 42.0921C10.7143 41.8614 10.7706 41.4676 10.8047 41.2256C10.8492 40.919 11.072 40.8521 11.4588 40.8521H18.745C19.1317 40.8521 19.3611 40.919 19.4057 41.2256C19.4397 41.4676 19.4948 41.8614 19.5302 42.0921C19.5682 42.3492 19.5144 42.5302 19.3113 42.624C19.0648 42.7366 18.5614 42.957 18.3201 43.0648C17.7906 43.3029 17.586 43.8715 17.5847 44.5757L17.5834 57.1879C17.5834 57.8403 17.784 58.4609 18.2585 58.6737C18.4997 58.7824 19.0582 59.0219 19.3138 59.1372C19.5012 59.2208 19.5616 59.3715 19.5288 59.6643C19.5025 59.8947 19.4305 60.5889 19.4056 60.8307C19.3728 61.1399 19.1316 61.2055 18.7448 61.2055H11.1038C10.6908 61.2055 10.4784 61.0941 10.4509 60.8307C10.4246 60.5888 10.3552 59.9314 10.329 59.7009C10.3001 59.4425 10.3067 59.241 10.5124 59.1511C10.8088 59.0219 11.3345 58.7875 11.577 58.6837C12.0226 58.4924 12.2692 57.9629 12.2744 57.1715L12.2756 52.0707C12.2757 52.0116 12.2638 51.953 12.2404 51.8984C12.2171 51.8438 12.1828 51.7942 12.1396 51.7524C12.0964 51.7106 12.045 51.6775 11.9885 51.6549C11.932 51.6323 11.8715 51.6207 11.8103 51.6208H7.73075Z" fill="white"/>
<path d="M89.6303 51.2137C89.6303 51.2137 92.3978 56.0509 93.1528 57.3796C93.7271 58.3892 94.3721 58.6691 95.2464 59.1503C95.4718 59.2732 95.5401 59.3544 95.4994 59.7633C95.4692 60.0787 95.4181 60.5614 95.3932 60.8123C95.3579 61.1617 95.1009 61.205 94.7417 61.205H90.6621C90.1457 61.205 89.9437 61.1012 89.7601 60.7794C89.5634 60.4349 86.1525 54.4384 86.1525 54.4384L84.8664 55.6252V57.2797C84.873 58.0383 85.2347 58.5297 85.5873 58.7199C85.8155 58.8427 86.1616 59.029 86.4395 59.177C86.6531 59.2911 86.6688 59.4354 86.6401 59.7597C86.6191 59.9889 86.5536 60.588 86.5287 60.8311C86.4998 61.0996 86.3111 61.2049 85.8745 61.2049H79.0838C78.6959 61.2049 78.4533 61.1401 78.4205 60.8311C78.3943 60.588 78.3301 59.9446 78.3039 59.7152C78.271 59.4263 78.3235 59.2796 78.5202 59.1732C78.8056 59.0172 79.0918 58.8626 79.3789 58.7095C79.7132 58.5308 79.9845 58.047 79.9845 57.2554V44.4447C79.9818 43.558 79.6346 43.1553 79.3645 43.0094C79.1744 42.9056 78.6237 42.6104 78.498 42.5408C78.3079 42.4369 78.2712 42.2368 78.3079 41.9909C78.342 41.763 78.3839 41.4666 78.4193 41.2247C78.4651 40.9029 78.6828 40.8511 79.0787 40.8511H83.9829C84.3998 40.8511 84.8652 41.1487 84.8652 41.7112L84.8665 51.4998C84.8665 51.4998 87.6181 49.1045 88.0246 48.7524C88.3143 48.5004 88.2319 48.232 88.0692 48.1584C87.7874 48.0318 87.4727 47.8974 87.2957 47.8202C87.1003 47.734 87.0008 47.6328 87.0335 47.3213C87.0663 47.0262 87.1202 46.5497 87.1424 46.3231C87.1713 46.0291 87.2748 45.9088 87.7756 45.9088H93.7692C94.1455 45.9088 94.2727 46.0344 94.2976 46.2723C94.3238 46.5436 94.392 47.1058 94.4183 47.377C94.4391 47.5934 94.2832 47.7188 93.9528 47.8354C93.0849 48.142 92.7088 48.3586 91.5368 49.453C90.8037 50.1369 89.6303 51.2137 89.6303 51.2137ZM42.1978 57.3032C42.2044 58.0618 42.4652 58.5293 42.8191 58.7194C43.1026 58.8728 43.3866 59.0252 43.6712 59.1765C43.8836 59.2906 43.9007 59.4362 43.8705 59.7592C43.8508 59.9896 43.7853 60.5888 43.7603 60.8306C43.7314 61.1003 43.5414 61.2056 43.1062 61.2056H36.3142C35.9275 61.2056 35.6875 61.1397 35.6548 60.8306C35.6163 60.4585 35.5765 60.0865 35.5355 59.7147C35.5028 59.4271 35.5565 59.2802 35.7518 59.1725C36.0369 59.0173 36.3228 58.8632 36.6092 58.7102C36.9435 58.5303 37.2161 58.0478 37.2161 57.2549L37.2149 50.0753C37.2136 49.1114 36.9199 48.6606 36.5974 48.4844C36.4059 48.3806 36.1372 48.2313 36.0101 48.1616C35.8095 48.0514 35.7768 47.865 35.8134 47.6207C35.8474 47.3928 35.8999 47.0077 35.9352 46.7657C35.9785 46.4591 36.2079 46.3922 36.5947 46.3922H41.7414C41.8012 46.3921 41.8605 46.4035 41.9158 46.4257C41.9711 46.4478 42.0213 46.4803 42.0636 46.5212C42.1058 46.5622 42.1393 46.6108 42.1621 46.6643C42.1848 46.7178 42.1965 46.7751 42.1962 46.8329L42.1978 57.3032ZM39.3084 40.4394C37.8022 40.4394 36.5829 41.5768 36.5829 42.9804C36.5829 44.3839 37.8022 45.5213 39.3084 45.5213C40.812 45.5213 42.0326 44.3839 42.0326 42.9804C42.0326 41.5768 40.812 40.4394 39.3084 40.4394ZM59.9063 50.0816C59.9063 47.4457 58.67 46.44 57.2385 45.9979C55.5853 45.4898 53.5902 46.3258 52.5663 46.7831C52.2958 46.9039 52.0279 47.0302 51.7628 47.1618C51.498 46.5615 51.3577 46.3917 50.9657 46.3917H46.1244C45.7377 46.3917 45.5083 46.4589 45.465 46.7652C45.4297 47.0072 45.3772 47.3923 45.343 47.6202C45.3064 47.8648 45.3379 48.0509 45.5397 48.1611C45.6656 48.2308 45.9357 48.3816 46.1257 48.4854C46.4494 48.6601 46.7419 49.1112 46.7445 50.0751L46.7458 57.2544C46.7458 58.0475 46.4731 58.5301 46.1388 58.71C45.8518 58.8624 45.566 59.0169 45.2814 59.1735C45.0847 59.2801 45.031 59.4268 45.0651 59.7157C45.0913 59.9449 45.1582 60.5885 45.1843 60.8303C45.2158 61.1395 45.457 61.2051 45.8437 61.2051H52.6344C53.0696 61.2051 53.2598 61.1001 53.2885 60.8303C53.3134 60.5884 53.379 59.9893 53.3999 59.7587C53.4288 59.4357 53.4131 59.2913 53.1993 59.176C52.9142 59.0256 52.6301 58.8732 52.3472 58.7188C51.9081 58.4782 51.7245 57.8524 51.7245 57.2838L51.7272 51.5775C51.7272 50.0865 52.4797 49.2494 53.5127 49.1264C54.1995 49.0429 55.0805 49.452 55.0805 50.6262V58.3134C55.0805 60.5022 57.0062 61.342 58.5177 61.342C60.1185 61.342 61.4844 60.6314 62.0953 59.3952C62.2894 59.0037 62.0521 58.7061 61.8542 58.4945C61.6274 58.2526 61.423 58.0374 61.0532 58.2199C60.6888 58.401 60.3059 58.7506 60.0856 58.6329C59.9217 58.5467 59.906 58.4073 59.906 58.0653V50.0816H59.9063ZM125.843 50.0816C125.843 47.4457 124.607 46.44 123.175 45.9979C121.522 45.4898 119.527 46.3258 118.503 46.7831C118.088 46.9682 117.7 47.1618 117.7 47.1618C117.436 46.5615 117.294 46.3917 116.903 46.3917H112.061C111.674 46.3917 111.445 46.4589 111.4 46.7652C111.366 47.0072 111.314 47.3923 111.28 47.6202C111.242 47.8648 111.275 48.0509 111.475 48.1611C111.602 48.2308 111.871 48.3816 112.064 48.4854C112.386 48.6601 112.68 49.1112 112.681 50.0751L112.683 57.2544C112.683 58.0475 112.41 58.5301 112.074 58.71C111.788 58.8626 111.503 59.0171 111.218 59.1735C111.022 59.2801 110.968 59.4268 111.002 59.7157C111.027 59.9449 111.095 60.5885 111.121 60.8303C111.154 61.1395 111.394 61.2051 111.781 61.2051H118.571C119.008 61.2051 119.197 61.1001 119.226 60.8303C119.25 60.5884 119.316 59.9893 119.338 59.7587C119.366 59.4357 119.35 59.2913 119.136 59.176C118.851 59.0256 118.567 58.8732 118.284 58.7188C117.844 58.4782 117.662 57.8524 117.662 57.2838L117.664 51.5775C117.664 50.0865 118.417 49.2494 119.45 49.1264C120.137 49.0429 121.018 49.452 121.018 50.6262V58.3134C121.018 60.5022 122.943 61.342 124.455 61.342C126.056 61.342 127.422 60.6314 128.034 59.3952C128.225 59.0037 127.989 58.7061 127.79 58.4945C127.564 58.2526 127.36 58.0374 126.992 58.2199C126.624 58.401 126.242 58.7506 126.023 58.6329C125.86 58.5467 125.843 58.4073 125.843 58.0653V50.0816H125.843ZM126.873 41.1875C126.873 40.9356 126.6 40.8469 126.373 40.8469H125.85V41.565H126.445C126.7 41.5651 126.873 41.4031 126.873 41.1875ZM127.592 42.6416C127.645 42.9812 127.802 43.2256 127.889 43.4042C127.528 43.4042 127.393 43.403 127.084 43.403C126.93 43.0699 126.896 42.8456 126.819 42.6152C126.714 42.2794 126.498 42.1805 126.123 42.1805H125.845V43.4028H125.104V40.2755H126.652C127.013 40.2755 127.636 40.4819 127.636 41.1469C127.636 41.565 127.396 41.8537 127.153 41.9424C127.421 42.1124 127.539 42.3062 127.592 42.6416ZM128.735 41.9489C128.735 40.6671 127.667 39.6335 126.347 39.6335C125.018 39.6335 123.94 40.6671 123.94 41.9489C123.94 43.2268 125.018 44.2656 126.347 44.2656C127.667 44.2656 128.735 43.2268 128.735 41.9489ZM129.348 41.9489C129.348 43.5511 128 44.8495 126.347 44.8495C124.685 44.8495 123.334 43.5511 123.334 41.9489C123.334 40.3413 124.685 39.0431 126.347 39.0469C128 39.0433 129.348 40.3414 129.348 41.9489Z" fill="white"/>
</svg>
