<svg width="25" height="24" viewBox="0 0 25 24" fill="none" xmlns="http://www.w3.org/2000/svg">
<path d="M12.9762 0C9.71942 0 9.3107 0.0142502 8.03158 0.0725002C6.75495 0.131 5.88354 0.33325 5.12107 0.63C4.33236 0.9365 3.66331 1.3465 2.99677 2.01375C2.32973 2.68075 1.92001 3.35025 1.61272 4.13925C1.31542 4.9025 1.11306 5.77475 1.0556 7.05175C0.998388 8.33175 0.983398 8.741 0.983398 12C0.983398 15.259 0.997889 15.6668 1.05585 16.9468C1.11456 18.2243 1.31667 19.0963 1.61297 19.8592C1.91951 20.6485 2.32923 21.318 2.99602 21.985C3.66231 22.6525 4.33136 23.0635 5.11957 23.37C5.88255 23.6668 6.7542 23.869 8.03058 23.9275C9.3097 23.9858 9.71817 24 12.9747 24C16.2317 24 16.6392 23.9858 17.9183 23.9275C19.1949 23.869 20.0673 23.6668 20.8303 23.37C21.6188 23.0635 22.2868 22.6525 22.9531 21.985C23.6202 21.318 24.0299 20.6485 24.3372 19.8595C24.632 19.0963 24.8343 18.224 24.8943 16.947C24.9517 15.667 24.9667 15.259 24.9667 12C24.9667 8.741 24.9517 8.332 24.8943 7.052C24.8343 5.7745 24.632 4.9025 24.3372 4.1395C24.0299 3.35025 23.6202 2.68075 22.9531 2.01375C22.2861 1.34625 21.619 0.93625 20.8296 0.63C20.0651 0.33325 19.1932 0.131 17.9166 0.0725002C16.6374 0.0142502 16.2302 0 12.9724 0H12.9762ZM11.9004 2.1625C12.2197 2.162 12.576 2.1625 12.9762 2.1625C16.178 2.1625 16.5575 2.174 17.8219 2.2315C18.9911 2.285 19.6256 2.4805 20.0483 2.64475C20.608 2.86225 21.0069 3.12225 21.4264 3.54225C21.8461 3.96225 22.1059 4.36225 22.3238 4.92225C22.4879 5.34475 22.6835 5.97975 22.7368 7.14975C22.7942 8.41475 22.8067 8.79475 22.8067 11.9972C22.8067 15.1997 22.7942 15.5798 22.7368 16.8447C22.6833 18.0147 22.4879 18.6498 22.3238 19.0723C22.1064 19.6323 21.8461 20.031 21.4264 20.4508C21.0067 20.8708 20.6082 21.1307 20.0483 21.3482C19.6261 21.5133 18.9911 21.7083 17.8219 21.7617C16.5577 21.8193 16.178 21.8318 12.9762 21.8318C9.77413 21.8318 9.39464 21.8193 8.13051 21.7617C6.96131 21.7078 6.32674 21.5123 5.90378 21.348C5.34416 21.1305 4.94444 20.8705 4.52472 20.4505C4.10501 20.0305 3.84519 19.6315 3.62734 19.0713C3.4632 18.6488 3.26759 18.0138 3.21437 16.8438C3.15691 15.5788 3.14542 15.1987 3.14542 11.9942C3.14542 8.78975 3.15691 8.41175 3.21437 7.14675C3.26783 5.97675 3.4632 5.34175 3.62734 4.91875C3.84469 4.35875 4.10501 3.95875 4.52472 3.53875C4.94444 3.11875 5.34416 2.85875 5.90378 2.64075C6.32649 2.47575 6.96131 2.28075 8.13051 2.227C9.23675 2.177 9.66546 2.165 11.9004 2.1625ZM19.3773 4.155C18.5829 4.155 17.9383 4.79925 17.9383 5.5945C17.9383 6.3895 18.5829 7.0345 19.3773 7.0345C20.1718 7.0345 20.8163 6.3895 20.8163 5.5945C20.8163 4.7995 20.1718 4.155 19.3773 4.155ZM12.9762 5.8375C9.57527 5.8375 6.81791 8.59675 6.81791 12C6.81791 15.4032 9.57527 18.1613 12.9762 18.1613C16.3771 18.1613 19.1335 15.4032 19.1335 12C19.1335 8.59675 16.3771 5.8375 12.9762 5.8375ZM12.9762 8C15.1837 8 16.9735 9.79075 16.9735 12C16.9735 14.209 15.1837 16 12.9762 16C10.7685 16 8.97893 14.209 8.97893 12C8.97893 9.79075 10.7685 8 12.9762 8Z" fill="#E3942C"/>
</svg>
