<svg width="100" height="59" viewBox="0 0 100 59" fill="none" xmlns="http://www.w3.org/2000/svg">
<path d="M0.962779 39.1797C0.643118 26.3037 0.322192 13.4278 0 0.551801L6.05754 0.521496C6.16044 5.60925 6.26334 10.6966 6.36623 15.7835C7.38974 15.363 7.90213 15.1522 8.92816 14.7569C8.84129 10.0076 8.75357 5.25697 8.66501 0.505081L14.7238 0.479828L14.8946 12.2834C13.589 13.3541 12.2989 14.44 11.0245 15.5411C11.0245 15.8012 11.0245 15.9312 11.0346 16.1901C12.3428 16.8543 13.6573 17.5041 14.9781 18.1397C15.0565 23.5414 15.1346 28.9432 15.2122 34.3449C13.2368 34.9055 11.2729 35.5011 9.32036 36.1316L9.02052 19.7963L8.4765 19.5349C7.6706 19.8822 7.26702 20.0589 6.46239 20.4188C6.57372 25.9418 6.68547 31.4643 6.79765 36.9864C4.83835 37.6843 2.8934 38.4154 0.962779 39.1797Z" fill="#E3942C"/>
<path d="M26.5682 17.6775C25.532 17.5513 25.0133 17.4881 23.9771 17.3669L24.1112 32.1983C22.1212 32.6037 20.1412 33.0645 18.165 33.562C18.0259 22.5346 17.8863 11.5072 17.7463 0.479828C21.1689 0.468043 24.5912 0.457942 28.013 0.449524C29.4999 1.02025 30.9899 1.58004 32.4827 2.12889C32.5047 5.86642 32.5258 9.60353 32.546 13.3402C31.3728 14.0094 30.2059 14.6871 29.0453 15.3731V16.0335C30.2194 16.6817 31.3939 17.3278 32.5688 17.9717L32.6409 30.7425C30.6419 31.0114 28.6506 31.3384 26.6668 31.7008C26.6356 27.0239 26.6027 22.3494 26.5682 17.6775ZM23.9392 13.3314L25.9913 13.613L26.5315 13.2581L26.4556 3.92821C26.0672 3.75901 25.8736 3.67567 25.4852 3.50142L23.8405 3.53551C23.8709 6.80164 23.9017 10.0669 23.9329 13.3314H23.9392Z" fill="#E3942C"/>
<path d="M35.5165 2.09605C37.3721 1.38558 39.2348 0.686898 41.1047 0H44.6395C46.5086 0.681847 48.3743 1.36159 50.2366 2.03923C50.2366 11.2105 50.2366 20.3809 50.2366 29.5505C48.2338 29.5442 46.2298 29.5934 44.2296 29.6768L44.2069 16.8429C43.1694 16.8694 42.6495 16.8858 41.612 16.9237C41.6222 21.2235 41.6327 25.5221 41.6437 29.8194C39.6409 29.9457 37.6407 30.1326 35.6469 30.3561L35.5165 2.09605ZM41.6006 13.1899C42.6406 13.1596 43.1593 13.147 44.1993 13.1268C44.1942 9.97769 44.1887 6.82857 44.1828 3.67945L43.215 3.26655H42.5432C42.156 3.43701 41.9625 3.51909 41.5766 3.69334L41.6006 13.1899Z" fill="#E3942C"/>
<path d="M65.3868 0.429298C65.3775 2.11287 65.3691 3.80023 65.3615 5.49138C64.4544 5.47118 64.0014 5.46234 63.0943 5.44592L62.5085 4.58604L61.9203 4.57846C61.8899 13.0805 61.8591 21.5863 61.8279 30.096C59.8302 29.9078 57.8288 29.7752 55.826 29.6818C55.8404 21.2926 55.8547 12.9037 55.869 4.51533H55.2807C55.0442 4.84741 54.9265 5.0204 54.6912 5.34617C53.7841 5.33986 53.3299 5.3386 52.4215 5.33481V0.420459C56.7441 0.419617 61.0659 0.422563 65.3868 0.429298Z" fill="#E3942C"/>
<path d="M67.559 2.1213C69.4391 1.42851 71.3106 0.721411 73.1738 0H76.7162C78.5823 0.747506 80.4408 1.51522 82.2829 2.31575L81.9059 31.7135C80.0663 32.0502 78.2285 32.3932 76.3923 32.7425C75.2385 32.4959 74.0801 32.2669 72.917 32.0556C71.1019 31.0144 69.267 30.0097 67.4123 29.0416L67.559 2.1213ZM73.4002 28.212C73.7798 28.4532 73.9708 28.5744 74.3504 28.8207L75.0133 28.9368L75.971 28.6565C76.0478 20.4356 76.1254 12.2135 76.2038 3.99007L75.2423 3.5153L74.5692 3.50141C74.1821 3.67313 73.9873 3.75395 73.6001 3.9282C73.5369 12.0237 73.4719 20.1183 73.4053 28.212H73.4002Z" fill="#E3942C"/>
<path d="M85.3028 2.37005C87.1921 1.60739 89.0696 0.817374 90.9352 0H94.4701C96.3324 0.863673 98.1757 1.76775 100 2.70466L99.723 13.796C98.5346 13.6277 97.3449 13.4698 96.154 13.3225C95.2 12.7531 94.7218 12.474 93.7654 11.9336C93.8143 9.48567 93.864 7.03733 93.9147 4.58858C93.5351 4.36382 93.3415 4.2527 92.9607 4.03174L92.2889 4.00774C91.8993 4.19841 91.7044 4.29437 91.3148 4.48251L91.1452 13.7001C94.0264 15.3677 96.8426 17.132 99.5939 18.9932C99.4446 25.0086 99.2945 31.0236 99.1435 37.0382C97.3285 37.2579 95.5121 37.4717 93.6945 37.6796C92.5609 37.2705 91.4223 36.8782 90.2786 36.5028C88.5074 35.1147 86.7054 33.7699 84.8726 32.4685C84.9291 28.5012 84.9865 24.5347 85.0447 20.569C86.2331 20.7635 87.4202 20.9697 88.6061 21.1878C89.5587 21.7812 90.0344 22.0843 90.9833 22.703C90.9259 25.8588 90.8682 29.0155 90.81 32.1731C91.1819 32.4862 91.3692 32.6441 91.7411 32.9635L92.3939 33.163L93.3441 32.9345L93.5794 21.3178C90.8112 19.5021 87.9857 17.7848 85.1029 16.1661C85.1695 11.5649 85.2361 6.9662 85.3028 2.37005Z" fill="#E3942C"/>
<path d="M19.6212 39.9727C15.216 40.2934 12.7894 43.1736 12.7894 43.1736C12.8843 41.5914 14.2886 40.0358 14.2886 40.0358C2.83647 43.4223 6.21568 58.6957 6.21568 58.6957C6.43835 49.0198 10.8967 45.1446 10.8967 45.1446C9.896 49.0349 10.2199 49.5034 10.2199 49.5034C14.5935 40.9032 19.6212 39.9727 19.6212 39.9727Z" fill="#87153D"/>
<path d="M80.3788 39.9727C84.784 40.2934 87.2106 43.1736 87.2106 43.1736C87.1157 41.5914 85.7114 40.0358 85.7114 40.0358C97.1673 43.4223 93.7881 58.6957 93.7881 58.6957C93.5654 49.0198 89.1071 45.1446 89.1071 45.1446C90.1078 49.0349 89.7839 49.5034 89.7839 49.5034C85.4065 40.9032 80.3788 39.9727 80.3788 39.9727Z" fill="#87153D"/>
<path d="M32.8041 40.9234C32.6586 40.9234 32.6156 40.8224 32.3815 40.8224C32.002 40.8224 31.5946 40.9815 31.1569 41.258C32.0172 41.7821 32.3815 42.5106 32.3815 43.3112C32.3815 45.6534 29.6551 46.2646 29.5527 46.2797C29.64 46.3239 30.413 47.0222 30.413 48.2735C30.413 50.5728 28.5899 52.2029 26.3 52.2029C24.9146 52.2029 24.0543 51.1549 24.0543 50.2092C24.055 49.8953 24.1146 49.5844 24.2302 49.2925C22.8739 50.7041 21.2406 51.8683 19.4618 51.8683C17.6387 51.8683 16.5735 50.5589 16.5735 48.7394C16.5735 46.7191 18.3536 44.1837 20.7485 44.1837C20.9703 44.1822 21.1913 44.2115 21.4051 44.2708C21.4342 42.6293 23.504 40.4727 27.3842 40.4727C28.243 40.4587 29.1002 40.5516 29.936 40.7492C30.5622 40.4436 31.1898 40.2542 31.7882 40.2542C32.5473 40.2542 33.085 40.5068 33.085 40.6759C33.085 40.8451 32.9508 40.9234 32.8041 40.9234ZM27.555 41.2C24.3175 41.2 22.3489 42.772 22.3489 44.1256C22.3489 44.5473 22.5387 44.81 22.9903 44.81C24.0543 44.81 24.9146 43.0927 25.2511 42.3793C25.294 42.2676 25.3474 42.1602 25.4106 42.0586C25.4839 42.0586 25.4991 42.0737 25.4991 42.1609C25.4991 44.0233 24.7691 45.959 23.0346 45.93H22.9903C23.0201 46.0835 23.035 46.2395 23.0346 46.3959C23.0346 47.8366 21.5468 49.3367 19.8401 49.3367C19.4466 49.3367 19.1544 49.2192 19.1544 49.1473C19.1544 49.0008 19.4618 49.0892 19.7528 48.9427C20.4385 48.5942 21.5898 47.6333 21.5898 46.3088C21.5898 45.6534 21.0648 45.1585 20.336 45.1585C19.0709 45.1585 17.5805 46.8909 17.5805 48.6523C17.5805 49.8304 18.2068 50.7913 19.3011 50.7913C21.1824 50.7913 23.4761 47.7937 25.1208 45.3769C26.1127 43.9223 27.512 42.3465 28.9707 41.3363C28.5044 41.245 28.0302 41.1993 27.555 41.2ZM26.7238 46.411C26.6601 46.4142 26.5963 46.4091 26.534 46.3959C26.2278 46.8467 25.8774 47.3277 25.4991 47.8076C25.8552 47.6231 26.2493 47.5237 26.6504 47.5171C27.2627 47.5171 27.7448 47.7937 27.7448 48.3467C27.7448 48.4048 27.7296 48.4338 27.7005 48.4338C27.5247 48.3845 27.3439 48.3553 27.1615 48.3467C26.2278 48.3467 25.236 49.1321 25.236 49.9882C25.2368 50.1185 25.2635 50.2473 25.3147 50.3672C25.3659 50.4871 25.4405 50.5956 25.5341 50.6864C25.6277 50.7773 25.7385 50.8486 25.8599 50.8963C25.9814 50.944 26.1112 50.9671 26.2418 50.9643C27.1754 50.9643 28.4153 49.7117 28.4153 47.9515C28.4153 46.8037 27.8333 46.411 26.7238 46.411ZM30.3105 41.8982C29.1592 42.8882 27.9484 44.387 27.0148 45.7115C29.0858 45.6686 30.8507 44.5473 30.8507 42.9336C30.8482 42.7309 30.798 42.5315 30.7042 42.3517C30.6104 42.1718 30.4755 42.0165 30.3105 41.8982Z" fill="#E3942C"/>
<path d="M36.2605 51.7231C35.2395 51.7231 35.0067 50.5147 34.9624 50.5147C34.9182 50.5147 33.8542 51.8544 32.6447 51.8544C31.8426 51.8544 31.0544 51.1991 31.0544 49.9036C31.0544 47.7646 33.5923 44.387 35.9885 44.387C37.1701 44.387 37.2726 45.3971 37.3156 45.3971C37.389 45.3971 38.162 44.4514 38.4239 44.4514C38.6858 44.4514 38.6769 44.4943 38.8464 44.5385C38.9932 44.5675 39.2121 44.5966 39.2121 44.7999C39.2121 45.6004 36.6451 49.2104 36.6451 50.1119C36.6451 50.2584 36.7185 50.3645 36.864 50.3645C37.7976 50.3645 39.3285 47.7886 39.474 47.7886C39.6195 47.7886 39.6637 48.0412 39.6637 48.3126C39.6637 48.5841 37.5294 51.7231 36.2605 51.7231ZM35.7645 45.1875C34.5842 45.1875 32.8775 48.2306 32.8775 49.6561C32.8775 50.1221 33.0381 50.3834 33.3304 50.3834C33.7099 50.3834 34.7296 49.6852 34.7296 49.4086C34.7296 49.2925 34.4235 49.2634 34.3071 49.2634V49.1473C34.6866 49.045 36.363 47.3277 36.363 45.9906C36.363 45.5373 36.115 45.1875 35.7645 45.1875Z" fill="#E3942C"/>
<path d="M41.8018 51.7964C40.8833 51.7964 40.1685 51.2572 40.1685 50.2092C40.1685 48.7836 42.1371 46.1686 42.1371 46.1194C41.9135 45.9912 41.665 45.912 41.4084 45.887C41.3502 45.887 41.3072 45.9009 41.292 45.9299C40.5772 47.0941 39.8624 48.1573 39.3525 48.8846C39.3378 48.916 39.3153 48.9431 39.2872 48.9634C39.2591 48.9837 39.2263 48.9966 39.1918 49.0008C39.0653 49.0008 38.973 48.8265 38.973 48.5652C38.9907 48.4502 39.0339 48.3406 39.0995 48.2444C39.4655 47.7134 39.7875 47.1534 40.0623 46.5701C40.5 45.6976 40.5873 45.0713 40.8644 44.4173C41.1553 43.6887 41.3704 43.5435 41.8562 43.5435C42.0738 43.5435 42.1915 43.6698 42.1915 43.9223C42.1915 44.2127 42.0447 44.3289 42.0447 44.3731C42.0447 44.4173 42.132 44.4753 42.3661 44.4753C43.0518 44.4753 43.8678 44.3579 44.0728 44.3579C44.4802 44.3579 45.0204 45.1585 45.0204 45.4943C45.0204 45.7557 44.5675 45.988 44.2474 46.3529C43.6932 46.9489 42.1915 49.0601 42.1915 50.1953C42.1892 50.2233 42.1928 50.2514 42.202 50.2779C42.2112 50.3045 42.2259 50.3288 42.2451 50.3493C42.2642 50.3699 42.2875 50.3862 42.3133 50.3973C42.3392 50.4084 42.3671 50.414 42.3952 50.4137C42.7596 50.4137 43.4162 49.8455 43.9134 49.2344C44.4675 48.5652 44.9343 47.8366 45.0065 47.8366C45.133 47.8366 45.1962 48.0992 45.1962 48.3606C45.1962 48.622 43.0708 51.7964 41.8018 51.7964Z" fill="#E3942C"/>
<path d="M46.3526 51.7964C45.3607 51.7964 44.3688 51.3014 44.3688 49.4086C44.3688 48.7546 45.448 46.8328 46.5854 44.9413C47.8252 42.8743 48.9891 40.8654 49.7065 40.8654C50.0999 40.8654 50.6832 41.1419 50.6832 41.3452C50.6832 41.5485 50.0126 42.4664 49.6331 43.0927C49.2536 43.719 48.6994 44.6786 48.6994 44.7342L48.7298 44.7494C49.0588 44.5615 49.4288 44.4566 49.8077 44.4438C50.6098 44.4438 51.1791 45.0259 51.1791 46.1749C51.1791 48.3467 49.1814 51.7964 46.3526 51.7964ZM49.1081 45.2468C48.602 45.2468 48.1605 45.7999 47.9416 46.0322C47.7227 46.2646 45.8566 49.7584 45.8566 50.3986C45.8566 50.6511 46.0021 50.8494 46.3627 50.8494C47.5152 50.8494 49.6736 47.401 49.6736 45.9249C49.6774 45.6534 49.4876 45.2468 49.1081 45.2468Z" fill="#E3942C"/>
<path d="M52.7251 51.8835C51.7333 51.8835 50.9603 50.8733 50.9603 49.6852C50.9603 47.8366 53.1477 44.5183 55.1024 44.5183C55.6274 44.5183 55.9045 44.3579 56.2106 44.3579C56.6775 44.3579 57.1139 44.8971 57.1139 45.464C57.1139 46.5562 55.4958 48.4477 53.1477 48.4477C53.1051 48.4494 53.0624 48.4447 53.0212 48.4338C52.8416 48.8077 52.7376 49.2131 52.715 49.6271C52.715 50.2673 52.9491 50.6751 53.488 50.6751C55.4275 50.6751 57.0304 47.7937 57.2076 47.7937C57.3847 47.7937 57.3822 48.055 57.3822 48.2735C57.3771 48.7975 55.1454 51.8835 52.7251 51.8835ZM55.7729 45.2039C55.2668 45.2039 54.1105 46.4262 53.3818 47.7078C54.533 47.4553 56.0386 46.281 56.0386 45.4514C56.0348 45.2898 55.9475 45.2039 55.7729 45.2039Z" fill="#E3942C"/>
<path d="M61.7077 51.7231C60.6868 51.7231 60.454 50.5147 60.4097 50.5147C60.3654 50.5147 59.3014 51.8544 58.0919 51.8544C57.2898 51.8544 56.5016 51.1991 56.5016 49.9036C56.5016 47.7646 59.0395 44.387 61.4357 44.387C62.6174 44.387 62.7186 45.3971 62.7629 45.3971C62.8362 45.3971 63.6093 44.4514 63.8711 44.4514C64.133 44.4514 64.1242 44.4943 64.2937 44.5385C64.4405 44.5675 64.6593 44.5966 64.6593 44.7999C64.6593 45.6004 62.0923 49.2104 62.0923 50.1119C62.0923 50.2584 62.1645 50.3645 62.3112 50.3645C63.2436 50.3645 64.7757 47.7886 64.9212 47.7886C65.0667 47.7886 65.111 48.0412 65.111 48.3126C65.111 48.5841 62.9767 51.7231 61.7077 51.7231ZM61.2118 45.1875C60.0314 45.1875 58.3247 48.2306 58.3247 49.6561C58.3247 50.1221 58.4854 50.3834 58.7764 50.3834C59.1559 50.3834 60.1769 49.6852 60.1769 49.4086C60.1769 49.2925 59.8707 49.2634 59.7543 49.2634V49.1473C60.1339 49.045 61.8102 47.3277 61.8102 45.9906C61.8102 45.5373 61.5622 45.1875 61.2118 45.1875Z" fill="#E3942C"/>
<path d="M67.2491 51.7964C66.3306 51.7964 65.6158 51.2572 65.6158 50.2092C65.6158 48.7836 67.5844 46.1686 67.5844 46.1194C67.3607 45.9912 67.1123 45.912 66.8556 45.887C66.7974 45.887 66.7532 45.9009 66.7392 45.9299C66.0244 47.0941 65.3096 48.1573 64.7998 48.8846C64.785 48.916 64.7626 48.9431 64.7345 48.9634C64.7064 48.9837 64.6735 48.9966 64.6391 49.0008C64.5126 49.0008 64.4202 48.8265 64.4202 48.5652C64.4379 48.4502 64.4811 48.3406 64.5467 48.2444C64.9123 47.7131 65.2342 47.1532 65.5095 46.5701C65.946 45.6976 66.0346 45.0713 66.3116 44.4173C66.6026 43.6887 66.8177 43.5435 67.3022 43.5435C67.5211 43.5435 67.6388 43.6698 67.6388 43.9223C67.6388 44.2127 67.492 44.3289 67.492 44.3731C67.492 44.4173 67.5793 44.4753 67.8134 44.4753C68.4991 44.4753 69.3151 44.3579 69.5188 44.3579C69.9274 44.3579 70.4676 45.1585 70.4676 45.4943C70.4676 45.7557 70.0147 45.988 69.6946 46.3529C69.1405 46.9489 67.6388 49.0601 67.6388 50.1953C67.6365 50.2233 67.6401 50.2514 67.6493 50.2779C67.6585 50.3045 67.6732 50.3288 67.6923 50.3493C67.7115 50.3699 67.7348 50.3862 67.7606 50.3973C67.7864 50.4084 67.8143 50.414 67.8425 50.4137C68.2068 50.4137 68.8634 49.8455 69.3606 49.2344C69.9148 48.5652 70.3816 47.8366 70.4537 47.8366C70.5802 47.8366 70.6435 48.0992 70.6435 48.3606C70.6435 48.622 68.518 51.7964 67.2491 51.7964Z" fill="#E3942C"/>
<path d="M70.9092 51.8254C70.1805 51.8254 69.7136 50.9807 69.7136 50.1511C69.7136 48.3758 71.9909 44.7077 72.7323 44.4021C72.8575 44.3798 72.9846 44.3701 73.1118 44.3731C73.4762 44.3731 73.9873 44.4463 73.9873 44.6938C73.9832 44.7358 73.9679 44.7759 73.943 44.81C73.6369 45.392 71.4494 49.2053 71.4494 50.2092C71.4494 50.4276 71.5367 50.5147 71.6531 50.5147C72.5577 50.5147 74.2353 47.7646 74.3656 47.7646C74.5262 47.7646 74.5414 48.0992 74.5414 48.3025C74.5414 48.5652 72.4261 51.8254 70.9092 51.8254ZM74.482 43.5144C73.7975 43.5144 73.1991 43.0195 73.1991 42.3212C73.1991 41.5636 73.8848 40.9815 74.6135 40.9815C75.2993 40.9815 75.8977 41.4765 75.8977 42.1747C75.8977 42.9311 75.212 43.5144 74.482 43.5144Z" fill="#E3942C"/>
<path d="M78.8568 51.7231C77.8371 51.7231 77.603 50.5147 77.56 50.5147C77.517 50.5147 76.4518 51.8544 75.241 51.8544C74.4389 51.8544 73.652 51.1991 73.652 49.9036C73.652 47.7646 76.1886 44.387 78.5861 44.387C79.7677 44.387 79.8702 45.3971 79.9132 45.3971C79.9866 45.3971 80.7596 44.4514 81.0215 44.4514C81.2834 44.4514 81.2745 44.4943 81.4453 44.5385C81.5908 44.5675 81.8097 44.5966 81.8097 44.7999C81.8097 45.6004 79.2427 49.2104 79.2427 50.1119C79.2427 50.2584 79.3161 50.3645 79.4616 50.3645C80.3952 50.3645 81.9261 47.7886 82.0716 47.7886C82.217 47.7886 82.2613 48.0412 82.2613 48.3126C82.2613 48.5841 80.1258 51.7231 78.8568 51.7231ZM78.3609 45.1875C77.1805 45.1875 75.4738 48.2306 75.4738 49.6561C75.4738 50.1221 75.6345 50.3834 75.9267 50.3834C76.3063 50.3834 77.326 49.6852 77.326 49.4086C77.326 49.2925 77.0198 49.2634 76.9034 49.2634V49.1473C77.283 49.045 78.9593 47.3277 78.9593 45.9906C78.9593 45.5373 78.7113 45.1875 78.3609 45.1875Z" fill="#E3942C"/>
</svg>
