<svg width="130" height="51" viewBox="0 0 130 51" fill="none" xmlns="http://www.w3.org/2000/svg">
<g clip-path="url(#clip0)">
<path d="M126.135 16.4902C126.049 16.1697 126.065 15.8322 126.18 15.5203C126.296 15.2085 126.507 14.9364 126.785 14.7385C127.064 14.5406 127.398 14.4259 127.745 14.4089C128.092 14.3919 128.437 14.4734 128.736 14.643C129.034 14.8126 129.273 15.0627 129.422 15.3616C129.571 15.6605 129.623 15.9947 129.572 16.3219C129.521 16.6491 129.369 16.9545 129.136 17.1995C128.902 17.4444 128.597 17.6179 128.26 17.6978C128.037 17.7521 127.805 17.764 127.577 17.7326C127.349 17.7013 127.13 17.6273 126.933 17.5151C126.735 17.4028 126.563 17.2545 126.426 17.0786C126.289 16.9027 126.19 16.7027 126.135 16.4902" stroke="white" stroke-width="1.52258" stroke-miterlimit="2.6131"/>
<path fill-rule="evenodd" clip-rule="evenodd" d="M127.39 16.321L128.064 16.163C128.396 16.0859 128.479 16.2646 128.521 16.4244C128.562 16.5883 128.621 16.7477 128.697 16.9003L129.039 16.8194L129.027 16.7762C128.928 16.7498 128.904 16.7122 128.873 16.605L128.764 16.257C128.681 15.9899 128.55 15.9692 128.42 15.9504C128.501 15.8882 128.56 15.804 128.59 15.7089C128.62 15.6138 128.618 15.5124 128.586 15.4181C128.477 15.0062 128.112 14.9742 127.773 15.0551L126.821 15.2771L127.331 17.2201L127.607 17.1542L127.39 16.321ZM127.159 15.4369L127.853 15.2752C127.898 15.2554 127.948 15.2461 127.999 15.2479C128.049 15.2497 128.098 15.2626 128.142 15.2856C128.186 15.3086 128.224 15.3411 128.253 15.3804C128.281 15.4197 128.3 15.4648 128.307 15.5122C128.38 15.7981 128.179 15.8884 127.975 15.9467L127.331 16.0972L127.159 15.4369Z" fill="white"/>
<path fill-rule="evenodd" clip-rule="evenodd" d="M71.487 19.8515V14.7861C71.4733 14.5882 71.4024 14.3977 71.282 14.2357C71.1617 14.0737 70.9966 13.9465 70.805 13.8682C70.3701 13.7196 69.9688 13.9773 69.9114 13.998C69.8877 13.6689 69.9114 14.0131 69.8877 13.667C71.8409 12.4632 71.8112 12.4876 71.8132 12.4876C71.8152 12.4876 71.8429 12.4688 73.719 11.2989C74.1282 11.8255 74.6066 12.4594 74.6264 13.0745C75.7275 10.4543 79.5429 7.84732 82.4707 12.6644C84.2677 15.625 84.4476 20.3763 83.1883 24.0348C82.2157 26.9277 80.6638 28.6111 78.5209 28.6769C77.3545 28.7127 76.1861 28.3158 75.0237 27.3509C75.0237 27.475 75.0059 34.8295 75.0059 34.8295C75.0731 35.2057 75.2036 35.4653 75.5535 35.612C75.7599 35.691 75.9881 35.7022 76.202 35.644C76.2217 35.9374 76.2178 35.9449 76.2178 35.9449L70.465 37.2616V37.1262C70.465 37.1262 70.465 37.1412 70.465 36.9851C71.4949 36.5844 71.5107 35.3806 71.4791 34.3969C71.4791 34.3969 71.4949 25.6599 71.4989 19.8459L71.487 19.8515ZM75.0178 19.4753C74.9723 23.1319 75.2155 26.0794 77.3644 26.3784C79.3729 26.6474 80.1973 23.7282 80.2487 20.0189C80.3001 16.3097 79.45 13.1666 77.5522 12.9484C75.8006 12.8318 75.1028 15.3937 75.0178 19.4716V19.4753ZM23.8713 27.3452L23.6281 27.381C23.0726 26.3521 22.2819 25.1125 21.0759 25.0561C19.099 24.9658 18.3083 27.7459 18.1106 29.8281C17.8437 32.4313 17.9485 35.6214 18.6325 37.8428C19.4094 40.3652 20.7933 40.209 21.4377 39.9231C22.6239 39.3965 22.7919 37.4647 22.7464 36.1123L25.5398 37.824C22.8532 43.7057 18.1561 43.2261 15.6869 39.4284C12.8184 35.0139 14.0085 27.5314 17.0371 24.8304C19.955 22.229 23.895 23.3369 23.895 23.3369L23.8792 27.3452H23.8713ZM65.2815 20.3744C65.2934 19.481 65.2183 18.39 65.155 17.7656C64.815 14.3309 61.5215 13.7629 61.2131 21.3394C63.19 20.8917 64.4473 20.587 65.2815 20.3801V20.3744ZM69.2215 21.7456L69.1503 21.7607L69.2215 21.7456ZM69.1503 21.7607C68.8755 21.8171 67.5569 22.1105 61.2131 23.6097C61.2328 29.5177 63.0595 30.1441 64.2259 29.971C65.6097 29.766 66.1454 27.2004 66.1039 26.021C67.1457 26.6474 67.8278 27.0443 68.7569 27.6198C67.8238 31.1485 62.844 34.5587 59.3034 30.2833C56.1858 26.5214 56.9311 21.1625 58.2437 17.8126C59.0661 15.704 61.134 13.2513 64.131 13.2325C68.6778 13.2024 69.2709 19.1612 69.2215 21.7551L69.1503 21.7701V21.7607ZM108.667 10.2192C108.681 9.32574 108.603 8.23479 108.542 7.61032C108.2 4.17571 104.907 3.60766 104.6 11.1841C106.577 10.7365 107.834 10.4317 108.667 10.2248V10.2192ZM112.609 11.5904L112.537 11.6055L112.609 11.5904ZM112.537 11.6055C112.263 11.6619 110.942 11.9572 104.6 13.4544C104.62 19.3644 106.447 19.9888 107.613 19.8158C108.997 19.6108 109.533 17.0452 109.491 15.8658C110.531 16.4922 111.213 16.889 112.142 17.4646C111.211 20.9989 106.231 24.4091 102.69 20.1243C99.5729 16.3624 100.318 11.0035 101.629 7.65358C102.451 5.54504 104.521 3.09228 107.516 3.07347C112.063 3.04337 112.656 9.00222 112.609 11.596L112.537 11.6111V11.6055ZM122.088 3.87663L121.859 3.91237C121.735 3.45549 121.474 3.04291 121.107 2.72542C120.741 2.40793 120.284 2.19939 119.795 2.12547C118.314 1.85273 116.616 3.9594 117.802 5.72373C119.554 8.31944 123.116 10.1082 123.14 13.5052C123.176 14.1327 123.082 14.7608 122.865 15.3542C121.876 18.1229 119.631 19.3042 117.488 19.7744C116.169 20.066 115.262 20.0641 114.083 20.2202L114.479 16.2702L114.724 16.1686C115.273 16.8401 115.91 17.7467 117.152 17.8333C119.704 18.0082 120.71 15.894 120.068 14.4777C118.403 10.8606 112.298 8.60534 114.85 3.63775C116.242 0.927308 119.067 0.0940474 121.42 0.0865236C121.654 0.102031 121.889 0.0726083 122.112 0V0L122.088 3.87663ZM55.9011 17.3198L53.5525 30.8476C53.5525 30.8476 52.8844 33.9718 53.2699 34.3029L50.259 35.0026L48.0172 25.8273L46.2143 35.9412L43.1738 36.6484L39.4651 20.6415C39.3188 20.0772 38.8879 19.7349 38.1208 19.8553C38.1208 19.6258 38.1208 19.7161 38.1208 19.7161C38.1208 19.7161 38.1208 19.686 38.1208 19.5506L43.8183 18.2339C43.8361 18.5875 43.8301 18.1737 43.842 18.5104C43.6474 18.6254 43.4766 18.7733 43.3379 18.9468C43.0967 19.3023 43.2153 19.7387 43.2272 20.1073L45.1764 29.4594L47.3846 17.4439L49.3615 16.9492L52.0244 27.9095L53.7898 17.3141C53.94 16.573 53.4853 16.2947 52.9792 16.4244V16.1178L56.9785 15.1943C56.9785 15.4163 56.9785 15.3429 56.9785 15.3429C56.9785 15.3429 56.9785 15.3673 56.9785 15.4934C56.1364 15.6815 56.0474 16.7216 55.9189 17.3123L55.9011 17.3198ZM86.2347 16.4226V11.3572C86.221 11.1595 86.1503 10.9692 86.0303 10.8073C85.9103 10.6453 85.7458 10.518 85.5547 10.4393C85.1198 10.2907 84.7185 10.5484 84.6611 10.569C84.6374 10.2399 84.6611 10.5841 84.6354 10.238C86.5886 9.03419 86.559 9.05865 86.5609 9.06053L88.4686 7.86989C88.8759 8.39467 89.3543 9.03043 89.3741 9.6455C90.4772 7.02534 94.2906 4.41835 97.2184 9.23546C99.0174 12.1961 99.2052 16.9473 97.936 20.6058C96.9634 23.4987 95.4115 25.1821 93.2686 25.248C92.1022 25.2837 90.9338 24.8868 89.7734 23.9313C89.7734 24.0555 89.7556 31.41 89.7556 31.41C89.8208 31.7861 89.9533 32.0457 90.3012 32.1924C90.5084 32.2713 90.7371 32.2825 90.9516 32.2244C90.9694 32.5178 90.9655 32.5254 90.9655 32.5254L85.2127 33.842V33.7066C85.2166 33.6603 85.2166 33.6137 85.2127 33.5674C86.2407 33.1649 86.2565 31.9611 86.2249 30.9773C86.2249 30.9773 86.2407 22.2403 86.2446 16.4263L86.2347 16.4226ZM89.7655 16.0464C89.72 19.7029 89.9632 22.6504 92.1141 22.9495C94.1206 23.2184 94.945 20.2992 94.9964 16.5918C95.0478 12.8845 94.2056 9.73391 92.2999 9.52324C90.5483 9.40662 89.8505 11.9685 89.7655 16.0464ZM30.3832 22.3532C32.542 19.7406 36.1874 19.5619 37.419 22.1049C37.7472 22.7783 37.8836 24.0442 37.8876 24.4749L38.0161 36.3794C38.0194 36.5404 38.0644 36.6981 38.1472 36.8385C38.23 36.979 38.3479 37.0978 38.4905 37.1845C38.8384 37.3556 39.2121 37.2484 39.2121 37.2842V37.5625L36.2863 38.2491L33.3585 38.9225C33.3585 38.9225 33.3585 38.9676 33.3328 38.6083C33.5509 38.5449 33.7448 38.4219 33.8902 38.2547C34.2659 37.8127 34.2856 37.6904 34.3548 35.943L34.2876 25.8819C34.2876 24.2511 34.1314 23.0811 32.9769 23.0849C31.9371 23.0849 30.3733 24.0837 30.3872 28.1202C30.3872 35.8452 30.3872 30.1196 30.3733 37.8447C30.3911 38.2322 30.5038 38.6366 30.7489 38.8491C31.0653 39.1237 31.342 39.0372 31.597 38.9996C31.607 39.1072 31.6109 39.2151 31.6089 39.3231L25.7671 40.6849C25.7714 40.5776 25.7681 40.4702 25.7573 40.3633C25.9616 40.2915 26.1457 40.1756 26.295 40.0247C26.7042 39.6485 26.6449 39.293 26.7536 38.6892L26.7872 15.6721C26.7754 15.2959 26.6825 14.0939 25.2789 14.2745V13.9472C30.3239 12.7886 25.3599 13.9472 30.405 12.781L30.3911 22.3532H30.3832Z" fill="white"/>
<path fill-rule="evenodd" clip-rule="evenodd" d="M11.4445 17.5605L11.4069 22.1124L11.1638 22.2328C10.5707 20.9161 9.58223 19.5637 7.71208 19.7273C6.46268 19.8383 5.31212 21.1794 5.09466 22.4641C4.8001 24.1889 5.07094 25.7953 5.81425 27.0386C8.59576 31.6864 14.1805 36.1142 13.0991 41.962C12.5061 45.1973 10.5687 47.6594 7.04982 49.1096C5.02547 49.9504 0.37381 50.2213 0.37381 50.2213L0.751399 44.3527L1.10724 44.2606C1.54611 46.0832 3.34905 47.682 5.56912 47.5014C6.16929 47.4472 6.74942 47.2673 7.26791 46.9746C7.7864 46.682 8.23041 46.2838 8.56808 45.8086C10.5727 43.3314 9.17499 40.3839 8.05013 38.5067C5.38922 34.0658 0.379741 30.0237 0.933274 25.2404C1.23574 22.6597 2.78563 20.0753 5.1678 18.6815C7.49067 17.3178 9.77597 17.3686 11.4445 17.5605Z" fill="white"/>
</g>
<defs>
<clipPath id="clip0">
<rect width="129.371" height="50.2232" fill="white" transform="translate(0.37381)"/>
</clipPath>
</defs>
</svg>
