<svg width="103" height="72" viewBox="0 0 103 72" fill="none" xmlns="http://www.w3.org/2000/svg">
<path fill-rule="evenodd" clip-rule="evenodd" d="M11.9089 18.4206C13.7139 36.084 11.1676 45.6098 0.630371 59.5481C10.1886 59.8252 21.6107 66.0498 27.2199 72C48.4353 52.159 72.4646 45.8697 101.854 50.2891C93.9177 39.1123 94.948 26.0437 102.374 13.3974C81.5166 21.3498 79.4359 8.0644 78.9515 0C67.3777 20.6766 48.4692 32.243 11.9093 18.421L11.9089 18.4206ZM15.8361 23.414C16.5591 32.9958 11.9852 46.8802 2.31945 58.8232C11.8224 59.5394 21.257 64.3877 26.9603 69.5393C40.0933 59.4683 56.9792 46.1403 94.7509 45.1775C94.0587 41.2662 90.7028 33.6651 100.483 14.9109C83.8907 20.5293 78.3405 13.428 77.5051 4.42243C63.7355 27.2784 39.6482 31.5509 15.8365 23.4145L15.8361 23.414ZM39.6745 35.7556C41.2717 35.2165 43.1669 34.9873 44.6945 35.8375C46.7756 37.0343 47.1177 39.7251 46.6231 41.8222C45.9625 44.7548 44.5089 47.5551 42.2753 49.6633C40.5951 51.2803 38.5033 52.3994 36.2879 53.1851C36.1019 53.2497 35.9628 53.0635 36.1175 52.9209C36.8543 52.2396 37.4569 51.4406 38.1108 50.6894C39.4194 48.9104 40.2388 46.854 40.9716 44.8069C41.5001 43.2288 41.7757 41.5554 41.6321 39.898C41.5964 39.3394 41.3431 38.734 40.7967 38.4784C40.1406 38.1798 39.3498 38.5387 38.9689 39.086C38.4243 39.8329 38.2138 40.7443 38.0657 41.6317C37.0622 47.1336 36.0479 52.6334 35.0551 58.1371C33.0458 59.5313 31.0164 60.8969 29.0031 62.2799C29.9798 57.1003 30.9696 51.9207 31.9553 46.7419C32.2782 44.9388 32.7215 43.1426 32.7394 41.3024C32.8 40.2375 32.4169 38.9417 31.2278 38.6206C34.0413 37.66 36.8593 36.7098 39.675 35.7556H39.6745ZM21.3578 33.7078C24.7534 30.3942 30.1275 29.3599 34.7014 30.6066C34.3299 32.4528 33.9423 34.2947 33.5569 36.1362C32.457 34.8657 30.8692 33.9155 29.1257 33.8358C27.5223 33.8008 25.479 34.4503 25.0219 36.1168C24.7329 37.4932 25.7458 38.7249 26.756 39.5709C28.1311 40.6336 29.4638 41.8303 30.2747 43.3654C31.0748 44.8483 31.2224 46.6014 30.8482 48.2201C29.8585 52.4318 26.7444 56.1479 22.6388 57.8794C19.6928 59.1654 16.3307 59.5157 13.1653 58.9012C13.8312 56.5874 14.5364 54.2801 15.2152 51.9685C17.4306 54.1525 21.476 54.1155 23.6423 51.8931C24.7739 50.7631 25.3626 48.9238 24.5201 47.4797C23.79 46.1765 22.459 45.3521 21.2204 44.5492C19.749 43.5641 18.7339 41.9277 18.721 40.1768C18.7031 37.807 19.6527 35.4217 21.3578 33.7073V33.7078ZM55.18 30.9225C56.2799 29.8688 57.7696 29.2366 59.3021 29.072C58.9502 30.8988 58.5871 32.7235 58.2356 34.5503C57.2276 34.5632 56.1991 34.7968 55.3597 35.3531C54.3067 36.0306 53.7063 37.2105 53.556 38.403C53.0141 41.764 52.47 45.1258 51.9276 48.4868C49.8781 49.5181 47.8371 50.5601 45.7832 51.5841C46.4014 48.0869 47.0111 44.5867 47.6199 41.087C47.9607 39.2386 48.2363 37.3381 47.9518 35.4656C47.8015 34.6933 47.5958 33.825 46.9277 33.3104C47.9741 32.9678 49.0111 32.5894 50.0614 32.2649C51.1368 32.7364 52.0507 33.6069 52.49 34.6718C53.2202 33.3234 54.0333 31.9835 55.18 30.9229V30.9225ZM60.5385 28.7169C62.5411 27.8231 64.5504 26.9444 66.5575 26.0618C65.5763 32.0003 64.595 37.9376 63.6187 43.8765C61.5821 44.6035 59.555 45.3568 57.5144 46.0735C58.5225 40.288 59.5376 34.5029 60.5389 28.7169H60.5385ZM73.7366 16.6141C74.6398 15.8 75.5426 14.9864 76.4587 14.1878C76.1964 16.8502 75.9547 19.5165 75.6987 22.1811C77.5198 21.5967 79.3369 20.9968 81.158 20.4082C81.0817 21.4412 80.6178 22.4539 79.8899 23.2137C78.629 24.3173 76.9038 24.6703 75.3445 25.2111C74.7759 30.5291 74.1175 35.8362 73.4244 41.1387C71.3549 41.6842 69.2805 42.2191 67.2109 42.7664C68.0035 37.5652 68.7898 32.3662 69.5806 27.1659C68.7341 27.4473 67.892 27.7326 67.0472 28.0188C67.1797 27.1422 67.3229 26.2657 67.4509 25.3869C70.3897 23.1594 72.6029 20.0518 73.7357 16.6149L73.7366 16.6141ZM89.8652 41.0516C89.8652 41.7657 89.2671 42.3436 88.5302 42.3436C87.7912 42.3436 87.1931 41.7657 87.1931 41.0516C87.1931 40.3397 87.7912 39.7618 88.5302 39.7618C89.2671 39.7618 89.8652 40.3397 89.8652 41.0516ZM89.6729 41.0516C89.6729 41.6623 89.1596 42.1553 88.5302 42.1553C87.8987 42.1553 87.3857 41.6623 87.3857 41.0516C87.3857 40.4414 87.8991 39.9479 88.5302 39.9479C89.16 39.9479 89.6729 40.4418 89.6729 41.0516ZM87.8581 41.6317L88.1988 41.5929L88.342 41.1602L88.483 41.1559L88.64 41.5455L89.016 41.5067L88.8166 41.0607C88.9758 40.9827 89.1234 40.846 89.164 40.7142C89.251 40.4285 89.0476 40.2423 88.7693 40.2531C88.4602 40.266 88.272 40.3289 88.272 40.3289L87.8572 41.6317H87.8581ZM88.8237 40.6969C88.797 40.79 88.6404 40.924 88.4183 40.9047L88.5325 40.5427C88.817 40.469 88.8509 40.597 88.8237 40.6965V40.6969ZM86.4696 21.6846C87.4054 21.5678 88.4473 21.7131 89.1645 22.3492C89.879 22.9723 90.1118 23.9601 90.0271 24.856C89.9062 26.438 89.0369 27.8537 87.9905 29.0332C86.3755 30.6545 84.2516 31.7426 82.0634 32.4554C81.7097 32.57 81.6981 32.2753 81.8462 32.165C84.0343 30.5179 85.5357 28.0938 86.0686 25.4662C86.1917 24.9491 86.1944 23.9579 85.5089 23.9579C84.8077 23.9579 84.1668 24.9232 83.744 25.583C82.6218 27.5529 82.0884 29.7714 81.649 31.9594C81.4457 32.9937 81.4095 34.1176 81.8841 35.089C82.1731 35.6889 82.7828 36.1582 83.4817 36.1801C84.5138 36.2254 85.4683 35.7126 86.2591 35.1174C87.5454 34.1133 88.5106 32.7842 89.3014 31.3953L89.9914 32.1309C88.867 34.8106 87.0102 37.2993 84.3956 38.7822C82.8725 39.6588 81.0491 40.2604 79.2615 39.9182C77.9087 39.6889 76.7259 38.7779 76.1929 37.5527C75.44 35.8772 75.6215 33.9728 76.0359 32.2369C76.7147 29.3586 78.2272 26.638 80.4939 24.6375C82.149 23.1546 84.2029 21.9755 86.4705 21.6855L86.4696 21.6846Z" fill="white"/>
</svg>
