<svg width="24" height="14" viewBox="0 0 24 14" fill="none" xmlns="http://www.w3.org/2000/svg">
<path d="M0 1.10521V12.8935C0 13.0296 0.115219 13.1368 0.251063 13.1281C3.04894 12.949 6.04163 11.9666 8.15475 10.028V7.70474H5.07605C4.69627 7.70474 4.36959 7.41267 4.35211 7.03326C4.33345 6.6285 4.65605 6.29503 5.05622 6.29503H8.1548V3.97134C6.05348 2.04295 3.0608 1.04915 0.251016 0.870604C0.115172 0.861979 0 0.969135 0 1.10521H0Z" fill="white"/>
<path d="M15.8453 3.97171V6.29493H18.9238C19.3032 6.29493 19.6298 6.5863 19.6479 6.96524C19.6673 7.37001 19.3444 7.70465 18.9439 7.70465H15.8453V10.0283C17.9466 11.9567 20.9394 12.9505 23.7491 13.1291C23.8849 13.1377 24.0001 13.0305 24.0001 12.8945V1.10619C24.0001 0.97007 23.8848 0.862913 23.749 0.871585C20.9439 1.05107 17.9548 2.03554 15.8453 3.97171Z" fill="white"/>
<path d="M9.56442 4.27954V9.72013H14.4355C14.4355 9.16067 14.4355 4.86407 14.4355 4.27954C13.8667 4.27954 10.0601 4.27954 9.56442 4.27954Z" fill="white"/>
</svg>
